<?xml version="1.0" encoding="utf-8"?>
<!-- Generator: Adobe Illustrator 22.0.1, SVG Export Plug-In . SVG Version: 6.00 Build 0)  -->
<svg version="1.1" id="Layer_1" xmlns="http://www.w3.org/2000/svg" xmlns:xlink="http://www.w3.org/1999/xlink" x="0px" y="0px"
	 viewBox="0 0 1440 1700" style="enable-background:new 0 0 1440 1700;" xml:space="preserve">
<style type="text/css">
	.st0{fill:url(#SVGID_1_);}
	.st1{fill:url(#SVGID_2_);}
	.st2{fill:url(#SVGID_3_);}
	.st3{fill:url(#SVGID_4_);}
	.st4{fill:url(#SVGID_5_);}
	.st5{fill:url(#SVGID_6_);}
	.st6{fill:url(#SVGID_7_);}
	.st7{fill:url(#SVGID_8_);}
	.st8{fill:url(#SVGID_9_);}
	.st9{fill:url(#SVGID_10_);}
	.st10{fill:url(#SVGID_11_);}
	.st11{fill:url(#SVGID_12_);}
	.st12{fill:url(#SVGID_13_);}
	.st13{fill:url(#SVGID_14_);}
	.st14{fill:url(#SVGID_15_);}
	.st15{fill:url(#SVGID_16_);}
	.st16{fill:url(#SVGID_17_);}
	.st17{fill:url(#SVGID_18_);}
	.st18{fill:url(#SVGID_19_);}
	.st19{fill:url(#SVGID_20_);}
	.st20{fill:url(#SVGID_21_);}
	.st21{fill:url(#SVGID_22_);}
	.st22{fill:url(#SVGID_23_);}
	.st23{fill:url(#SVGID_24_);}
	.st24{fill:url(#SVGID_25_);}
	.st25{fill:url(#SVGID_26_);}
	.st26{fill:url(#SVGID_27_);}
	.st27{fill:url(#SVGID_28_);}
	.st28{fill:url(#SVGID_29_);}
	.st29{fill:url(#SVGID_30_);}
	.st30{fill:url(#SVGID_31_);}
	.st31{fill:url(#SVGID_32_);}
	.st32{fill:url(#SVGID_33_);}
	.st33{fill:url(#SVGID_34_);}
	.st34{fill:url(#SVGID_35_);}
	.st35{fill:url(#SVGID_36_);}
</style>
<g>
	<g>
		<linearGradient id="SVGID_1_" gradientUnits="userSpaceOnUse" x1="362.4998" y1="826.0176" x2="419.5315" y2="826.0176">
			<stop  offset="0" style="stop-color:#5900FF"/>
			<stop  offset="0.3605" style="stop-color:#00EDFF"/>
			<stop  offset="0.5751" style="stop-color:#8DEFCF"/>
			<stop  offset="0.7561" style="stop-color:#FFF1A7"/>
			<stop  offset="0.7594" style="stop-color:#FFEEA5"/>
			<stop  offset="0.926" style="stop-color:#EB652F"/>
			<stop  offset="0.9988" style="stop-color:#E32E00"/>
		</linearGradient>
		<path class="st0" d="M418.1,794.3c-2.7,7.9-14.8,10.1-21.5,13.4c-7.3,3.7-14.3,8.1-20.7,13.1c-9.2,7.2-20.9,22.2-10,33.4
			c9.7,10,26.6,0.8,34.8-6.5c10.5-9.3,16.8-22.6,17.4-36.6c0.1-1.4-2.2-1.4-2.2,0c-0.5,13.2-6.4,25.6-16.2,34.5
			c-5,4.6-11.3,8.5-18.1,10c-8.8,1.9-17.6-2.4-17.6-12.3c0-14.7,17.9-25,29.1-31.2c5.7-3.2,11.8-5.5,17.7-8.2c4.3-2,7.9-4.4,9.4-9
			C420.7,793.5,418.6,792.9,418.1,794.3L418.1,794.3z"/>
	</g>
</g>
<g>
	<g>
		<linearGradient id="SVGID_2_" gradientUnits="userSpaceOnUse" x1="529.7173" y1="731.4791" x2="594.2056" y2="731.4791">
			<stop  offset="0" style="stop-color:#92E1FF"/>
			<stop  offset="0.3605" style="stop-color:#F4B8FF"/>
			<stop  offset="0.7561" style="stop-color:#F1F3FF"/>
			<stop  offset="0.7808" style="stop-color:#ECECFF"/>
			<stop  offset="0.9988" style="stop-color:#C5B6FF"/>
		</linearGradient>
		<path class="st1" d="M531.2,635.8c1-12.3,5.4-24.2,12.8-34.1c3.4-4.6,7.9-9.7,12.9-12.6c8.9-5,13.4,2.9,16.5,10
			c10.6,23.9,14.4,50.2,16.2,76.1c1.9,26.2,2.9,52.5,3,78.8c0.2,27.7-1.4,55.6-7.6,82.6c-3.1,13.5-7.6,28.6-20.6,35.7
			c-6.3,3.4-14.1,4.5-20.5,0.7c-6.2-3.8-9.8-11.1-7.5-18.2c0.5-1.4-1.7-2-2.2-0.6c-3.1,9.2,2.9,19.1,11.7,22.4
			c11,4.1,23.1-2.6,29.8-11.2c8.7-11.3,11.3-26.5,13.8-40.1c2.9-16,4.3-32.1,4.9-48.3c1.2-32.6-0.3-65.5-2.4-98
			c-1-14.9-2.5-29.8-5.5-44.4c-2.9-14.2-6.8-29.4-14-42.1c-2.5-4.4-6.3-7.9-11.7-7.1c-6.4,1-11.8,6.9-15.8,11.5
			c-9.5,11-15.1,24.7-16.2,39.1C528.9,637.3,531.1,637.3,531.2,635.8L531.2,635.8z"/>
	</g>
</g>
<g>
	<g>
		<linearGradient id="SVGID_3_" gradientUnits="userSpaceOnUse" x1="481.3673" y1="771.9962" x2="522.3059" y2="771.9962">
			<stop  offset="0" style="stop-color:#92E1FF"/>
			<stop  offset="0.3605" style="stop-color:#F4B8FF"/>
			<stop  offset="0.7561" style="stop-color:#F1F3FF"/>
			<stop  offset="0.7808" style="stop-color:#ECECFF"/>
			<stop  offset="0.9988" style="stop-color:#C5B6FF"/>
		</linearGradient>
		<path class="st2" d="M493.6,661.1c-1-5.7,4.2-10.7,9.7-10.7c4.9,0,9.4,3.5,11.9,7.5c4.9,7.6,4.5,17.6,4.9,26.2
			c0.7,18,0.8,35.9,0.3,53.9c-0.9,36.3-3.2,73.3-9.4,109.2c-1.6,9.1-3.7,18.2-6.9,26.8c-1.6,4.4-3.4,8.9-5.9,12.8
			c-2.8,4.5-12.3,11.5-15.5,2.8c-0.5-1.4-2.7-0.8-2.2,0.6c2,5.7,8.9,7,13.8,4c7.1-4.3,10.3-14.8,12.8-22.2c7.2-21,9-43.7,11.2-65.6
			c2.4-24.4,3.9-48.9,4.4-73.4c0.2-11.8,0.2-23.5,0-35.3c-0.2-10.9,0.4-22.8-2.4-33.5c-2.1-7.9-8.2-16.2-17.1-16.2
			c-7.2-0.1-13.1,6.4-11.9,13.5C491.7,663.1,493.9,662.5,493.6,661.1L493.6,661.1z"/>
	</g>
</g>
<g>
	<g>
		<linearGradient id="SVGID_4_" gradientUnits="userSpaceOnUse" x1="427.3209" y1="1023.5798" x2="519.0656" y2="1023.5798">
			<stop  offset="0" style="stop-color:#92E1FF"/>
			<stop  offset="0.3605" style="stop-color:#F4B8FF"/>
			<stop  offset="0.7561" style="stop-color:#F1F3FF"/>
			<stop  offset="0.7808" style="stop-color:#ECECFF"/>
			<stop  offset="0.9988" style="stop-color:#C5B6FF"/>
		</linearGradient>
		<path class="st3" d="M456.6,897.7c-0.1,76.8,3.9,153.7,11.9,230.1c0.7-0.2,1.4-0.4,2.1-0.6c-8.4-16.8-21-37.8-43-34.2
			c-0.7,0.1-1,1.1-0.7,1.7c12.2,19.8,26.2,38.4,41.9,55.6c0.5,0.6,1.4,0.4,1.8-0.2c16.2-25.5,32.3-50.9,48.5-76.4
			c0.5-0.8-0.3-2-1.3-1.7c-28.9,11.6-49.3,39.7-51.2,70.8c-0.1,1.4,2.2,1.4,2.2,0c1.9-30,21.6-57.4,49.6-68.6
			c-0.4-0.6-0.8-1.1-1.3-1.7c-16.2,25.5-32.3,50.9-48.5,76.4c0.6-0.1,1.2-0.2,1.8-0.2c-15.5-17.1-29.4-35.5-41.5-55.1
			c-0.2,0.6-0.4,1.1-0.7,1.7c20.9-3.5,32.7,17.5,40.5,33.2c0.5,1,2.2,0.5,2.1-0.6c-8-76.4-12-153.2-11.9-230.1
			C458.9,896.2,456.6,896.2,456.6,897.7L456.6,897.7z"/>
	</g>
</g>
<g>
	<g>
		<linearGradient id="SVGID_5_" gradientUnits="userSpaceOnUse" x1="408.1508" y1="1544.282" x2="501.7063" y2="1544.282">
			<stop  offset="0" style="stop-color:#E77AEB"/>
			<stop  offset="0.3605" style="stop-color:#EACDA6"/>
			<stop  offset="0.7561" style="stop-color:#ECDFF1"/>
			<stop  offset="0.8363" style="stop-color:#F3C2E9"/>
			<stop  offset="0.9988" style="stop-color:#FF8CD9"/>
		</linearGradient>
		<path class="st4" d="M409.2,1584.6c23.2-16,30.6-44.8,49.3-64.7c5.5-5.9,12.3-11.6,20.3-13.5c10.6-2.5,19.2,4.9,21.1,15.2
			c3.4,19.2-13.6,33.3-29,40.6c-19.6,9.3-41.2,14.8-62.7,17.6c-1.4,0.2-1.4,2.4,0,2.2c20.6-2.7,41-7.9,60.1-16.2
			c15.4-6.7,31.2-17.5,33.8-35.4c2.3-15.8-9.5-31.1-26.2-25.4c-14.9,5-25.1,19.7-33,32.5c-10,16.2-18.6,34.2-34.8,45.2
			C406.9,1583.5,408,1585.4,409.2,1584.6L409.2,1584.6z"/>
	</g>
</g>
<g>
	<g>
		<linearGradient id="SVGID_6_" gradientUnits="userSpaceOnUse" x1="391.2585" y1="1487.9438" x2="418.4826" y2="1487.9438">
			<stop  offset="0" style="stop-color:#E77AEB"/>
			<stop  offset="0.3605" style="stop-color:#EACDA6"/>
			<stop  offset="0.7561" style="stop-color:#ECDFF1"/>
			<stop  offset="0.8363" style="stop-color:#F3C2E9"/>
			<stop  offset="0.9988" style="stop-color:#FF8CD9"/>
		</linearGradient>
		<path class="st5" d="M404.5,1522.3c0.3-13.1-6.2-24.5-9.7-36.8c-3.3-11.5-3.1-29.4,11.1-33.7c17.3-5.1,9.5,25.6,7.9,33.4
			c-2.8,13.7-7.1,27.1-12.7,39.9c-0.6,1.3,1.4,2.5,1.9,1.1c6.9-15.8,11.9-32.4,14.5-49.5c1.2-8,5.4-27.5-8-27.7
			c-11.6-0.1-18.7,12.3-19.1,22.6c-0.7,17.8,12.1,32.8,11.7,50.6C402.2,1523.7,404.5,1523.7,404.5,1522.3L404.5,1522.3z"/>
	</g>
</g>
<g>
	<g>
		<linearGradient id="SVGID_7_" gradientUnits="userSpaceOnUse" x1="467.5612" y1="1350.597" x2="936.619" y2="1350.597">
			<stop  offset="2.929688e-02" style="stop-color:#E2436A"/>
			<stop  offset="0.3605" style="stop-color:#E72279"/>
			<stop  offset="0.7561" style="stop-color:#C837E8"/>
			<stop  offset="0.8807" style="stop-color:#8A1DE6"/>
			<stop  offset="0.9988" style="stop-color:#5307E4"/>
		</linearGradient>
		<path class="st6" d="M594.2,1192.4c-60.5,9.8-109.4,60.2-123,119.1c-15.4,66.5,10.7,136.9,59,183.6c23.6,22.8,51.9,40.3,82.3,52.4
			c34,13.6,72.1,22.1,108.8,16.7c19.6-2.9,38.4-9.5,56.6-17.1c15.3-6.4,30.3-13.4,44.8-21.4c28-15.4,54.5-34.5,75.1-59.2
			c22.2-26.6,34.4-58.3,38.1-92.6c2.1-19.4,2.1-39.1,0.6-58.5c-1.4-18.8-4.7-37.7-11.3-55.4c-21.7-58.1-77.6-94-134.7-111.5
			c-29.3-9-60.7-14.8-91.5-12.7c-28,1.9-57.5,11.2-75.2,34.3c-3.8,5-7.5,11.9-4.3,18.2c3.2,6.3,11.8,9.9,18.1,12.3
			c7.9,3.1,16.4,4.7,24.8,4.7c6.6,0,13.7-0.4,18.8-5c8.5-7.7-1.4-16.7-10.2-12.1c-11.6,6-7.4,19.7,2.2,25.2c2.9,1.7,6.2,2.7,9.5,3.2
			c4.9,0.7,11.3,0.8,11.9,7.3c0.9,11.2-12.6,13.5-20.7,15c-15.2,2.8-26.9,11.5-36.5,23.3c-4.8,5.9-8.9,12.3-12.9,18.8
			c-3.9,6.5-8,13.1-10,20.4c-1.7,6-1.9,12.8,2.1,18c4.6,5.9,13.4,7.7,20.4,9c16.4,3.1,33.7,1.4,49.2-4.8
			c9.1-3.7,29.8-12.9,22.8-26.1c-5.4-10.1-19.5-10.4-25-0.4c-6.1,11.2,0.7,23.8,11.9,28c14.4,5.4,28.7-2.1,39.6-11.3
			c-0.5,0-1.1,0-1.6,0c5,4.2,1.4,10.7-3.1,13.2c-4,2.3-8.8,3.1-13.2,4.3c-8.8,2.4-17.7,4.7-26.5,7.1c-9.2,2.4-18.3,4.9-27.5,7.3
			c-6.5,1.7-13.3,3.4-17.9,8.6c-5.2,5.8-7.9,14.1-11.1,21.1c-4,8.7-7.9,17.4-11.9,26.1c-2.5,5.6-5.2,11.2-3.3,17.4
			c1.7,5.7,6.4,10.3,11.5,13c6.4,3.4,13.8,4.1,20.9,4.7c8.6,0.7,17.1,1.6,25.6,3.6c15.8,3.6,30.9,9.9,44.7,18.4
			c7,4.3,13.6,9.2,19.7,14.6c5.3,4.7,10.1,9.9,16.1,13.7c9.3,5.9,20.4,5.9,28.8-1.4c27.6-23.9,2.8-62.6,11.7-91.9
			c-0.6,0.2-1.3,0.3-1.9,0.5c4.7,4.5,11,10.6,9.7,17.9c-0.7,3.7-3.5,7.8-7.6,8c-4.5,0.1-8-4.6-9.9-8.1c-6.1-11.6-1.9-25.6,2.2-37.1
			c4-11.4,8.4-23,6.1-35.3c-1.2-6.3-4.2-12.7-3.6-19.2c0.7-8.2,8.1-12.2,15.6-11.7c13.3,0.9,21,14,28.9,23.1
			c7.8,8.9,16.9,17.7,27,24.1c8.2,5.2,17.2,4.7,22.5-4c6.6-10.8,1.6-23.5,5.2-35c6.1-19.4,33.6-21.8,38.3-42.2
			c0.3-1.4-1.8-2-2.2-0.6c-4.7,20.4-33,22.8-38.5,43c-1.9,7.1-0.8,14.5-1.3,21.7c-0.5,6.9-3.4,16-10.9,18.1
			c-8.4,2.3-17.5-6.7-23.3-11.6c-5.7-4.8-11-10.1-15.8-15.7c-7.6-8.7-14.8-20.4-27.1-22.7c-9-1.7-18.9,2.3-20.5,12
			c-1.1,6.7,1.7,13.3,3.1,19.7c1.9,8.7,0.5,17-2.2,25.4c-4,12.5-9.9,24.9-8.6,38.4c0.8,8.1,8.4,25.3,19.3,18.6
			c12.1-7.5,2.2-21.6-4.8-28.3c-0.6-0.6-1.6-0.3-1.9,0.5c-8.4,27.8,11.8,58.4-5.4,84.4c-8.4,12.6-22.1,14.9-34.3,5.9
			c-6.1-4.4-11.2-10.1-16.9-14.8c-5.4-4.5-11.1-8.5-17.1-12.2c-12.3-7.5-25.8-13.3-39.7-17c-6.8-1.8-13.7-3.1-20.6-3.9
			c-8.3-1-17-0.7-25.1-3.2c-8.3-2.6-16.9-9.5-16.1-19c0.4-4.3,2.6-8.3,4.4-12.2c1.9-4.2,3.8-8.4,5.7-12.6
			c3.6-7.9,7.1-15.9,10.8-23.8c4.1-8.7,9.4-13.1,18.7-15.7c18.8-5.2,37.7-10.1,56.5-15.1c6.4-1.7,15.3-2.9,19.3-8.9
			c2.7-4,2.7-9.5-1.1-12.7c-0.5-0.4-1.1-0.4-1.6,0c-11.9,9.9-31.9,19.3-45.1,5.8c-5.2-5.3-6.6-13.9-2.7-20.4
			c4.4-7.2,14-7.6,19.4-1.2c12.8,14.9-23.8,27-33.4,29.2c-15.1,3.4-33.5,3.4-47.9-3.2c-18.2-8.4-3.7-30.9,3.3-42.2
			c7.5-12.2,16.2-24.6,28.6-32.4c6.4-4,13.2-5.9,20.6-7.2c6-1.1,12.6-2.4,16.6-7.4c2.6-3.2,4.2-7.8,2.9-11.9
			c-1.5-4.7-6.1-6.1-10.5-6.6c-7.8-1-17.1-3.9-19.6-12.5c-2-6.9,6.3-16.8,13.5-12.2c5.7,3.6,0.5,8.8-3.2,10.8
			c-3.8,2.1-8.4,2.2-12.6,2.3c-8.3,0.2-16.6-1.2-24.3-4c-8.1-2.9-21.8-8.5-18.7-19.3c2-7.1,8.5-13.4,14-18.2
			c10.1-9,22.6-15,35.5-18.7c26.4-7.4,54.9-6,81.6-1.2c27.4,4.9,54.3,13.2,79.3,25.5c24.2,11.9,46.7,27.7,64.4,48.1
			c20.3,23.4,32,51.9,36.5,82.4c5,33.8,4.9,70.6-3.5,103.9c-7.4,29.4-23.3,55.4-44.7,76.7c-20.3,20.3-44.6,36.3-70,49.6
			c-28.5,14.9-59.5,28.9-91.5,34c-34.3,5.5-69.8-1.8-102-13.6c-28.2-10.3-54.7-25.3-77.6-44.7c-46.7-39.6-76.2-98.7-73.6-160.6
			c2.4-57.3,35.8-111.2,87.8-136.4c12-5.8,24.7-9.8,37.9-11.9C596.3,1194.3,595.6,1192.1,594.2,1192.4L594.2,1192.4z"/>
	</g>
</g>
<g>
	<g>
		<linearGradient id="SVGID_8_" gradientUnits="userSpaceOnUse" x1="561.5861" y1="144.4541" x2="956.111" y2="144.4541">
			<stop  offset="0" style="stop-color:#FFF41B"/>
			<stop  offset="0.5232" style="stop-color:#F43BE9"/>
			<stop  offset="0.5907" style="stop-color:#EA3BEC"/>
			<stop  offset="0.9988" style="stop-color:#B43EFF"/>
		</linearGradient>
		<path class="st7" d="M595.2,126.9c6-15.5,12.3-30.9,18.9-46.2c3.2-7.5,6.5-15.1,10-22.5c3.2-6.8,7-12.3,15-13.3
			c4.7-0.6,10.2-0.2,14.2-3.2c4.8-3.6,4.5-10.8,9.8-13.8c3.7-2.1,8.8-1.7,13-2c4.6-0.3,9.2-0.7,13.8-1c7.6-0.6,15.4-1.7,23-1.6
			c2.8,0,6.2,0.4,8.6,2c3.8,2.5,1.7,5.5,2.6,9.1c1.1,4.6,8.2,3.7,11.7,3.8c16.8,0.9,33.5,1.8,50.3,2.7c6.5,0.3,24.4,4.2,26.4-5.9
			c0.3-1.3-0.3-2.7-0.1-4c0.7-3.7,4-4.5,7.2-4.9c4.2-0.5,8.4-1,12.6-1.4c8.4-0.8,16.8-1.2,25.2-1.3c1.8,0,3.5-0.1,5.3,0
			c4.2,0.2,6.1,1.8,7.2,6.2c0.6,2.4,0.3,4.5,1.7,6.8c2.5,4.3,7.1,6.7,11.7,8.1c7.2,2.3,14.3,3.2,19.8,8.8c4.7,4.7,7.6,10.9,9.8,17
			c5.3,14.5,8.9,29.7,13.2,44.5c1.1,3.8,2.2,7.6,3.3,11.4c0.5,1.8,1.4,3.8,1.7,5.7c0.3,2.6-0.7,3.3-2.6,4.9
			c-5,4.5-9.5,9.5-13.7,14.8c-8.3,10.6-15.1,22.2-21.1,34.3c-3.1,6.1-5.9,12.3-8.7,18.6c-1.9,4.3-2.9,7.7-8.2,8.7
			c-3.9,0.8-8.6,0.2-12.6,0.4c-33.5,0.9-66.9,1.8-100.4,2.8c-16.5,0.5-33.1,0.9-49.6,1.4c-8.6,0.2-17.2,0.5-25.8,0.7
			c-7.9,0.2-16,1-23.9,0.6c-8.8-0.5-13.3-11.5-17.8-18c-4.4-6.3-8.9-12.5-13.4-18.7c-9-12.1-18.5-24-28.3-35.5
			c-5-5.8-10.1-11.6-15.2-17.2c-0.6-0.7-1.6-0.3-1.9,0.5c-5.1,14.7-10.2,29.3-15.3,44c-4.5,12.8-9,25.7-10.8,39.2
			c-2.6,19.3,2.6,55.2,30.2,47.3c12.7-3.7,24.8-12.3,35.4-20c11.8-8.5,22-18.4,36.7-21.5c15-3.2,31.1-2.9,46.4-3.5
			c15.9-0.6,31.8-1,47.6-1.1c31.8-0.2,63.6,0.7,95.3,2.7c4,0.3,7.9,0.5,11.9,0.8c4,0.3,8.7,0.1,12.4,1.5c6.5,2.4,11,11,15.2,16.1
			c4.7,5.7,9.6,11.2,14.7,16.6c4.3,4.5,8.7,9.7,14,13.2c9,6,18.9,2.2,25.3-5.6c7.7-9.2,9.9-22.2,10-33.9c0.1-13.9-2.6-27.9-5.7-41.4
			c-3.3-14.2-7.8-28.2-13.4-41.6c-5.3-12.8-12.2-25.4-22.6-34.9c-11.5-10.5-26-16.9-37.1-28c-5.3-5.3-9.1-11.6-13.9-17.1
			c-3.8-4.3-7.8-2.3-12.1,0.1c-15.7,8.8-31.3,17.8-46.9,26.7c-0.5,0.3-0.8,1-0.4,1.5c5.9,8.4,12.3,16.5,19.2,24.2
			c3.6,4,7.3,7.9,11.1,11.7c2.9,2.8,6.3,7.6,10.3,8.8c2.5,0.8,4.6-0.5,6.4-2.1c4.3-3.6,8.4-7.7,12.5-11.6
			c8.7-8.1,17.5-16.1,26.2-24.2c-0.5-0.5-1.1-1.1-1.6-1.6c-7.6,7.8-15.1,15.5-23.5,22.4c-8.7,7.2-18.2,12.6-28.5,17.2
			c-13.5,6-31.5,16.5-27.2,34.5c4,16.2,28.7,15.1,39.3,6.6c11.6-9.3,5.9-27.7-7-32.6c-20.7-7.8-36.9,12.1-41.5,30
			c0.5-0.3,0.9-0.5,1.4-0.8c-34.4-6.1-69.4-6.9-104-2.4c0.4,0.4,0.8,0.8,1.1,1.1c0.6-13.2,1.2-26.3,1.8-39.5c-0.8,0-1.5,0-2.2,0
			c1.2,18.7,2.3,37.4,3.5,56.1c0.7-0.2,1.4-0.4,2.1-0.6c-9-11.8-20-21.6-32.7-29.3c-0.2,0.7-0.4,1.4-0.6,2.1
			c17.6,0.8,35.2,2.6,52.6,5.3c0.1-0.7,0.2-1.5,0.3-2.2c-7.5,0.6-14.9,1.2-22.4,1.8c0.4,0.4,0.8,0.8,1.1,1.1
			c0.5-8.8,1-17.6,1.5-26.3c0.3-5.6,1.4-11.4-4.5-14.3c-6.4-3.1-14.2-3.6-20.9-5.8c-8-2.6-15.8-6.8-20.2-14.3
			c-10-17,9.1-32,23.6-36.5c8.2-2.6,17.5-2.5,24.5,3.1c6.7,5.4,8.4,14.2,3.4,21.4c-12.6,18.1-35.9,7.5-50.6-1.3
			c-1.2-0.7-2.4,1.2-1.1,1.9c13.9,8.3,32.3,17.4,47.5,6.7c11.8-8.3,12.8-24.4-0.2-32.3c-14.2-8.6-34.3-0.5-44.7,10.7
			c-11.2,12-8.3,27.8,4.8,36.9c9.3,6.4,20.6,7.2,31,10.7c5.1,1.7,5.5,5.5,5.2,10c-0.2,3.3-0.4,6.5-0.6,9.8c-0.4,6.5-0.8,13-1.1,19.5
			c0,0.6,0.5,1.2,1.1,1.1c7.5-0.6,14.9-1.2,22.4-1.8c1.2-0.1,1.6-2,0.3-2.2c-17.6-2.7-35.4-4.5-53.2-5.4c-1.1-0.1-1.5,1.5-0.6,2.1
			c12.3,7.5,23.1,17.1,31.9,28.5c0.6,0.8,2.2,0.7,2.1-0.6c-1.2-18.7-2.3-37.4-3.5-56.1c-0.1-1.4-2.2-1.5-2.2,0
			c-0.6,13.2-1.2,26.3-1.8,39.5c0,0.6,0.5,1.2,1.1,1.1c34.4-4.5,69.2-3.8,103.4,2.3c0.6,0.1,1.2-0.2,1.4-0.8
			c4-15.6,15.7-32,33.9-29.6c8,1.1,14.4,6.6,16.1,14.6c2,9-3.6,16.1-11.9,18.9c-7.2,2.4-17.1,3.1-23.6-1.4c-7-4.8-6.6-14.4-3.2-21.4
			c6.9-14.1,25.1-17.6,37.6-24.8c14.9-8.7,27.1-21.1,39-33.4c1-1-0.5-2.6-1.6-1.6c-7.1,6.5-14.2,13.1-21.3,19.6
			c-3.8,3.5-7.6,7-11.3,10.5c-3.8,3.5-8,9.7-13.2,5.1c-13.9-11.9-25.9-26.8-36.4-41.7c-0.1,0.5-0.3,1-0.4,1.5
			c12.7-7.2,25.5-14.5,38.2-21.7c3.5-2,6.9-4.1,10.4-5.9c5-2.6,7.9,1,10.6,4.8c3.3,4.6,7,8.9,10.9,12.8c8.7,8.7,19.1,14.7,29,21.7
			c11.1,7.8,19.2,17.9,25.3,29.9c12.2,24,19.9,51.9,22.9,78.5c1.5,13.4,1.6,28.2-4.7,40.5c-2.5,5-6.3,9.7-11.3,12.3
			c-8.2,4.2-15-0.4-20.9-6c-9.7-9.4-18.8-19.5-27.1-30.2c-2.9-3.6-5.5-8-9.8-10.2c-5.4-2.8-13-2.2-18.9-2.6
			c-28.7-2-57.5-3.1-86.3-3.2c-28.8-0.2-57.6,0.5-86.3,2.1c-11.8,0.7-24.2,0.9-35.3,5.6c-11.7,5-21.1,14.6-31.5,21.8
			c-6.2,4.3-12.6,8.2-19.2,11.7c-6.7,3.6-15.3,7.7-23.1,5.4c-14.5-4.4-16.9-26.4-16.1-38.8c0.9-15,5.9-29.5,10.8-43.6
			c5.3-15.3,10.6-30.5,15.9-45.8c-0.6,0.2-1.3,0.3-1.9,0.5c20,21.9,38.6,45.1,55.6,69.4c3.6,5.2,6.8,10.9,10.8,15.7
			c3.6,4.3,7.7,4.9,13.1,4.8c15.9-0.2,31.7-0.9,47.6-1.3c31.1-0.9,62.2-1.7,93.2-2.6c15.3-0.4,30.5-0.8,45.8-1.3
			c7.5-0.2,15.1-0.1,22.6-0.6c5.3-0.3,7-2.9,9.1-7.6c11.9-26.6,25.1-53.5,47.8-72.7c0.3-0.2,0.4-0.7,0.3-1.1
			c-5.5-18.7-10.8-37.5-16.4-56.2c-3.6-12.2-8.6-26.3-21.2-31.8c-7.4-3.2-19.2-2.9-23.2-11.3c-2.7-5.7,0-12-8.2-13.4
			c-8.3-1.4-17.8,0-26.1,0.6c-4.8,0.3-9.7,0.8-14.5,1.3c-3.4,0.4-7.7,0.2-10.8,1.6c-1.8,0.8-3,1.9-3.4,3.9c-0.5,2.2,0.3,4.1-0.5,6.3
			c-1.1,2.9-3.2,3.6-6.2,4c-8.7,1.3-18.6-0.6-27.4-1c-10.2-0.5-20.4-1.1-30.5-1.6c-4.4-0.2-9.5,0.2-13.8-0.7
			c-2.6-0.6-4.2,1.4-5.6-3.7c-0.1-0.5,0.3-1.2,0.3-1.8c-0.1-1.3,0-2.2-0.6-3.4c-1.8-3.9-6.8-5.2-10.7-5.6
			c-8.6-0.9-17.9,0.9-26.4,1.6c-4.6,0.3-9.2,0.7-13.8,1c-4,0.3-8.7,0-12.4,1.7c-6,2.7-5.6,9.8-9.9,13.9c-5.8,5.5-15.9,1.7-22.5,6.5
			c-6.7,4.8-9.5,14.3-12.7,21.4c-8.7,19.5-16.9,39.2-24.6,59.1C592.5,127.7,594.7,128.2,595.2,126.9L595.2,126.9z"/>
	</g>
</g>
<g>
	<g>
		<linearGradient id="SVGID_9_" gradientUnits="userSpaceOnUse" x1="936.0753" y1="1341.45" x2="1299.9539" y2="1341.45">
			<stop  offset="0" style="stop-color:#00FFAD"/>
			<stop  offset="0.2358" style="stop-color:#3FC0A5"/>
			<stop  offset="0.7664" style="stop-color:#C83794"/>
			<stop  offset="0.9988" style="stop-color:#FF008D"/>
		</linearGradient>
		<path class="st8" d="M935.7,1451.6c24.8,11.8,49.9-6.1,66-23.9c9.9-11,18.7-23.2,30.3-32.4c11.5-9.2,27-16.2,42-12.8
			c24.8,5.6,31.9,36.5,22.9,57.5c-11.1,25.9-41.2,38-66.9,43.4c-32.9,6.9-73,2.5-91.6-29.3c-0.3,0.6-0.6,1.1-1,1.7
			c27.1-1.6,54.4-3.5,80.8-10.2c24.3-6.2,51-17.1,67.9-36.5c6.4-7.3,11.2-18.4,4.3-27c-5.1-6.4-15.7-8.8-20.3-0.5
			c-5.5,10,3.5,23.4,8.5,31.6c5.1,8.4,12.2,21.1,23.4,22c14.9,1.1,5.3-19.8,2.5-26c-6.5-14.7-15.5-28.2-26.4-40
			c-0.1,0.6-0.2,1.2-0.2,1.8c74-33.9,90.1-129.8,163.1-164.7c9.1-4.4,18.8-7.5,28.9-9c4.9-0.7,9.8-1,14.7-0.8
			c2.8,0.1,5.6,0.4,8.4,0.8c2.7,0.4,5,0.1,5.3,3.1c0.6,5.5-1.2,12.5-2,17.9c-0.8,5.7-1.9,11.4-3,17.1c-2.3,11.4-5,22.6-7.7,33.9
			c-5.1,20.9-10.6,41.2-24.7,58c-13.1,15.6-30.2,27.9-47.5,38.4c-20,12.2-41.6,22-64,28.8c-15.8,4.8-35.9,8.3-43.9,24.8
			c-0.6,1.3,1.3,2.4,1.9,1.1c8.5-17.5,31.8-20.1,48.3-25.6c20-6.6,39.2-15.4,57.2-26.3c17.5-10.6,34.9-22.9,48.3-38.4
			c13.8-15.9,20.1-34.7,25.1-54.9c6.3-25.6,12.5-51.3,14.3-77.7c0-0.5-0.4-1-0.8-1.1c-36.9-8.6-73.4,10.6-98.8,36.2
			c-28.5,28.7-46.9,65.4-73.2,95.9c-14.3,16.6-31,31.3-51.1,40.5c-0.7,0.3-0.7,1.3-0.2,1.8c7.9,8.6,14.8,18,20.5,28.3
			c3,5.4,17.4,30.4,7.7,33.7c-4.7,1.6-10.6-2.8-13.7-5.9c-4.1-4.2-7.4-9.8-10.5-14.8c-4.5-7.4-15.7-24.1-6.3-31.9
			c4.4-3.6,10.3-1.2,13.8,2.5c4.5,4.9,4.2,11.6,1.5,17.4c-4.6,9.6-14.6,16.9-23.2,22.7c-17.4,11.6-37.5,18.5-57.9,22.8
			c-23.3,4.9-47.2,6.6-71,7.9c-0.8,0-1.4,0.9-1,1.7c15.3,26.2,46.7,35.4,75.5,33.1c27.7-2.2,59.6-11.7,78.2-33.6
			c14.4-17,18-43.4,4-61.8c-17.8-23.4-49.9-12.2-68,4.4c-13.6,12.5-23.7,28.2-37.6,40.3c-13.8,12-34,20.4-51.7,12
			C935.5,1449,934.4,1451,935.7,1451.6L935.7,1451.6z"/>
	</g>
</g>
<g>
	<g>
		<linearGradient id="SVGID_10_" gradientUnits="userSpaceOnUse" x1="758.4735" y1="409.064" x2="999.5721" y2="409.064">
			<stop  offset="0" style="stop-color:#FFA192"/>
			<stop  offset="0.3605" style="stop-color:#FF54B9"/>
			<stop  offset="0.7548" style="stop-color:#AD8CE0"/>
			<stop  offset="0.8408" style="stop-color:#A6ACD2"/>
			<stop  offset="0.9988" style="stop-color:#9BE2BB"/>
		</linearGradient>
		<path class="st9" d="M762.4,360c-0.2,32.9-0.5,65.7-0.7,98.6c-0.1,13.8-1.9,29.4,3.7,42.5c4.6,10.5,14.1,18.1,24.5,22.4
			c13,5.5,27.5,6.1,41.4,6.2c16.6,0.2,33.1,0.3,49.7,0.4c16.4,0.1,32.9,0.4,49.3,0.4c13,0,26.8-0.5,38.3-7.3
			c19-11.2,24.4-34.5,26.5-54.8c1.4-13.6,1.6-27.4,2.2-41c0.7-16.5,1.4-33,2.2-49.5c1.1-25.9,4.3-55.5-18.2-73.7
			c-21.9-17.8-51.6-16.5-78.2-16.2c-16.5,0.2-33,0.4-49.5,0.6c-15.5,0.2-31.3-0.5-46.8,1.1c-12.3,1.3-24.1,5-32.9,14.2
			c-8.4,8.8-13.1,20.7-14.9,32.6c-2.3,14.9-0.8,30,0.2,44.9c1.2,16.6,2.4,33.2,3.6,49.9c0.6,7.8,0.9,15.6,1.7,23.4
			c0.5,5.4,1.8,10.7,5.4,15c6.5,7.6,17.6,10,27.2,9.1c12-1.1,23.7-6.6,32.4-14.9c6.6-6.3,13.2-17.9,5.4-25.9
			c-6-6.2-16.7-5.8-23.9-2.4c-8.2,3.9-15.6,13-15,22.5c0.5,8.4,7.7,14,15.8,13.7c8.6-0.3,17.1-5.8,20.8-13.5c5.5-11.4,3-24.7,1-36.7
			c-2.7-16.1-4-32.3-3.6-48.7c0.1-3.8,0.3-7.6,0.6-11.4c0.1-1.1-0.2-4.8,0.5-5.7c1.2-1.6,3.5-1.4,5.3-1.6c8.6-1.2,17.1-2.4,25.7-3.6
			c16.4-2.3,32.9-4.7,49.3-7c2-0.3,5.1-1.2,7-1c5.6,0.6,5.1,3.8,5.5,7.4c0.5,3.9,0.8,7.9,1.2,11.8c0.9,8.5,1.8,17,2.7,25.5
			c1.5,14.8,3.9,29.8,4.2,44.6c0.3,12.8-1.9,28.7-14.3,35.5c-7.1,3.9-16.4,3-20.3-4.9c-3.7-7.6-0.3-16,6.3-20.7
			c7.2-5.2,16.6-5.6,20.9,3.2c2.4,5,4.5,9.7,8.3,13.9c6.7,7.5,16,12.6,25.8,14.5c9.2,1.8,18.6,0.8,27.1-3.2c1.3-0.6,0.2-2.6-1.1-1.9
			c-11.1,5.2-23.9,4.8-35.1-0.1c-5.4-2.3-10.3-5.7-14.3-9.9c-4.5-4.7-6.4-10.1-9.4-15.7c-5.4-9.9-17.7-7.7-25.2-1.2
			c-7.2,6.2-9.6,16.8-3.7,24.8c6.4,8.6,18.5,6.8,25.8,0.5c8.5-7.3,11.1-18.8,11.5-29.5c0.5-14.6-2.1-29.4-3.6-43.9
			c-0.9-8.5-1.8-17-2.7-25.5c-0.7-7.2-0.8-14.9-2.4-21.9c-1.3-5.9-5.9-5.7-10.9-4.9c-9.2,1.3-18.4,2.6-27.6,3.9
			c-19.1,2.7-38.2,5.4-57.2,8.1c-0.5,0.1-0.8,0.6-0.8,1.1c-2.1,21-1.6,42.1,1.6,62.9c2.6,17,8.8,43.4-12.3,51.3
			c-7.7,2.9-17.4,1-19.7-8c-2.2-8.8,5.1-18.2,12.4-22.1c6.7-3.6,17.7-4.5,23,2.2c7.6,9.7-4.5,21.7-12.1,27
			c-13.4,9.3-38,15.6-50.3,0.9c-6.7-8.1-5.3-21.9-6.1-31.8c-0.8-11-1.6-21.9-2.3-32.9c-2.5-35.3-14.1-96.9,32.4-109.4
			c9.9-2.6,20.2-2.6,30.4-2.8c11.2-0.1,22.5-0.3,33.7-0.4c21.4-0.2,43-1,64.4-0.6c20,0.3,41.2,3.2,56.9,16.6
			c15.6,13.3,17.8,33.2,17.2,52.5c-0.7,22.1-1.9,44.2-2.9,66.2c-0.8,18.6-0.6,37.7-4.1,56c-3,15.5-9.3,31.5-23.5,39.9
			c-8.9,5.3-19.3,6.6-29.5,6.9c-10.7,0.3-21.4,0-32.1-0.1c-22.3-0.2-44.6-0.4-66.9-0.5c-20.3-0.2-42.8,0.3-59.7-12.7
			c-18-13.8-15.5-36-15.4-56.3c0.2-22,0.3-44,0.5-66c0.1-10.8,0.2-21.7,0.2-32.5C764.6,358.5,762.4,358.5,762.4,360L762.4,360z"/>
	</g>
</g>
<g>
	<g>
		<linearGradient id="SVGID_11_" gradientUnits="userSpaceOnUse" x1="288.1876" y1="1074.6627" x2="382.0435" y2="1074.6627">
			<stop  offset="0" style="stop-color:#DAECFD"/>
			<stop  offset="0.3605" style="stop-color:#FBFBF9"/>
			<stop  offset="0.7561" style="stop-color:#FEFDC6"/>
			<stop  offset="0.9988" style="stop-color:#FFD3B8"/>
		</linearGradient>
		<path class="st10" d="M376.7,1054.5c-17.6-1.7-35.1-5.1-51.9-10.6c-15.6-5.1-31.7-14.3-34.9-31.8c-0.2-1.3-2.1-0.9-2.2,0.3
			c-1.8,22,8.3,43.6,26.2,56.5c-0.1-0.6-0.2-1.2-0.2-1.8c-12.7,10-28.1,24.3-20.7,42.1c2.5,6,7.7,10.8,14.4,11.1
			c9.9,0.5,18-7.2,27.1-9.8c-0.5-0.4-0.9-0.7-1.4-1.1c-1.1,10.5-0.9,24.7,11.7,27.9c13.2,3.4,23.3-8,28.8-18.5
			c7-13.4,10.1-28.7,9.1-43.8c-0.2-3.5-0.7-7-1.4-10.5c-0.4-1.8-0.5-5.4-2.3-6.6c-2.2-1.4-3.9,0.6-2.7,2.6c0.2,0.4,0.8,0.7,1.3,0.5
			c0.1,0,0.3-0.1,0.4-0.1c1.4-0.4,0.8-2.6-0.6-2.2c0.9-0.3,3,14.9,3.1,16.3c0.3,4.9,0.2,9.7-0.3,14.6c-1.2,10.8-4.6,21.5-10.1,30.9
			c-5.1,8.7-14.3,17.7-25.3,14.4c-11-3.3-10.4-16.4-9.4-25.6c0.1-0.7-0.8-1.3-1.4-1.1c-7.4,2.1-13.6,7.3-21,9.2
			c-8.4,2.1-15.5-2.3-18.3-10.3c-5.8-16.5,9.1-29.4,20.7-38.5c0.6-0.5,0.3-1.4-0.2-1.8c-17.2-12.4-26.8-33.4-25-54.5
			c-0.7,0.1-1.5,0.2-2.2,0.3c3,16.2,16.9,26.1,31.5,31.6c18.3,6.9,38.1,10.5,57.5,12.4C378.1,1056.9,378.1,1054.7,376.7,1054.5
			L376.7,1054.5z"/>
	</g>
</g>
<g>
	<g>
		<linearGradient id="SVGID_12_" gradientUnits="userSpaceOnUse" x1="455.2238" y1="1074.6605" x2="757.577" y2="1074.6605">
			<stop  offset="0" style="stop-color:#FFF41B"/>
			<stop  offset="0.5232" style="stop-color:#F43BE9"/>
			<stop  offset="0.5907" style="stop-color:#EA3BEC"/>
			<stop  offset="0.9988" style="stop-color:#B43EFF"/>
		</linearGradient>
		<path class="st11" d="M599.6,1084.9c-5.9,8.3-23.2-22.5-25.5-26.7c-6-10.9-10.6-23-10.4-35.6c0.4-25.1,18.1-46,38.7-58.5
			c11.3-6.9,23.6-11.8,36.1-15.9c12.4-4.1,25.6-7.8,38.8-6.7c25.1,2.1,42,23.8,55,43.3c12.9,19.5,23.9,42.6,23.7,66.5
			c-0.2,25.8-15.9,44.8-37.3,57.4c-21.8,12.9-48.7,19.1-73.4,11.7c-10.8-3.2-21-8.9-29.2-16.7c-7.7-7.4-15.5-18-14.9-29.2
			c1-17,22.3-14.5,29.9-3.9c5.6,7.7,6.9,18.9,2.7,27.5c-10.4,21.6-44.6,9.5-45-12.4c0-1-1.2-1.5-1.9-0.8
			c-38.9,37.6-81.8,70.8-128.1,98.7c-4,2.4-5,2.6-4.2,7.3c0.7,4.3,2.9,8.1,5.9,11.1c6,6,15,9.1,23.4,8.2
			c10.8-1.1,20.3-7.1,28.6-13.5c11.6-8.9,22.6-18.6,33.9-28c25.6-21.3,51.1-42.6,76.7-63.9c1.1-0.9-0.5-2.5-1.6-1.6
			c-21,17.5-41.9,34.9-62.9,52.4c-10.2,8.5-20.5,17-30.7,25.5c-9.3,7.7-18.4,16.3-29.2,22c-10.3,5.4-22.2,7.1-32.4,0.6
			c-4.1-2.6-7.6-6.4-9.1-11.1c-1.1-3.6-1-4.7,1.9-6.7c2.9-2,6.2-3.7,9.2-5.6c20.3-12.7,40-26.3,58.9-40.9
			c21.4-16.5,41.8-34.2,61.2-53c-0.6-0.3-1.3-0.5-1.9-0.8c0.3,18.7,23.5,32.4,40.1,23.2c15.8-8.8,15.1-33.8,1.8-44.5
			c-7.3-5.9-20.1-7.4-26.4,0.8c-6.9,9-1.5,22,4.1,30.1c14.8,21.6,41.7,32,67.4,30.2c27.3-1.9,58.1-16.3,74-39.3
			c15.7-22.6,11.9-51.2,1.7-75.2c-5.7-13.3-13.3-25.7-21.9-37.3c-7.9-10.6-16.7-21-28.2-27.8c-12.3-7.2-26.2-8.1-40-5.7
			c-15.1,2.7-30.2,8.1-44,14.5c-25.1,11.6-49.1,32.2-53,61.2c-1.8,13.2,1.6,26.2,7.4,38.1c3.3,6.9,7.4,13.3,11.7,19.6
			c3.2,4.8,6.4,10.7,11.6,13.6c3.3,1.8,6.6,1.9,8.8-1.2C602.4,1084.8,600.4,1083.7,599.6,1084.9L599.6,1084.9z"/>
	</g>
</g>
<g>
	<g>
		<linearGradient id="SVGID_13_" gradientUnits="userSpaceOnUse" x1="500.9088" y1="1583.6428" x2="1160.8505" y2="1583.6428">
			<stop  offset="0" style="stop-color:#5900FF"/>
			<stop  offset="0.3605" style="stop-color:#DE009F"/>
			<stop  offset="0.5751" style="stop-color:#D48D9A"/>
			<stop  offset="0.7561" style="stop-color:#CBFF96"/>
			<stop  offset="0.7684" style="stop-color:#C0FD9B"/>
			<stop  offset="0.9287" style="stop-color:#37E3DB"/>
			<stop  offset="0.9988" style="stop-color:#00D9F5"/>
		</linearGradient>
		<path class="st12" d="M508.3,1592.9c20.4,9.7,40.9,19.4,62.4,26.4c22,7.2,44.6,10.8,67.8,10.2c24.4-0.7,48.8-4.3,73.1-7.1
			c24.7-2.9,49.4-5.7,74.2-8.6c50.1-5.8,100.2-11.6,150.3-17.4c23.1-2.7,46.3-5,69.4-8.3c21.5-3.1,43-7.5,63-16.2
			c19.3-8.4,36.2-20.9,51.3-35.4c7.7-7.4,14.9-15.2,22-23.3c3.3-3.8,6.6-7.7,9.8-11.6c1.6-1.9,3.2-3.9,4.8-5.8
			c1.2-1.4,4.4-4.2,5-6.1c1.4-4.8-5.4-8.1-9-8.5c-6.3-0.7-12.9,1.6-18,5.2c-16.6,11.3-29.5,27.3-45.8,39.1
			c-19.2,13.9-42.2,17.7-64.9,22.1c-24.4,4.7-48.9,9.1-73.4,13.2c-49,8.2-98.1,15.3-147.4,21.2c-49.4,5.9-98.9,10.7-148.6,14.2
			c-23.6,1.7-48.6,5.3-72.1,1.3c-19.8-3.4-37.1-15.3-57-18.1c-8.6-1.2-16.9,0-24.3,4.6c-0.4,0.3-0.6,0.8-0.5,1.3
			c5.4,21.9,29.5,30.3,49.1,34.9c32.5,7.5,65.5,13.6,98.2,20.4c1.4,0.3,2-1.8,0.6-2.2c-23.2-6.7-39.7,29.5-20.3,43.3
			c9.3,6.7,22.5,5.4,32-0.2c10.6-6.3,15.8-17.9,13-30c-3.3-14.4-16.4-26.1-31.4-26.1c0,0.8,0,1.5,0,2.2
			c104.4-8.1,208.8-16.1,313.1-24.2c29.5-2.3,59-4.6,88.5-6.8c-0.1-0.7-0.2-1.5-0.3-2.2c-11.7,1.7-19.5,13.3-19.3,24.8
			c0.2,12.4,10.4,21,22.3,21.7c12.7,0.8,24.7-6.9,27.6-19.6c2.8-12.3-2.7-26.3-13.7-32.8c-13.8-8.2-32.3-3.7-42.6,8
			c-1,1.1,0.6,2.7,1.6,1.6c10.5-11.9,30.5-16.1,43.3-5.2c11,9.4,13.9,28.7,2.9,39.2c-10,9.6-29.8,9.1-36.9-3.8
			c-6.8-12.2,1.4-29.8,15.3-31.8c1.2-0.2,1-2.3-0.3-2.2c-104.4,8.1-208.8,16.1-313.1,24.2c-29.5,2.3-59,4.6-88.5,6.8
			c-1.4,0.1-1.5,2.3,0,2.2c15.6,0,29.1,13.8,29.9,29.2c0.7,13.9-10.4,24.4-23.5,26.7c-13,2.2-27.3-5.4-26.7-20
			c0.5-12.9,12.4-27,26.3-23c0.2-0.7,0.4-1.4,0.6-2.2c-26.5-5.5-52.9-11-79.4-16.5c-19.1-4-41.7-7-56.6-20.9
			c-3.2-3-5.9-6.6-7.7-10.6c-1.2-2.8-2.4-4.3,0.2-6c2.8-1.9,7.1-2.7,10.4-3.1c10.6-1.1,21.2,2.7,30.9,6.4
			c10.8,4.2,21.5,9.1,32.9,11.4c11.5,2.3,23.3,2.4,35,1.9c53.3-2.3,106.7-7.6,159.7-13.4c52.8-5.8,105.5-13,157.9-21.5
			c26.5-4.3,52.9-8.9,79.3-13.9c23.7-4.5,49.8-7.2,71-19.6c19-11.2,33-28.9,50.5-42.1c5.8-4.4,19.5-12.3,25.7-4.4
			c2.2,2.8-0.2,4.4-2,6.7c-1.6,2-3.2,3.9-4.8,5.9c-4,4.8-8,9.5-12,14.2c-15.4,17.5-32.1,34.3-51.9,46.7c-21,13.1-44.8,20-69,24.3
			c-25.8,4.5-52.1,6.8-78.1,9.9c-27,3.1-54.1,6.3-81.1,9.4c-54.1,6.3-108.1,12.5-162.2,18.8c-26.3,3-52.9,7-79.5,5
			c-25.9-2-50.8-10.4-74.6-20.6c-11.2-4.8-22.2-10-33.2-15.2C508.2,1590.4,507,1592.3,508.3,1592.9L508.3,1592.9z"/>
	</g>
</g>
<g>
	<g>
		<linearGradient id="SVGID_14_" gradientUnits="userSpaceOnUse" x1="414.8437" y1="572.355" x2="499.8773" y2="572.355">
			<stop  offset="0" style="stop-color:#FFA192"/>
			<stop  offset="0.3605" style="stop-color:#FF54B9"/>
			<stop  offset="0.7548" style="stop-color:#AD8CE0"/>
			<stop  offset="0.8408" style="stop-color:#A6ACD2"/>
			<stop  offset="0.9988" style="stop-color:#9BE2BB"/>
		</linearGradient>
		<path class="st13" d="M436.7,607.5c0.7-27.2,3.7-54.3,9-81c-0.6,0.2-1.3,0.3-1.9,0.5c11,11.9,21.9,23.9,32.8,35.9
			c5.7,6.3,11.3,12.5,16.9,18.8c1.1,1.3,3.8,3.6,4.3,5.1c1.5,4.4-2.3,5.5-4.9,6.3c-3.1,1-6.4,1.6-9.6,2.3
			c-23.6,4.9-50.1,5.3-69,22.3c-1.1,1,0.5,2.6,1.6,1.6c11.1-10,25.5-14.2,39.9-16.9c7.1-1.3,14.2-2.3,21.3-3.6
			c6.2-1.1,13.4-1.8,19.1-4.5c4.5-2.1,5.5-5.9,2.7-9.9c-4.6-6.7-11.3-12.7-16.8-18.8c-12.2-13.5-24.4-26.9-36.7-40.2
			c-0.5-0.6-1.7-0.3-1.9,0.5c-5.3,26.9-8.4,54.2-9.1,81.6C434.4,608.9,436.6,608.9,436.7,607.5L436.7,607.5z"/>
	</g>
</g>
<g>
	<g>
		<linearGradient id="SVGID_15_" gradientUnits="userSpaceOnUse" x1="946.3375" y1="1195.2733" x2="1103.8942" y2="1195.2733">
			<stop  offset="0" style="stop-color:#E77AEB"/>
			<stop  offset="0.3605" style="stop-color:#EACDA6"/>
			<stop  offset="0.7561" style="stop-color:#ECDFF1"/>
			<stop  offset="0.8363" style="stop-color:#F3C2E9"/>
			<stop  offset="0.9988" style="stop-color:#FF8CD9"/>
		</linearGradient>
		<path class="st14" d="M1000.7,1242.2c-14.2,25.6-19,55.3-13.7,84.1c0.1,0.8,1.4,1.1,1.9,0.5c8.4-10.7,16.8-21.4,25.2-32.1
			c-0.6-0.3-1.3-0.5-1.9-0.8c1.3,21.3,6.7,42,15.9,61.3c0.4,0.9,1.8,0.6,2.1-0.3c5.2-18.6,10.5-37.1,15.7-55.7c-0.7,0-1.4,0-2.2,0
			c1.5,5.7,3.3,12.2,8.4,15.8c3.8,2.7,9.7,3.4,13.4,0.2c4.8-4.1,3.7-13.3,3.9-19c0.3-8.2,0.1-16.5-1.5-24.5
			c-6.1-29.6-35.3-43.6-63.6-41.5c-20.3,1.5-39.3,9.6-57.8,17.6c0.6,0.4,1.1,0.8,1.7,1.3c12.4-31.4,37.5-60.7,71.5-68.7
			c30.2-7.2,66.1,7.8,78.7,37c2.8,6.5,7.7,20.9,1.3,26.3c-3.5,3-10,3.6-14.4,4c-5.2,0.5-10.5,0.4-15.6-0.4
			c-9.8-1.5-18.9-5.4-27.1-11c-7.1-4.9-13.8-10.6-21.8-14.1c-6.8-2.9-13.1-3.2-20.1-1.1c-4.8,1.4-9.9,2.6-13.7-1.5
			c-2.8-3-3.8-7.5-4.2-11.4c-0.8-8.8,1.4-18,3.1-26.6c1.8-9.3,3.9-18.6,6.5-27.7c11.7-42.3,31.2-82.3,57.2-117.7c-0.6,0-1.3,0-1.9,0
			c37.7,59.5,44.6,136.3,18.3,201.7c-0.5,1.3,1.6,1.9,2.2,0.6c20.7-51.4,21.1-110.1,2-162.1c-5.3-14.5-12.2-28.3-20.5-41.3
			c-0.5-0.8-1.4-0.7-1.9,0c-26,35.3-45.5,75.2-57.2,117.4c-2.9,10.5-5.4,21.2-7.3,31.9c-1.5,8.2-3.4,16.9-2.3,25.3
			c0.8,5.7,3.1,12.3,9,14.4c3.9,1.4,7.8,0.3,11.6-0.8c5.7-1.7,11-1.9,16.7,0.2c9.7,3.5,17.5,11,26,16.5c8.2,5.2,17.4,8.6,27,9.8
			c8.6,1.1,19.7,1,27.7-2.8c7.2-3.4,6.4-11.4,5.3-18.2c-5.3-32.3-39.9-53.7-71.1-52.6c-41,1.5-72.8,36.5-87,72.3
			c-0.4,1,0.9,1.6,1.7,1.3c30.4-13.1,67.8-27.8,98.5-7.2c14.6,9.8,20.3,25.8,21,42.8c0.2,4.5,0.1,9-0.1,13.5
			c-0.2,4.2,0.6,11.3-2.7,14.5c-3.8,3.6-9.9,1.4-12.9-1.9c-3.2-3.5-4.4-8.4-5.6-12.8c-0.3-1.1-1.9-1.1-2.2,0
			c-5.2,18.6-10.5,37.1-15.7,55.7c0.7-0.1,1.4-0.2,2.1-0.3c-9-18.9-14.3-39.3-15.6-60.2c-0.1-0.9-1.3-1.6-1.9-0.8
			c-8.4,10.7-16.8,21.4-25.2,32.1c0.6,0.2,1.3,0.3,1.9,0.5c-5.1-28.2-0.3-57.3,13.5-82.4C1003.3,1242.1,1001.4,1240.9,1000.7,1242.2
			L1000.7,1242.2z"/>
	</g>
</g>
<g>
	<g>
		<linearGradient id="SVGID_16_" gradientUnits="userSpaceOnUse" x1="799.7192" y1="978.6942" x2="910.0492" y2="978.6942">
			<stop  offset="0" style="stop-color:#FFF41B"/>
			<stop  offset="0.5232" style="stop-color:#F43BE9"/>
			<stop  offset="0.5907" style="stop-color:#EA3BEC"/>
			<stop  offset="0.9988" style="stop-color:#B43EFF"/>
		</linearGradient>
		<path class="st15" d="M855.3,1021.8c-18.3-11.9-42.1-2.6-51.4,16.1c-6.8,13.6-8.4,39.2,9.2,45.9c10,3.8,19.6-3,26.7-9.3
			c9-7.9,18.6-17.4,24.4-28c2.4-4.3,2.5-8.2,1.4-12.8c-1.8-7.6-4.1-15.1-6.2-22.6c-3.9-14-7.7-28-11.6-42.1
			c-8.8-31.9-17.6-63.7-26.3-95.6c-0.5,0.5-0.9,0.9-1.4,1.4c21,5.9,40.7,15.9,57.7,29.6c7.9,6.4,15.3,13.5,21.8,21.3
			c4.1,5,8.6,10.9,9,17.6c0.4,7.1-5.3,15.2-13.1,13.4c-1.4-0.3-2,1.8-0.6,2.2c10,2.4,17.2-8.1,15.8-17.3
			c-1.8-12-13.2-22.4-21.5-30.4c-19.2-18.3-42.8-31.5-68.3-38.7c-0.8-0.2-1.6,0.6-1.4,1.4c12.7,46.2,25.5,92.4,38.2,138.6
			c1.5,5.4,3,10.8,4.5,16.3c0.8,2.7,1.7,5.6,2,8.4c0.5,4.6-1.5,8.1-4,11.7c-6.2,8.8-13.6,16.8-21.7,23.9c-8.3,7.2-20.4,14.6-29.9,5
			c-6.6-6.7-8-17.3-6.6-26.1c1.8-11.1,7.9-22,17.6-28c10.6-6.6,24.3-6.8,34.8,0C855.4,1024.5,856.5,1022.5,855.3,1021.8
			L855.3,1021.8z"/>
	</g>
</g>
<g>
	<g>
		<linearGradient id="SVGID_17_" gradientUnits="userSpaceOnUse" x1="605.9478" y1="832.8969" x2="787.9993" y2="832.8969">
			<stop  offset="0" style="stop-color:#E77AEB"/>
			<stop  offset="0.3605" style="stop-color:#EACDA6"/>
			<stop  offset="0.7561" style="stop-color:#ECDFF1"/>
			<stop  offset="0.8363" style="stop-color:#F3C2E9"/>
			<stop  offset="0.9988" style="stop-color:#FF8CD9"/>
		</linearGradient>
		<path class="st16" d="M680.1,876.4c-13.1-18.5-38.3-30.2-59.3-17c-8.9,5.6-15.8,15.3-15.7,26.1c0.2,10.6,8.5,16,18.1,17.2
			c6.1,0.7,12.1,0.1,18.2-0.5c7.4-0.7,15-0.9,22.3-2.1c5.7-1,7.8-4.5,9-9.9c1.6-7.1,2.5-14.4,3.1-21.6c2.9-32.3-0.6-65.2,5.7-97.2
			c1-4.9,1.5-10.8,7.3-12.2c4.1-1,9.4,0.5,13.4,1c9.3,1.1,18.5,2.2,27.8,3.3c19.2,2.3,38.3,4.6,57.5,6.8c-0.4-0.4-0.8-0.8-1.1-1.1
			c-2.5,39-5.1,78.1-7.6,117.1c0.7-0.2,1.4-0.4,2.1-0.6c-7.3-10.5-18.8-19.5-32.3-18.9c-10.7,0.5-22,7.2-24.2,18.4
			c-1.9,9.5,3.4,20.9,13.2,23.4c6.5,1.7,13.2-0.7,19.1-3.3c4.1-1.8,8.1-3.8,12.1-5.7c2.4-1.1,4.8-2.3,7.2-3.4
			c1.2-0.6,2.4-1.1,3.6-1.7c1.2-1.1,2.4-1.5,3.8-1c-1.4,0.3-0.8,2.5,0.6,2.2c2-0.5,2.6-3,0.9-4.3c-3-2.2-10.2,3-12.7,4.2
			c-11.8,5.6-32.8,19.8-42.9,4.4c-7.8-12,0.1-25.9,12.8-29.7c14.7-4.3,28.6,5,36.7,16.7c0.6,0.9,2,0.6,2.1-0.6
			c2.5-39,5.1-78.1,7.6-117.1c0-0.7-0.6-1.1-1.1-1.1c-29.8-3.5-59.5-7.1-89.3-10.6c-4.4-0.5-10.1-1.9-13.9,1
			c-3.4,2.6-4,7.5-4.8,11.4c-2.7,13.3-3.7,26.8-4.1,40.4c-0.4,14.1-0.3,28.3-0.8,42.4c-0.3,6.6-0.7,13.1-1.4,19.7
			c-0.4,3.9-1,7.9-1.6,11.8c-0.6,3.3-0.9,7.9-2.8,10.7c-2.7,3.9-8.7,3.4-12.8,3.8c-3.9,0.4-7.8,0.7-11.6,1.1
			c-5.7,0.5-11.4,1.3-17.1,1.1c-5.4-0.2-11.6-1.1-15.7-5c-6-5.6-4.8-15-1.5-21.7c5.9-11.8,19.4-18.8,32.3-18.1
			c14.6,0.8,27.5,9.9,35.7,21.6C679,878.7,681,877.6,680.1,876.4L680.1,876.4z"/>
	</g>
</g>
<g>
	<g>
		<linearGradient id="SVGID_18_" gradientUnits="userSpaceOnUse" x1="1103.0217" y1="1042.3265" x2="1339.8929" y2="1042.3265">
			<stop  offset="0" style="stop-color:#FFA192"/>
			<stop  offset="0.3605" style="stop-color:#FF54B9"/>
			<stop  offset="0.7548" style="stop-color:#AD8CE0"/>
			<stop  offset="0.8408" style="stop-color:#A6ACD2"/>
			<stop  offset="0.9988" style="stop-color:#9BE2BB"/>
		</linearGradient>
		<path class="st17" d="M1275.1,1022.1c2.7,39.2,6.1,78.5,8.2,117.8c0.3,5.8-1.1,10.8-7.3,12.5c-4.3,1.1-9.1,0.9-13.5,1.1
			c-10,0.4-19.9,0.8-29.9,1.2c-18.9,0.7-37.8,1.5-56.7,1.8c-19.5,0.2-39.6-1.2-56.5-11.6c-0.2,0.7-0.4,1.4-0.6,2.1
			c17.5,0.2,34.9,0.4,52.4,0.6c8.6,0.1,17.1,0.2,25.7,0.3c6.2,0.1,13.4,0.8,19-2.3c4.9-2.7,6.7-8,7.9-13.1c1.9-8.1,3.4-16.3,5-24.4
			c3-15.7,5.4-31.6,6.1-47.6c0.8-18-0.8-35.9-5.9-53.2c-0.3,0.5-0.5,0.9-0.8,1.4c8.4-1.5,16.7-2.9,25.1-4.4c0.4-0.1,0.7-0.4,0.8-0.8
			c3.9-12.1-3.8-24.4-14.6-29.8c-11.7-5.9-25-2.3-34.5,6.1c-11.4,10-16.3,24.7-17,39.5c-0.4,9,0.6,17.9,2,26.8
			c0.8,5.1,3.9,13.7-1.6,17.4c-4.1,2.7-11.1,1.8-15.8,1.9c-23,0.9-46,1.8-69,2.7c0.4,0.5,0.7,0.9,1.1,1.4c8-30.4-5.7-68.8,17.8-93.9
			c20.3-21.7,55.2-22,82.6-21.6c19.8,0.3,44.7,4.4,52.2,25.9c0.3,0.8,1.2,1.1,1.9,0.5c7-6.1,14.8-11.3,23.3-15.1
			c8.6-3.9,20.8-9.2,29.7-3.7c7.2,4.4,10.4,13.4,12.9,21c2.9,8.8,5.3,17.7,7.2,26.8c4.1,19.2,6.2,38.8,6.1,58.4
			c0,9.2-0.5,18.5-1.5,27.7c-0.8,7.8-1.7,16.1-5.9,23c-2.5,4.1-6.3,7.5-11.3,7.5c-5.4,0-10.2-3.6-14.4-6.6
			c-8.3-5.9-15.6-13.1-22-21.1c-0.8-1-2.5,0.3-1.8,1.4c4.2,5.7,11,7.3,17.7,5.9c8.2-1.7,14.1-7.6,17.4-15.2c4-9.4,4.3-20.1,4.8-30.2
			c0.7-11.9,1-24-1.4-35.8c-3.6-17.9-15.5-36.4-34.5-40.3c-4.8-1-9.3-0.2-14.1-0.3c-8.2-0.2-11.1-6.3-15.9-11.8
			c-5.8-6.8-13.1-12.4-21.1-16.5c-18.7-9.6-41.1-11.3-60.7-3.5c0.5,0.5,0.9,0.9,1.4,1.4c4.9-16.7,23-25.8,39.6-24.4
			c19,1.6,34.7,15.4,45.3,30.3c0.1-0.5,0.3-1,0.4-1.5c-5.7,4.1-12.4,5.3-19.2,3.4c-0.2,0.7-0.4,1.4-0.6,2.2c10,2,15.5,13.3,9.4,21.9
			c-6.2,8.7-16.1,5.9-24.6,3.1c-6.7-2.1-13.3-3.7-20-0.8c-5.5,2.3-9.9,6.7-12.9,11.7c-8.6,14.1-7.1,33-10.1,48.7
			c-3.4,18-9.4,35.3-17.5,51.7c0.6-0.1,1.2-0.2,1.8-0.2c-13.2-16.2-18.1-37.8-13.2-58.1c-0.7-0.1-1.5-0.2-2.2-0.3
			c-0.7,20.8-12.2,40.1-30.2,50.6c0.5,0.1,1,0.3,1.5,0.4c-7.3-10.7-8.4-24.3-2.8-36c-0.7-0.3-1.4-0.6-2.1-0.9
			c-6.9,30.8-6,62.8,2.6,93.1c0.4,1.4,2.6,0.8,2.2-0.6c-8.5-30-9.4-61.5-2.6-92c0.3-1.2-1.5-2.1-2.1-0.9c-6,12.4-5,26.9,2.8,38.2
			c0.3,0.5,1,0.7,1.5,0.4c18.7-10.9,30.6-31,31.3-52.6c0-1.3-1.9-1.5-2.2-0.3c-5.1,21.1,0,43.5,13.8,60.3c0.4,0.5,1.5,0.4,1.8-0.2
			c6.6-13.3,11.8-27.2,15.4-41.7c1.8-7.3,3.2-14.7,4.2-22.2c1-7.8,1.4-15.8,3.1-23.6c1.6-7.4,4.6-14.5,10.4-19.7
			c6.7-6,14.4-6.5,22.6-4c10.2,3.1,22.1,7.2,29.4-3.4c6.8-9.8,0.6-22.9-10.7-25.2c-1.4-0.3-2,1.8-0.6,2.2c7.3,2.1,14.7,0.9,20.9-3.6
			c0.5-0.3,0.8-1,0.4-1.5c-11.3-15.9-28.2-30.4-48.6-31.5c-17.2-0.9-35.4,9-40.4,26.1c-0.2,0.8,0.6,1.7,1.4,1.4
			c16.1-6.4,34-6.3,50.2-0.5c8.2,2.9,15.9,7.3,22.4,13c3.1,2.7,6,5.7,8.6,9c2.4,3.1,4.6,6.7,8.1,8.7c3.4,2,7.3,1.8,11.1,1.5
			c4.9-0.3,9.5-0.1,14.1,1.5c8.7,3,16,9.7,21,17.3c11.6,17.9,10.2,40.5,8.9,60.8c-0.7,10.8-1.4,23.5-9.2,31.9
			c-6.5,7-19.8,9.8-26.2,1.2c-0.6,0.5-1.2,0.9-1.8,1.4c6.3,7.9,13.5,15,21.8,21c6.1,4.4,13.6,9.6,21.4,6.4
			c15-6.3,14.5-31.6,15.3-44.6c1.3-22.9-0.3-45.9-4.7-68.4c-2.2-11.5-5.2-22.9-8.9-34c-2.4-7.1-5.5-14.7-11.6-19.4
			c-8.6-6.6-19.6-3.1-28.8,0.4c-10.6,4.1-20.2,10.1-28.8,17.5c0.6,0.2,1.3,0.3,1.9,0.5c-5.6-16-21.6-24-37.4-26.3
			c-17.1-2.5-35.8-1.8-53,0.4c-14.4,1.8-29.3,5.6-41.2,14.4c-12.3,9.2-18.9,22.7-21,37.7c-3,21.1,1,42.7-4.4,63.5
			c-0.2,0.7,0.3,1.5,1.1,1.4c20.1-0.8,40.1-1.6,60.2-2.4c4.9-0.2,9.9-0.4,14.8-0.6c3.2-0.1,6.7-0.1,9.7-1.4
			c5.9-2.6,5.8-8.7,4.9-14.2c-3-18.8-6.1-39.6,3.2-57.3c7.1-13.4,22.5-25.8,38.5-20.4c8.8,2.9,16.6,10.7,18,20.1
			c0.3,1.9,0.7,5-0.3,6.7c-1.3,2.2-5.1,2.1-7.5,2.5c-5.8,1-11.6,2-17.4,3c-0.6,0.1-0.9,0.8-0.8,1.4c11.3,37.8,4.5,77.5-3.3,115.3
			c-2.1,10-3,21.1-15.5,22.4c-9.1,1-18.8,0.1-28,0c-20.4-0.2-40.8-0.4-61.3-0.6c-1.1,0-1.5,1.5-0.6,2.1
			c14.8,9.2,32.2,11.6,49.3,11.9c20.7,0.4,41.4-0.9,62.1-1.6c10.9-0.4,21.9-0.8,32.8-1.3c6.3-0.3,15.5,0.7,20.2-4.5
			c5.1-5.5,2.5-15.5,2-22c-0.8-11.2-1.6-22.5-2.3-33.7c-1.7-24.5-3.4-48.9-5.1-73.4C1277.3,1020.6,1275,1020.6,1275.1,1022.1
			L1275.1,1022.1z"/>
	</g>
</g>
<g>
	<g>
		<linearGradient id="SVGID_19_" gradientUnits="userSpaceOnUse" x1="767.4402" y1="664.321" x2="925.02" y2="664.321">
			<stop  offset="0" style="stop-color:#DAECFD"/>
			<stop  offset="0.3605" style="stop-color:#FBFBF9"/>
			<stop  offset="0.7561" style="stop-color:#FEFDC6"/>
			<stop  offset="0.9988" style="stop-color:#FFD3B8"/>
		</linearGradient>
		<path class="st18" d="M768.8,671.2c3.6-7.8,7.8-16.8,16-20.7c11-5.2,23.3,1.6,32.9,6.7c15.5,8.3,32.2,18,38.9,35.3
			c0.6-0.4,1.3-0.7,1.9-1.1c-13.6-15.5,7.6-34.5,19.9-42.2c14-8.7,30.3-12.6,46.7-11.5c1.4,0.1,1.4-2.2,0-2.2
			c-19.4-1.3-38.9,4.5-54.4,16.4c-11.7,9-26.5,26.8-13.9,41.2c0.7,0.8,2.3,0,1.9-1.1c-7.5-19.3-26.7-29.9-44.1-38.8
			c-8.9-4.6-19.6-9.1-29.6-5.1c-9.3,3.8-14.1,13.5-18.1,22C766.2,671.4,768.1,672.5,768.8,671.2L768.8,671.2z"/>
	</g>
</g>
<g>
	<g>
		<linearGradient id="SVGID_20_" gradientUnits="userSpaceOnUse" x1="855.0457" y1="785.3243" x2="927.0787" y2="785.3243">
			<stop  offset="0" style="stop-color:#DAECFD"/>
			<stop  offset="0.3605" style="stop-color:#FBFBF9"/>
			<stop  offset="0.7561" style="stop-color:#FEFDC6"/>
			<stop  offset="0.9988" style="stop-color:#FFD3B8"/>
		</linearGradient>
		<path class="st19" d="M854.8,771.7c12.8,3.3,21.8,15.2,21.4,28.4c0,1.2,2,1.6,2.2,0.3c1.6-10.5,9-19.7,19.4-22.5
			c10.4-2.8,21.5,1.5,28.1,9.7c0.9,1.1,2.5-0.5,1.6-1.6c-7.1-8.9-19.2-13.3-30.3-10.3c-11.1,3-19.3,12.8-21,24.1
			c0.7,0.1,1.5,0.2,2.2,0.3c0.4-14.2-9.3-27.1-23.1-30.6C854,769.1,853.4,771.3,854.8,771.7L854.8,771.7z"/>
	</g>
</g>
<g>
	<g>
		<linearGradient id="SVGID_21_" gradientUnits="userSpaceOnUse" x1="999.4166" y1="816.848" x2="1153.9326" y2="816.848">
			<stop  offset="2.929688e-02" style="stop-color:#E2436A"/>
			<stop  offset="0.3605" style="stop-color:#E72279"/>
			<stop  offset="0.7561" style="stop-color:#C837E8"/>
			<stop  offset="0.8807" style="stop-color:#8A1DE6"/>
			<stop  offset="0.9988" style="stop-color:#5307E4"/>
		</linearGradient>
		<path class="st20" d="M1022.3,843.2c35.7-9.3,62.4-43.3,62.9-80.2c0-1-1.3-1.5-1.9-0.8c-11.5,12.5-18.2,28.1-24.2,43.8
			c-7.4,19.6-14.7,39.3-22.1,59c-0.4,1,1.2,2,1.9,1.1c12-15,24-29.9,35.9-44.9c-0.6-0.4-1.3-0.7-1.9-1.1c-3.4,11.8-5.7,23.7-7,35.9
			c-0.5,4.7-4.1,20.9,5.3,19.4c4.2-0.6,7.4-4.7,10.1-7.6c3.4-3.7,6.6-7.6,9.5-11.7c6.3-8.8,11.1-18.5,14.6-28.7
			c0.4-1.3-1.4-1.9-2.1-0.9c-5.4,8.3-9.4,17.3-11.7,26.9c-1.2,5.2-4.8,16.9,0,21.1c4.8,4.3,15.9-0.3,20.8-2.3
			c7.1-2.8,13.6-7,19.3-12.1c11.8-10.5,20-25.1,22.2-40.8c1.9-13.9-0.8-32.1-13.9-40c-11.3-6.8-30.9,1.6-27.1,16.5
			c0.2,0.7,1.1,1.1,1.7,0.7c10.9-7.6,17.6-20.5,16.6-33.9c-1.1-13.6-9.8-26-22.3-31.5c-29.2-12.8-57.8,9-75.8,30.1
			c-19.7,23-34.7,52.1-34.5,83c0.1,14.3,3.3,29.2,12.3,40.7c8,10.3,20,16.8,32.6,19.6c33.7,7.3,64.7-12.4,87.1-35.8
			c1-1-0.6-2.6-1.6-1.6c-18.6,19.4-42.9,36.8-70.9,36.7c-12.1,0-24.5-3.3-34.6-10.1c-11.5-7.8-18.3-20-21.1-33.4
			c-5.7-27.8,4-56.6,19.1-79.8c14.4-22.2,36.4-47.4,64.3-50.3c16.1-1.7,32.2,4.9,39.6,19.9c7.7,15.8,2.3,34.7-11.9,44.6
			c0.6,0.2,1.1,0.4,1.7,0.7c-1.8-7.1,3.5-13,9.8-15.3c6.6-2.4,13.1-0.3,18,4.5c9.5,9.5,10.8,25.2,8.3,37.8
			c-4.8,24.6-25.1,46.3-50.1,51c-3,0.6-4.7,1-7.2-0.8c-2.7-1.9-2.3-3.8-2-6.8c0.4-4.5,1.2-8.9,2.3-13.2c2.3-8.8,6.1-17.1,11.1-24.7
			c-0.7-0.3-1.4-0.6-2.1-0.9c-5.4,15.7-14.3,30.8-26.4,42.3c-1,1-2.1,2-3.3,2.8c-1.9,1.8-3.3,1.5-4.4-1c-2.6-2.7-2-3.8-1.8-7.4
			c0.3-5,0.9-10,1.6-14.9c1.4-9.5,3.4-18.8,6.1-28c0.3-1-1.2-2-1.9-1.1c-12,15-24,29.9-35.9,44.9c0.6,0.4,1.3,0.7,1.9,1.1
			c7-18.6,13.9-37.3,20.9-55.9c6.1-16.4,12.7-32.9,24.8-46c-0.6-0.3-1.3-0.5-1.9-0.8c-0.5,35.9-26.5,69-61.3,78
			C1020.3,841.4,1020.9,843.6,1022.3,843.2L1022.3,843.2z"/>
	</g>
</g>
<g>
	<g>
		<linearGradient id="SVGID_22_" gradientUnits="userSpaceOnUse" x1="981.2045" y1="817.0642" x2="1326.9781" y2="817.0642">
			<stop  offset="0" style="stop-color:#FFF41B"/>
			<stop  offset="0.5232" style="stop-color:#F43BE9"/>
			<stop  offset="0.5907" style="stop-color:#EA3BEC"/>
			<stop  offset="0.9988" style="stop-color:#B43EFF"/>
		</linearGradient>
		<path class="st21" d="M1289.9,899c-9.9-2.4-22.2-6.3-25.5-17.3c-3.3-11.1,5.2-21.4,13.3-27.9c14.1-11.2,34.5-14,45.3-29.6
			c10.2-14.8,2-33.3-12.4-41.6c-19.5-11.2-43.3-2.9-62.6,4.1c-5.3,1.9-10.7,3.9-16.1,5.5c-6.2,1.8-13.5,4.1-20,2.9
			c-7.3-1.4-10.3-7.5-12.7-13.8c-2.2-5.9-4-11.9-5.5-18c-3.1-12.7-4.8-25.7-4.9-38.8c-0.1-8.6,0.1-15.4-9.8-17.3
			c-49.9-9.5-102.2-9.9-152.4-3.6c-9.6,1.2-21.7,1.3-30.2,6.3c-7.6,4.5-8.8,13.3-9.6,21.4c-2.5,25.9-4.3,51.9-5.3,77.9
			c-1,26.3-1.3,52.7-0.8,79c0.3,16.1-3.4,44,19,46c12.2,1.1,24.9-0.4,37.1-0.8c13.1-0.4,26.3-0.8,39.4-1.2
			c13.1-0.4,26.3-0.8,39.4-1.2c10.2-0.3,21.2,0.4,31.2-2.1c8-2,13.8-7.2,15.4-15.4c0.9-4.5,0.7-9.1,0.6-13.6
			c0-6.5,0.1-13.1,0.4-19.6c0.6-12.7,1.1-26.3,4.2-38.7c1.5-6.1,4.3-12.3,9.9-15.7c6.4-3.9,12-2.3,17.8,1.6
			c14.6,9.7,29.7,4.2,45.2,0.1c7.9-2.1,16.8-4.3,24.7-1.4c1,0.3,1.9,0.8,2.8,1.2c2,1.1,1.9,0.7,1.4,2.9c-0.5,2.2-2.8,4.3-4.2,5.9
			c-3.7,3.9-8.2,7-12.6,9.9c-11.5,7.5-31.6,22.6-21,38.6c4,6.1,11.2,8.1,18.1,8.8c9.6,1,19.1,0.3,28.4,3.3
			c11,3.5,20.6,10.6,27.3,19.9c0.8,1.2,2.8,0,1.9-1.1c-7.4-10.2-18-17.9-30.2-21.4c-12.1-3.5-26.5,0.2-37.9-5.6
			c-17.6-8.9-3.1-28.8,7.7-36.2c9.8-6.6,20.8-12.3,25.6-23.8c0.2-0.5-0.1-1-0.5-1.3c-10.6-7.7-23.7-4.3-35.2-1.1
			c-6.9,1.9-13.9,4.1-21.1,4.7c-8.6,0.7-14.3-2.3-21.3-6.7c-14.4-9.1-26.5,4.8-29.4,18.3c-4.2,19.7-4.3,40.7-4.2,60.7
			c0.1,10.3-2.1,19.8-13.1,23c-8.8,2.6-18.8,1.9-27.9,2.2c-21.7,0.7-43.4,1.3-65.1,2c-11.2,0.3-22.3,0.7-33.5,1
			c-9,0.3-22.4,3-30.3-2.7c-8-5.8-7.2-18.1-7.5-26.9c-0.3-10.9-0.5-21.7-0.6-32.6c-0.2-43.8,1.7-87.6,5.7-131.2
			c0.9-10.1,0.6-22.9,11.6-27.5c9.2-3.8,20.7-4.2,30.5-5.3c21.1-2.5,42.4-3.7,63.7-3.5c21.9,0.1,43.7,1.7,65.4,4.6
			c5.4,0.7,10.7,1.5,16.1,2.4c1.8,0.3,3.7,0.5,5.5,1c4.4,1.3,5.3,5.4,5.5,9.4c0.3,9.7,0.5,19.2,1.9,28.8c1.5,10.2,4,20.3,7.3,30.1
			c2.3,6.8,5,15,12.2,18c7,3,15.8,0.4,22.7-1.5c9.8-2.7,19.2-6.6,28.8-9.8c18.6-6.2,42.5-10.2,57.7,5.6c6.4,6.7,10,16.1,7.3,25.3
			c-2.4,8-8.8,13.8-15.6,18.1c-13.4,8.5-29.3,12.5-39.9,25c-8.7,10.2-10.9,24.6,0.6,33.7c5.7,4.5,12.8,6.7,19.8,8.3
			C1290.7,901.5,1291.3,899.4,1289.9,899L1289.9,899z"/>
	</g>
</g>
<g>
	<g>
		<linearGradient id="SVGID_23_" gradientUnits="userSpaceOnUse" x1="1208.0018" y1="668.8177" x2="1350.3977" y2="668.8177">
			<stop  offset="2.929688e-02" style="stop-color:#E2436A"/>
			<stop  offset="0.3605" style="stop-color:#E72279"/>
			<stop  offset="0.7561" style="stop-color:#C837E8"/>
			<stop  offset="0.8807" style="stop-color:#8A1DE6"/>
			<stop  offset="0.9988" style="stop-color:#5307E4"/>
		</linearGradient>
		<path class="st22" d="M1276.5,683.1c-16.3-28.8-33.7-57-52.2-84.5c-0.3,0.6-0.6,1.1-1,1.7c24.5-1.2,48.8,3.1,71.4,12.5
			c-0.2-0.6-0.3-1.3-0.5-1.9c-14.5,11.9-28.9,23.9-43.4,35.8c-0.3,0.3-0.4,1-0.2,1.4c6.2,8.4,10.8,17.6,13.9,27.6
			c0.3-0.5,0.5-0.9,0.8-1.4c-20.3,7.1-37.8,20.1-50.7,37.3c-0.8,1.1,0.9,2.2,1.8,1.4c18.2-16.5,37.2-32.3,56.9-47.1
			c9.9-7.4,19.9-14.6,30.1-21.6c4.5-3.1,9.3-7.3,14.6-8.8c7.9-2.2,12.5,6.7,16,12.3c12,19.2,23.9,48.6,4.6,67
			c-16.4,15.5-40.6,23.4-62.9,22.9c-12.6-0.3-25.1-3.3-36.5-8.6c-5-2.3-9.9-5.1-14.4-8.3c-2.7-1.9-5.4-4-7.9-6.2
			c-0.9-0.8-8.3-8.3-7.2-8.6c-1.4,0.4-0.8,2.6,0.6,2.2c0.2-0.1,0.4-0.1,0.5-0.2c0.4-0.1,0.7-0.4,0.8-0.8c0.3-1.7-0.8-3.8-2.8-3
			c-3.5,1.4,0,5.6,1.3,7c8.8,9,19.4,16.2,30.9,21.1c24.4,10.4,52.3,9.9,76.4-1.1c10.9-5,22.9-12.3,29.3-22.8
			c7-11.5,4.5-25.5,0.5-37.6c-2.2-6.5-4.9-12.8-8.2-18.8c-3.1-5.6-6.6-12.3-11.5-16.5c-3.5-3-7.7-3.2-11.9-1.5
			c-6.7,2.7-12.8,8-18.7,12.1c-28.7,20-56.2,41.8-82.1,65.3c0.6,0.5,1.2,0.9,1.8,1.4c12.5-16.7,29.7-29.3,49.4-36.3
			c0.6-0.2,1-0.8,0.8-1.4c-1.9-6.2-4.4-12.2-7.5-17.9c-1.4-2.6-4.1-5.4-5.1-8.1c-1-2.8,4.4-5.8,6.5-7.5c11.7-9.7,23.4-19.3,35.2-29
			c0.7-0.6,0.2-1.6-0.5-1.9c-22.8-9.5-47.3-13.8-72-12.6c-0.8,0-1.5,0.9-1,1.7c18.5,27.5,35.9,55.6,52.2,84.5
			C1275.2,685.5,1277.2,684.3,1276.5,683.1L1276.5,683.1z"/>
	</g>
</g>
<g>
	<g>
		<linearGradient id="SVGID_24_" gradientUnits="userSpaceOnUse" x1="1029.5051" y1="519.7067" x2="1177.5332" y2="519.7067">
			<stop  offset="0" style="stop-color:#5900FF"/>
			<stop  offset="0.3605" style="stop-color:#00EDFF"/>
			<stop  offset="0.5751" style="stop-color:#8DEFCF"/>
			<stop  offset="0.7561" style="stop-color:#FFF1A7"/>
			<stop  offset="0.7594" style="stop-color:#FFEEA5"/>
			<stop  offset="0.926" style="stop-color:#EB652F"/>
			<stop  offset="0.9988" style="stop-color:#E32E00"/>
		</linearGradient>
		<path class="st23" d="M1083.7,663.4c-3-37.4-5-74.8-5.9-112.3c-0.4-18.4-0.6-36.8-0.6-55.3c0-9.5,0.1-18.9,0.3-28.4
			c0.2-7.7,0.5-16.1,5.2-22.6c3.9-5.5,12.2-7.9,18.2-4.1c7.6,4.9,2,15.2-3.7,19.1c-11.4,7.9-27.9,3.6-33.6-9.1
			c-6.1-13.7,0-30.4,12.6-37.9c11.7-6.9,27.2-6.4,38.8,0.3c12.9,7.4,19.5,22.3,19.4,36.8c-0.1,15.5-7.7,29.6-20,38.9
			c-25.1,18.8-68.5,17.4-80.5-15.8c-11.1-30.7,9.9-66.3,34.3-84.3c12.7-9.3,28.6-14.3,44.2-10.4c15.1,3.8,27.6,14.2,37.7,25.7
			c10.5,11.9,20.4,25.8,24.2,41.4c3.8,15.5-0.1,31.4-8.6,44.7c-17.5,27.3-50.8,42-82.5,42.3c-8.2,0.1-16.3-0.8-24.2-2.5
			c-1.4-0.3-2,1.9-0.6,2.2c35,7.6,74.8-2,99.7-28.5c11.1-11.8,19.3-27.1,20-43.6c0.7-18.5-8.8-35.2-19.8-49.4
			c-10.1-13.1-22.5-25.7-38.2-32c-15.8-6.4-32.8-4.1-47.3,4.5c-15.2,9-27.2,23.4-35.2,38.9c-7.9,15.2-11.8,32.9-6.6,49.6
			c5,16.2,17.7,27.5,34.3,30.7c16.1,3.1,33.4-0.4,47.1-9.4c13-8.5,21.9-21.8,23.7-37.3c1.7-14.7-3-30.7-14.5-40.4
			c-21.8-18.4-61.8-8.4-62.8,23.2c-0.4,13.2,7.5,25.6,21.1,27.5c11.2,1.6,26.5-5,26.7-18.1c0.2-11.8-15.9-13.5-23.2-7.3
			c-5.6,4.8-7.3,12.6-8,19.5c-1,10.5-0.6,21.3-0.6,31.9c-0.2,46,1.1,92.1,4,138.1c0.7,11.2,1.5,22.3,2.4,33.5
			C1081.6,664.8,1083.8,664.8,1083.7,663.4L1083.7,663.4z"/>
	</g>
</g>
<g>
	<g>
		<linearGradient id="SVGID_25_" gradientUnits="userSpaceOnUse" x1="1264.6207" y1="512.0321" x2="1414.4153" y2="512.0321">
			<stop  offset="0" style="stop-color:#92E1FF"/>
			<stop  offset="0.3605" style="stop-color:#F4B8FF"/>
			<stop  offset="0.7561" style="stop-color:#F1F3FF"/>
			<stop  offset="0.7808" style="stop-color:#ECECFF"/>
			<stop  offset="0.9988" style="stop-color:#C5B6FF"/>
		</linearGradient>
		<path class="st24" d="M1334,495.2c-19.7,3.6-38.4-10.9-51.5-24.1c-12.1-12.3-21.3-29.8-13.3-46.9c3.6-7.7,10.5-13.3,19.1-14
			c9.7-0.7,18.7,4.8,25.9,10.8c6.7,5.6,12.8,12.1,18.4,18.8c6.2,7.3,11.4,15.3,13,25c0.2,1.2,2.4,1,2.2-0.3
			c-1.8-14.9,5.5-28.9,16.9-38.2c12-9.8,34.2-17.2,44.4-1.1c8.6,13.7,2,29.9-9.1,39.8c-12.5,11.2-29.1,15.8-44.1,22.5
			c-1.3,0.6-0.2,2.5,1.1,1.9c13.2-5.8,31.9-8.4,42.1,4.3c3.9,4.9,6.2,11.6,5,17.8c-1.4,7.2-7.4,11.6-14.1,13.6
			c-23.9,7.4-51.2-7.4-59.8-30.5c-0.7,0.3-1.4,0.6-2.1,0.9c6.3,11.8,4.2,29.7-8.6,36.3c-12.4,6.4-32-5.1-27.7-19.9
			c2.2-7.5,9.3-12.4,15.8-16c4-2.2,9-5,13.7-3.6c4.2,1.2,6.6,5.4,8.1,9.2c3,7.6,3.9,16.2,5.5,24.2c1.8,9,3.7,18,5.5,27
			c4.3,20.9,8.5,41.7,12.8,62.6c0.3,1.4,2.5,0.8,2.2-0.6c-5-24.7-10.1-49.4-15.1-74.2c-2.4-11.6-4.2-23.5-7.2-35
			c-1.6-6.3-4.7-13.8-11.7-15.4c-7.5-1.7-16.6,4.4-22.3,8.7c-5.8,4.5-10.8,11.2-10,18.9c1.3,13.2,17.8,21.7,29.7,17
			c15.5-6.1,18.5-26.9,11.4-40.3c-0.6-1.1-2.5-0.3-2.1,0.9c7.8,21.1,30.1,35.6,52.6,33.9c10-0.7,21.9-4.7,25.1-15.3
			c2.8-9.2-1.6-19.7-8.9-25.5c-11.7-9.3-28.5-6.4-41.1-0.9c0.4,0.6,0.8,1.3,1.1,1.9c22.3-9.9,61-21,58.2-52.6
			c-1-10.9-7.8-20.9-19-23c-12.6-2.3-26.2,4.4-35.3,12.7c-10.5,9.6-17,23.5-15.3,37.8c0.7-0.1,1.5-0.2,2.2-0.3
			c-2.7-16.1-15.5-29.5-26.9-40.3c-10.4-9.8-25.1-20.1-40-14.2c-11.3,4.5-17,17.3-16.9,29c0.2,15.5,10.7,28.6,21.7,38.5
			c13.3,11.9,30.2,23.6,49,20.2C1336,497.1,1335.4,494.9,1334,495.2L1334,495.2z"/>
	</g>
</g>
<g>
	<g>
		<linearGradient id="SVGID_26_" gradientUnits="userSpaceOnUse" x1="993.611" y1="140.8347" x2="1103.8942" y2="140.8347">
			<stop  offset="0" style="stop-color:#FFF41B"/>
			<stop  offset="0.5232" style="stop-color:#F43BE9"/>
			<stop  offset="0.5907" style="stop-color:#EA3BEC"/>
			<stop  offset="0.9988" style="stop-color:#B43EFF"/>
		</linearGradient>
		<path class="st25" d="M1019.5,198.4c-3.7,2.5-7.9,4.7-12.4,5.3c-8,1-9.3-5.2-9.7-11.8c-0.9-12.4-1.5-24.8-1.9-37.3
			c-0.4-12.1-0.5-24.2-0.3-36.3c0-2.8-0.4-6.1,0.1-8.8c1.1-6.1,4.5-5.4,8.7-5.3c6.1,0.1,12.2,0.3,18.4,0.4c-0.4-0.4-0.8-0.8-1.1-1.1
			c0.7,19,1.4,38.1,2.1,57.1c0.4,9.6,0.1,19.5,1.1,29c0.6,6.1,3.6,8.2,9.2,9.7c25.5,7,36.7,35.6,61.5,44c0.7,0.2,1.4-0.4,1.4-1.1
			c1.6-34.1,3.3-68.2,4.9-102.3c1.6-33.3,5.4-67.4,1.8-100.7c-0.1-0.8-0.9-1.5-1.7-1c-24,16.1-46,34.8-65.8,55.8
			c-1,1.1,0.6,2.6,1.6,1.6c19.7-20.9,41.6-39.4,65.4-55.4c-0.6-0.3-1.1-0.6-1.7-1c3.7,33.2-0.2,67.4-1.8,100.7
			c-1.6,34.1-3.3,68.2-4.9,102.3c0.5-0.4,0.9-0.7,1.4-1.1c-22.9-7.8-33.7-33-55.8-42.2c-2.5-1-5.1-1.6-7.7-2.4
			c-6.7-2.1-5.7-8.8-5.9-14.4c-0.3-8.5-0.6-17.1-0.9-25.6c-0.7-17.7-1.3-35.4-2-53.2c0-0.6-0.5-1.1-1.1-1.1
			c-7.6-0.2-15.8-1.3-23.4-0.5c-4.8,0.5-5.8,3.2-5.9,7.6c-0.5,16.7-0.2,33.4,0.4,50.1c0.3,8.2,0.7,16.3,1.2,24.5
			c0.3,5.4-0.5,13.7,2.9,18.4c5.5,7.7,17.3,1.9,23.2-2.1C1021.9,199.5,1020.7,197.6,1019.5,198.4L1019.5,198.4z"/>
	</g>
</g>
<g>
	<g>
		<linearGradient id="SVGID_27_" gradientUnits="userSpaceOnUse" x1="1155.0814" y1="178.7628" x2="1374.9149" y2="178.7628">
			<stop  offset="0" style="stop-color:#5900FF"/>
			<stop  offset="0.3605" style="stop-color:#DE009F"/>
			<stop  offset="0.5751" style="stop-color:#D48D9A"/>
			<stop  offset="0.7561" style="stop-color:#CBFF96"/>
			<stop  offset="0.7684" style="stop-color:#C0FD9B"/>
			<stop  offset="0.9287" style="stop-color:#37E3DB"/>
			<stop  offset="0.9988" style="stop-color:#00D9F5"/>
		</linearGradient>
		<path class="st26" d="M1229.5,172.9c2.2,17.1,4.4,34.1,6.7,51.2c2,15.5,3.5,31.2,6.4,46.6c4,21.5,16,45.5,41.4,44.5
			c9.8-0.4,17.8-5.6,21.6-14.8c3-7.3,4.8-15.2,7.1-22.7c2.6-8.6,5.2-17.2,7.8-25.8c10-33.2,20.1-66.4,30.1-99.5
			c10.7-35.3,24.4-71.3,25-108.6c0-0.6-0.5-1.2-1.1-1.1c-19.8,1.9-38.5,8.6-56.5,16.9c-18.4,8.5-37,17.5-54.1,28.4
			c-7.8,5-15.2,10.6-21.8,17.1c-3.6,3.6-7.3,7.5-12.2,9.3c-5,1.8-10.6,1.6-15.8,1c-18.8-2-37.7-11.5-49.6-26.4
			c-6-7.5-12.9-22.3-3.7-30.2c5.6-4.7,18.7-4.7,19.5,4.5c0.1,1.4,2.4,1.4,2.2,0c-1-12.4-19.3-12.4-25.4-3.9c-4.9,6.8-3,16.1,0.4,23
			c4.5,9,12.4,16.4,20.6,22c8.6,5.8,18.3,10,28.5,12c9.2,1.9,20.1,3.1,28.3-2.3c4.2-2.7,7.4-6.5,11-9.9c5-4.7,10.4-8.8,16-12.6
			c9.6-6.4,19.9-11.8,30.2-17c26-13.3,52.7-27,82.2-29.8c-0.4-0.4-0.8-0.8-1.1-1.1c-0.6,31.3-10.8,61.2-19.8,90.8
			c-9.1,30-18.1,60-27.2,90c-4.6,15.3-9.3,30.6-13.9,45.9c-2.2,7.3-4.4,14.7-6.7,22c-2.1,6.8-4.3,13.6-10.8,17.4
			c-9.4,5.6-22.3,3.3-31-2.6c-10.5-7.1-15.5-19.8-18.2-31.7c-3.8-16.1-5-33-7.2-49.4c-2.3-17.7-4.6-35.4-6.9-53.1
			C1231.6,171.4,1229.3,171.4,1229.5,172.9L1229.5,172.9z"/>
	</g>
</g>
<g>
	<g>
		<linearGradient id="SVGID_28_" gradientUnits="userSpaceOnUse" x1="1193.0856" y1="1524.7559" x2="1353.9622" y2="1524.7559">
			<stop  offset="0" style="stop-color:#DAECFD"/>
			<stop  offset="0.3605" style="stop-color:#FBFBF9"/>
			<stop  offset="0.7561" style="stop-color:#FEFDC6"/>
			<stop  offset="0.9988" style="stop-color:#FFD3B8"/>
		</linearGradient>
		<path class="st27" d="M1194.4,1601.4c44-57.3,78.9-121.3,103.3-189.2c-0.6,0.2-1.3,0.3-1.9,0.5c14,16.4,24.7,35.9,30.1,56.8
			c2.8,10.9,4.1,23.1-0.6,33.7c-4.2,9.4-12.8,16.9-23.3,17.3c0.1,0.7,0.2,1.5,0.3,2.2c11.3-2.4,23.6-2.1,33.9,3.8
			c9.3,5.3,16.4,15.3,16.4,26.2c0,25.6-29.2,34.1-49.9,33.4c-0.9,0-1.6,1.3-0.8,1.9c5.7,4.5,10.6,9.9,14.5,16
			c3.9,6.1,8.1,14.1,8.3,21.4c0.5,17.6-27.8,10.4-37.3,8.2c-28.4-6.8-54.6-21.6-75.1-42.3c-1-1-2.6,0.6-1.6,1.6
			c18.3,18.5,41.1,32.4,66,40.2c12.6,3.9,56,15.7,49.7-11.9c-3.2-13.7-12-26.1-22.9-34.7c-0.3,0.6-0.5,1.3-0.8,1.9
			c12.9,0.4,26.6-1.3,37.3-9.1c8.8-6.4,15.3-16.8,14.7-28c-0.6-10.7-7.3-20.4-16.2-26c-11-6.9-24.5-7.4-36.9-4.7
			c-1.2,0.3-1,2.3,0.3,2.2c9.2-0.4,17.1-5.5,22.2-13c6.4-9.3,7.4-21,5.7-31.9c-3.6-24.5-16.6-48.1-32.5-66.7
			c-0.6-0.7-1.6-0.2-1.9,0.5c-24.4,67.8-59.2,131.5-103.1,188.7C1191.5,1601.4,1193.5,1602.5,1194.4,1601.4L1194.4,1601.4z"/>
	</g>
</g>
<g>
	<g>
		<linearGradient id="SVGID_29_" gradientUnits="userSpaceOnUse" x1="1347.2728" y1="1297.8406" x2="1385.4022" y2="1297.8406">
			<stop  offset="0" style="stop-color:#FFF41B"/>
			<stop  offset="0.5232" style="stop-color:#F43BE9"/>
			<stop  offset="0.5907" style="stop-color:#EA3BEC"/>
			<stop  offset="0.9988" style="stop-color:#B43EFF"/>
		</linearGradient>
		<path class="st28" d="M1348.8,1349.3c0.3-19.9,2.1-39.7,5.6-59.3c1.7-9.5,3.8-19,6.3-28.3c1.2-4.3,2.7-8.7,6-11.8
			c5.3-4.9,9.5-0.1,11.8,4.9c12.6,26.7,2.3,61.3-22.3,77.3c-1.2,0.8-0.1,2.7,1.1,1.9c21.1-13.7,31.9-40.1,27.9-64.8
			c-1.1-7.1-5.7-27.9-16.9-23.2c-4.6,2-7.5,7.4-9,12c-3,8.9-4.7,18.4-6.5,27.6c-4,21-6.1,42.3-6.4,63.7
			C1346.5,1350.7,1348.8,1350.7,1348.8,1349.3L1348.8,1349.3z"/>
	</g>
</g>
<g>
	<g>
		<linearGradient id="SVGID_30_" gradientUnits="userSpaceOnUse" x1="1152.986" y1="270.8788" x2="1193.9783" y2="270.8788">
			<stop  offset="0" style="stop-color:#92E1FF"/>
			<stop  offset="0.3605" style="stop-color:#F4B8FF"/>
			<stop  offset="0.7561" style="stop-color:#F1F3FF"/>
			<stop  offset="0.7808" style="stop-color:#ECECFF"/>
			<stop  offset="0.9988" style="stop-color:#C5B6FF"/>
		</linearGradient>
		<path class="st29" d="M1156.5,333.3c-1.9-19.5-2.5-39.1-1.6-58.6c0.5-10.1,1.4-20.2,2.7-30.2c1.1-8.7,1.5-19.5,6.2-27.2
			c2.4-3.9,5.8-6.8,10.5-7.5c6.5-1,9.8,3.9,12,9.2c2.9,6.9,4.7,14.2,5.6,21.6c1.7,14.4-0.2,29.2-5.3,42.7
			c-5.9,15.8-16.1,29.9-29.7,39.9c-1.2,0.8,0,2.8,1.1,1.9c26.3-19.3,40-53,36-85.3c-1.3-10.8-5.2-35.5-20.9-32.3
			c-7.3,1.5-11.6,7.5-13.8,14.2c-3.2,9.9-3.9,21-5,31.3c-2.8,26.6-2.7,53.4-0.1,80.1C1154.4,334.7,1156.7,334.7,1156.5,333.3
			L1156.5,333.3z"/>
	</g>
</g>
<g>
	<g>
		<linearGradient id="SVGID_31_" gradientUnits="userSpaceOnUse" x1="1035.1433" y1="310.6546" x2="1076.3579" y2="310.6546">
			<stop  offset="0" style="stop-color:#92E1FF"/>
			<stop  offset="0.3605" style="stop-color:#F4B8FF"/>
			<stop  offset="0.7561" style="stop-color:#F1F3FF"/>
			<stop  offset="0.7808" style="stop-color:#ECECFF"/>
			<stop  offset="0.9988" style="stop-color:#C5B6FF"/>
		</linearGradient>
		<path class="st30" d="M1070.2,328.3c-11.1-4.8-24.1-10.2-30.4-21.3c-5.4-9.6-4.4-26,8-29.5c13.1-3.7,24.2,11,26.4,22.2
			c2.9,15.1-2.7,30.6-1.6,45.9c0.1,1.4,2.4,1.4,2.2,0c-1.3-17.5,6.8-36.9-0.8-53.6c-4.7-10.3-16.3-20.9-28.4-16.1
			c-10.9,4.3-13.2,18.1-9.7,28.1c5,14.1,20.4,20.9,33.1,26.3C1070.4,330.9,1071.5,328.9,1070.2,328.3L1070.2,328.3z"/>
	</g>
</g>
<g>
	<g>
		<linearGradient id="SVGID_32_" gradientUnits="userSpaceOnUse" x1="1135.2013" y1="601.8192" x2="1184.0736" y2="601.8192">
			<stop  offset="0" style="stop-color:#FFA192"/>
			<stop  offset="0.3605" style="stop-color:#FF54B9"/>
			<stop  offset="0.7548" style="stop-color:#AD8CE0"/>
			<stop  offset="0.8408" style="stop-color:#A6ACD2"/>
			<stop  offset="0.9988" style="stop-color:#9BE2BB"/>
		</linearGradient>
		<path class="st31" d="M1144.5,630.2c6.6-13.1,13.2-26.1,19.8-39.2c1.6-3.2,3.2-6.4,4.8-9.6c0.5-1,1.8-4.6,2.6-5.2
			c1.3-1,1.7-0.6,3.3,0.4c3.9,2.5,6.2,6.9,7.1,11.4c2,10.6-2.8,20.7-11.7,26.6c-10.3,6.9-23.2,8.4-35.3,9.7c-1.4,0.2-1.4,2.4,0,2.2
			c16.3-1.8,38.4-4.5,46.6-21.1c5.6-11.3,3.6-28.2-9.8-32.6c-0.4-0.1-1.1,0.1-1.3,0.5c-9.4,18.6-18.8,37.1-28.2,55.7
			C1141.9,630.4,1143.9,631.5,1144.5,630.2L1144.5,630.2z"/>
	</g>
</g>
<g>
	<g>
		<linearGradient id="SVGID_33_" gradientUnits="userSpaceOnUse" x1="960.2452" y1="604.9034" x2="1028.6841" y2="604.9034">
			<stop  offset="0" style="stop-color:#FFA192"/>
			<stop  offset="0.3605" style="stop-color:#FF54B9"/>
			<stop  offset="0.7548" style="stop-color:#AD8CE0"/>
			<stop  offset="0.8408" style="stop-color:#A6ACD2"/>
			<stop  offset="0.9988" style="stop-color:#9BE2BB"/>
		</linearGradient>
		<path class="st32" d="M976.8,639.6c1-24.8,5.9-49.1,14.6-72.3c-0.7,0.1-1.4,0.2-2.1,0.3c13.7,18.9,25.3,39.2,34.5,60.6
			c0.8,1.9,3.5,6.1,3.2,8.3c-0.4,3.2-2.9,4.8-5.6,4.9c-1.5,0.1-3.1,0-4.6,0c-6.2,0-12.4-0.1-18.5-0.1c-12.7-0.1-25.4-0.2-38.1-0.3
			c-1.4,0-1.4,2.2,0,2.2c15,0.1,29.9,0.2,44.9,0.4c6.1,0,13.2,1.1,19.2-0.2c3.2-0.7,5.1-2.7,5-6.1c-0.1-5.1-4.1-11.5-6.2-16
			c-3-6.6-6.2-13.1-9.7-19.5c-6.6-12.2-14.1-24-22.2-35.3c-0.6-0.8-1.7-0.7-2.1,0.3c-8.7,23.4-13.7,47.9-14.7,72.9
			C974.5,641,976.7,641,976.8,639.6L976.8,639.6z"/>
	</g>
</g>
<g>
	<g>
		<linearGradient id="SVGID_34_" gradientUnits="userSpaceOnUse" x1="1340.4172" y1="291.5672" x2="1408.5808" y2="291.5672">
			<stop  offset="2.929688e-02" style="stop-color:#E2436A"/>
			<stop  offset="0.3605" style="stop-color:#E72279"/>
			<stop  offset="0.7561" style="stop-color:#C837E8"/>
			<stop  offset="0.8807" style="stop-color:#8A1DE6"/>
			<stop  offset="0.9988" style="stop-color:#5307E4"/>
		</linearGradient>
		<path class="st33" d="M1341.7,355.2c22-40.8,41.2-83,57.4-126.4c-0.7,0-1.4,0-2.2,0c4,27.2,7,54.5,9.1,81.9
			c0.2,3.2,0.5,6.5,0.7,9.7c0.3,4,1,7.2-1.9,10.3c-2.8,3-6.6,2.9-10.5,3.5c-3.2,0.5-6.5,1-9.7,1.5c-13.5,2.1-27.1,4.2-40.6,6.3
			c-1.4,0.2-0.8,2.4,0.6,2.2c15.5-2.4,31-4.8,46.4-7.2c4.7-0.7,12.5-0.4,16-4.2c3.4-3.6,2.1-9.8,1.8-14.3
			c-2.1-30.2-5.4-60.3-9.8-90.2c-0.2-1.2-1.8-0.9-2.2,0c-16.2,43.2-35.3,85.3-57.2,125.9C1339.1,355.3,1341,356.5,1341.7,355.2
			L1341.7,355.2z"/>
	</g>
</g>
<g>
	<g>
		<linearGradient id="SVGID_35_" gradientUnits="userSpaceOnUse" x1="1362.9352" y1="833.0224" x2="1409.9194" y2="833.0224">
			<stop  offset="0" style="stop-color:#FFF41B"/>
			<stop  offset="0.5232" style="stop-color:#F43BE9"/>
			<stop  offset="0.5907" style="stop-color:#EA3BEC"/>
			<stop  offset="0.9988" style="stop-color:#B43EFF"/>
		</linearGradient>
		<path class="st34" d="M1399.9,710.8c-7.1,11.3-21.1,14.4-30.3,23.4c-11.5,11.3-6.8,26.9-3.1,40.6c9.9,37.2,16.6,75.2,21.9,113.3
			c3.1,22.2,5.8,44.4,8.6,66.6c0.2,1.4,2.2,1.5,2.2,0c3.8-81.1,7.6-162.2,11.4-243.3c0.1-1.4-2.2-1.4-2.2,0
			c-3.8,81.1-7.6,162.2-11.4,243.3c0.8,0,1.5,0,2.2,0c-4.5-36.7-9-73.5-15.3-110c-3.2-18.3-6.9-36.6-11.2-54.6
			c-2.1-8.8-4.8-17.6-6.8-26.4c-2.2-9.5-2.5-19.4,4.5-27c9.2-10,24-12.8,31.5-24.7C1402.6,710.7,1400.7,709.5,1399.9,710.8
			L1399.9,710.8z"/>
	</g>
</g>
<g>
	<g>
		<linearGradient id="SVGID_36_" gradientUnits="userSpaceOnUse" x1="288.1876" y1="275.7155" x2="606.7754" y2="275.7155">
			<stop  offset="0" style="stop-color:#00FFAD"/>
			<stop  offset="0.2358" style="stop-color:#3FC0A5"/>
			<stop  offset="0.7664" style="stop-color:#C83794"/>
			<stop  offset="0.9988" style="stop-color:#FF008D"/>
		</linearGradient>
		<path class="st35" d="M384.9,21.3c-28.6,24.8-61.1,44.7-96.2,59c-0.5,0.2-0.8,0.5-0.8,1.1c-0.1,22.6-0.1,45.2-0.2,67.8
			c0,11-0.1,21.9-0.1,32.9c0,7.1-2,17,3.7,22.5c3,2.9,7.1,4.9,10.6,7.1c5,3.2,10,6.4,14.9,9.5c9.4,6,18.8,12,28.2,18
			c9.1,5.8,18.2,11.7,27.4,17.5c4.4,2.8,8.8,5.6,13.3,8.5c3.7,2.3,7.3,5.2,11.4,6.8c8.2,3.1,15.9-3.6,22.5-7.5
			c9.7-5.7,19.4-11.3,29.1-17c9.4-5.5,18.8-11,28.2-16.5c4.6-2.7,9.1-5.3,13.7-8c4.1-2.4,8.9-4.5,12.5-7.6c2.3-2,3.1-4.5,3.3-7.4
			c0.5-5.3,0.2-10.8,0.2-16.2c0-11.2-0.3-22.4-0.9-33.6c-1.1-21.1-2.4-42.7-6.3-63.4c-1.8-9.8-9.9-12-18-15.7
			c-9.9-4.6-19.5-9.8-28.8-15.5C433.5,52,415.9,38.1,400,22.4c-0.7-0.7-1.9-0.2-1.9,0.8c-1.1,15.8-1.9,31.7-3.4,47.5
			c-0.4,4.5-1.4,8.5-4.8,11.8c-2.8,2.7-6.5,4.5-9.9,6.3c-7.2,3.9-14.6,6.8-22.2,9.8c-4.3,1.7-7.1,4-7.6,8.9
			c-0.8,8.2-0.1,16.8-0.1,25c0,8.2,0,16.3,0,24.5c0,2,0,3.9,0,5.9c0,1.5-0.6,4.6,0,5.9c0.8,1.7,2.8,2.4,4.3,3.4
			c14.6,9.5,28.4,20.3,41.2,32.2c0.5,0.4,1.1,0.4,1.6,0c8.3-6.5,16.6-13.1,24.9-19.6c6.4-5.1,15.4-10.1,19.4-17.4
			c4-7.2,2.5-17.2,2.6-25.1c0.1-10.5,0.3-21,0.4-31.5c0-0.4-0.2-0.8-0.6-1c-16.4-7.6-31.5-17.5-45.1-29.4c-0.7-0.6-2-0.2-1.9,0.8
			c2.9,76.8,5.7,153.5,8.6,230.3c0,1.1,1.2,1.4,1.9,0.8c18.7-14.5,38.5-27.5,59.2-38.9c9.9-5.4,20-10.4,30.2-15.1
			c2.6-1.2,5.4-2.8,8.1-3.6c3.7-1,5.9,0.8,9,2.5c5.7,3.3,11.5,6.5,17.2,9.8c11.2,6.4,22.3,12.7,33.5,19.1c5.4,3.1,10.9,6.2,16.3,9.3
			c5.9,3.4,10.7,7,12.1,14.1c2.6,12.5,2.9,25.8,4.3,38.5c1.4,12.6,2.7,25.1,4.1,37.7c0.7,6.3,1.4,12.6,2,18.8
			c0.6,6,1.9,12.2,1.6,18.2c-0.4,7.1-5.1,11.3-10.1,15.7c-4.8,4.4-9.7,8.7-14.6,13.1c-9.2,8.3-18.4,16.6-27.6,24.9
			c-4.4,3.9-8.7,7.9-13.1,11.8c-3,2.7-4.1,4.7-8.1,3.5c-3.1-1-6.1-2.7-9.1-3.9c-23.7-10.2-47.4-20.5-71.1-30.7
			c-5.5-2.4-10.9-4.7-16.4-7.1c-6.4-2.8-12.3-5.4-13.1-13.2c-0.5-5.1,0.4-10.4,0.7-15.5c0.3-6.4,0.4-12.8,0.3-19.2
			c-0.2-13.5-1.5-27.1-3.7-40.4c-0.5-3.2-1.1-6.3-1.7-9.5c-0.9-4.4-2.1-6.3,2-9.1c5.7-4,11.5-7.9,17.2-11.9
			c24-16.6,48.1-33.2,72.1-49.8c-0.6-0.3-1.1-0.6-1.7-1c0.8,10.3,1.7,20.6,2.5,30.9c0.7,8.6,3.6,20-4.7,25.9
			c-5.3,3.7-11.9,4.9-17.7,7.6c-6.2,2.8-11,7.5-14.4,13.4c-3.7,6.4-5.4,13.7-5.8,21c-0.3,4.5,0,8.9,0.4,13.4c0.2,2,0.4,4,0.7,6
			c0.2,1.8,0.1,6.1,1.1,7.6c1.6,2.5,6.4,4.1,8.9,5.6c3.9,2.3,7.9,4.6,11.8,6.9c9,5.3,18,10.6,26.9,15.8c0.3,0.2,0.8,0.2,1.1,0
			c8.6-6.2,17.2-12.4,25.8-18.6c7.1-5.2,16.5-10,22-17.1c4.8-6.2,3.1-14,2.2-21.2c-1.3-10.5-2.6-21-3.9-31.6
			c-0.1-0.5-0.3-0.9-0.8-1.1c-17.3-5.4-34.5-10.7-51.8-16.1c-0.6-0.2-1.5,0.4-1.4,1.1c7.4,66.5,14.8,132.9,22.2,199.4
			c0.2,1.4,2.4,1.4,2.2,0c-7.4-66.5-14.8-132.9-22.2-199.4c-0.5,0.4-0.9,0.7-1.4,1.1c12.3,3.8,24.7,7.7,37,11.5
			c2.8,0.9,5.6,1.7,8.3,2.6c3.6,1.1,5.2,1.1,6.1,4.8c1.5,6.1,1.6,12.9,2.4,19.1c0.7,5.8,1.7,11.6,2.1,17.3
			c0.5,8.2-3.4,12.5-9.6,17.1c-10.1,7.5-20.4,14.7-30.6,22.1c-2.1,1.6-5.6,5-8.1,5.8c-2.8,0.9-5.8-2-8.1-3.3
			c-5.6-3.3-11.2-6.6-16.8-9.9c-5.3-3.1-10.7-6.3-16-9.4c-2.9-1.7-5.6-2.7-6.6-6.1c-1.1-3.8-1.2-8.2-1.5-12.1
			c-0.9-11.7,0.1-23.9,6.9-33.8c6.1-8.8,15-10.8,24.3-14.8c8.9-3.8,12.7-9.8,12.2-19.5c-0.8-14-2.3-28.1-3.4-42.1
			c-0.1-0.8-0.9-1.5-1.7-1c-31.1,21.5-62.3,43-93.4,64.5c-0.4,0.3-0.6,0.8-0.5,1.3c4.4,19.3,6.7,39,7,58.7
			c0.1,9.4-0.6,18.7-1.1,28.1c-0.3,6.5,0.9,12.4,6.6,16.2c7.4,4.9,16.8,7.7,24.9,11.2c9.1,3.9,18.2,7.9,27.3,11.8
			c18.5,8,37.1,16,55.6,24c0.5,0.2,1,0.2,1.4-0.2c11.9-10.7,23.8-21.4,35.6-32.1c5.6-5,11.2-10,16.7-15.1
			c5.3-4.7,11.5-9.3,15.8-14.9c3.2-4.3,3.9-9,3.6-14.3c-0.6-8.4-1.8-16.7-2.7-25.1c-1.7-15.9-3.4-31.7-5.1-47.6
			c-0.8-7.3-1.6-14.5-2.4-21.8c-0.7-6.5-0.5-14.4-3.4-20.5c-2.1-4.4-6.1-7.1-10.2-9.6c-7.2-4.3-14.6-8.3-21.9-12.5
			c-13.7-7.8-27.5-15.7-41.2-23.5c-2.9-1.6-5.7-3.3-8.6-4.9c-2.8-1.6-3.1-2.5-5.9-1.4c-6.7,2.7-13.2,5.8-19.7,8.9
			c-28.4,13.7-55.3,30.5-80.2,49.8c0.6,0.3,1.3,0.5,1.9,0.8c-2.9-76.8-5.7-153.5-8.6-230.3c-0.6,0.3-1.3,0.5-1.9,0.8
			c9.3,8.2,19.3,15.5,30,21.7c2.8,1.6,5.6,3.2,8.5,4.6c3.5,1.8,6.1,2.2,6.5,6.4c0.6,7.1-0.2,14.5-0.3,21.6
			c-0.1,7.1,0.1,14.2-0.3,21.2c-0.5,8.7-5.3,13.2-11.8,18.2c-11.4,9-22.9,18-34.3,27c0.5,0,1.1,0,1.6,0c-7-6.5-14.2-12.6-21.8-18.4
			c-3.4-2.6-6.8-5.1-10.3-7.6c-1.9-1.4-3.9-2.7-5.9-4.1c-1.7-1.1-4.7-2.4-6-3.9c-1.7-2-0.9-5.4-0.9-7.8c0-2.6,0-5.2,0-7.8
			c0-4.6,0-9.1,0-13.7c0-5.2,0-10.4,0-15.7c0-5-0.5-10.4,0.1-15.3c0.8-7.4,8.5-8.3,14.3-10.7c4.1-1.7,8.1-3.5,12-5.6
			c6-3.1,13.5-6.5,16.4-13c3.3-7.4,2.4-17.4,3-25.2c0.7-10.2,1.5-20.4,2.2-30.6c-0.6,0.3-1.3,0.5-1.9,0.8
			c14.8,14.6,31.1,27.7,48.6,38.8c9.2,5.9,18.7,11.2,28.6,16c4.6,2.2,9.3,4.1,13.8,6.3c6.4,3.2,7.6,7.9,8.5,14.5
			c3.5,24.7,5.5,49.5,6.2,74.4c0.2,5.9,0.3,11.8,0.3,17.8c0,3.3,0,6.6-0.1,9.9c0,3.8,0.5,8.6-2.3,11.7c-3.7,3.9-10.5,6.5-15.1,9.2
			c-5.4,3.2-10.8,6.3-16.3,9.5c-10.6,6.2-21.1,12.3-31.7,18.5c-10.3,6-20.5,12.7-31.2,18.2c-6.7,3.4-11.2,0.8-16.9-2.8
			c-5.5-3.5-11.1-7.1-16.6-10.6c-10.2-6.5-20.5-13.1-30.7-19.6c-10.2-6.5-20.5-13.1-30.7-19.6c-5-3.2-10-6.3-14.9-9.5
			c-2.4-1.6-5.4-3.1-6.9-5.7c-1.8-3.1-1.3-7.4-1.3-10.9c0.1-24.6,0.2-49.2,0.2-73.8c0-7,0-14,0.1-20.9c0-3.3-0.2-6.7,0-10
			c0.3-3.6,1-3.6,4.3-5c11.3-4.8,22.4-10.2,33.1-16.1c21.1-11.7,40.8-25.6,59-41.4C387.5,21.9,385.9,20.4,384.9,21.3L384.9,21.3z"/>
	</g>
</g>
</svg>
