<?xml version="1.0" encoding="utf-8"?>
<!-- Generator: Adobe Illustrator 22.0.1, SVG Export Plug-In . SVG Version: 6.00 Build 0)  -->
<svg version="1.1" id="Layer_1" xmlns="http://www.w3.org/2000/svg" xmlns:xlink="http://www.w3.org/1999/xlink" x="0px" y="0px"
	 viewBox="0 0 1440 1700" style="enable-background:new 0 0 1440 1700;" xml:space="preserve">
<style type="text/css">
	.st0{fill:url(#SVGID_1_);}
	.st1{fill:url(#SVGID_2_);}
	.st2{fill:url(#SVGID_3_);}
	.st3{fill:url(#SVGID_4_);}
	.st4{fill:url(#SVGID_5_);}
	.st5{fill:url(#SVGID_6_);}
	.st6{fill:url(#SVGID_7_);}
	.st7{fill:url(#SVGID_8_);}
	.st8{fill:url(#SVGID_9_);}
	.st9{fill:url(#SVGID_10_);}
	.st10{fill:url(#SVGID_11_);}
	.st11{fill:url(#SVGID_12_);}
	.st12{fill:url(#SVGID_13_);}
	.st13{fill:url(#SVGID_14_);}
	.st14{fill:url(#SVGID_15_);}
	.st15{fill:#FFFFFF;}
	.st16{fill:url(#SVGID_16_);}
	.st17{fill:url(#SVGID_17_);}
	.st18{fill:url(#SVGID_18_);}
	.st19{fill:url(#SVGID_19_);}
	.st20{fill:url(#SVGID_20_);}
	.st21{fill:url(#SVGID_21_);}
	.st22{fill:url(#SVGID_22_);}
	.st23{fill:url(#SVGID_23_);}
	.st24{fill:url(#SVGID_24_);}
	.st25{fill:url(#SVGID_25_);}
	.st26{fill:url(#SVGID_26_);}
	.st27{fill:url(#SVGID_27_);}
	.st28{fill:url(#SVGID_28_);}
	.st29{fill:url(#SVGID_29_);}
	.st30{fill:url(#SVGID_30_);}
</style>
<g>
	<g>
		<linearGradient id="SVGID_1_" gradientUnits="userSpaceOnUse" x1="718.1088" y1="725.3965" x2="1475.5737" y2="725.3965">
			<stop  offset="0" style="stop-color:#5900FF"/>
			<stop  offset="0.3605" style="stop-color:#DE009F"/>
			<stop  offset="0.5751" style="stop-color:#D48D9A"/>
			<stop  offset="0.7561" style="stop-color:#CBFF96"/>
			<stop  offset="0.7684" style="stop-color:#C0FD9B"/>
			<stop  offset="0.9287" style="stop-color:#37E3DB"/>
			<stop  offset="0.9988" style="stop-color:#00D9F5"/>
		</linearGradient>
		<path class="st0" d="M747.2,1137.7c-45-66.2-31-155.8,13.4-218.3c48.5-68.1,125.8-108,202.6-135.6c43.4-15.6,87.9-28.1,131.8-42.2
			c39.3-12.7,78.2-26.9,115.9-44c73.9-33.6,144.4-79.5,194.6-144.4c46.6-60.3,76.3-136.8,70-213.8c-0.7-9.1-2-18.1-3.7-27
			c-0.3-1.4-2.4-0.8-2.2,0.6c15.3,79.4-10.5,160.9-56.2,225.9c-47.8,67.8-117.8,116.2-191.9,151.5c-38.3,18.2-78,33.1-118.3,46.3
			c-44,14.5-88.7,26.9-132.4,42.2c-75.4,26.4-151.1,63.2-202.3,126.7C722,963,700.8,1045,731.8,1114.7c3.7,8.4,8.3,16.5,13.4,24.1
			C746.1,1140,748,1138.9,747.2,1137.7L747.2,1137.7z"/>
	</g>
</g>
<g>
	<g>
		<linearGradient id="SVGID_2_" gradientUnits="userSpaceOnUse" x1="926.8498" y1="870.1375" x2="1507.0411" y2="870.1375">
			<stop  offset="0" style="stop-color:#5900FF"/>
			<stop  offset="0.3605" style="stop-color:#DE009F"/>
			<stop  offset="0.5751" style="stop-color:#D48D9A"/>
			<stop  offset="0.7561" style="stop-color:#CBFF96"/>
			<stop  offset="0.7684" style="stop-color:#C0FD9B"/>
			<stop  offset="0.9287" style="stop-color:#37E3DB"/>
			<stop  offset="0.9988" style="stop-color:#00D9F5"/>
		</linearGradient>
		<path class="st1" d="M948.8,1285.3c-18.1-71.6-36.9-153.5,4.8-220.7c40.6-65.4,115.9-94.5,183.7-122.5
			c68.4-28.3,135.7-61.2,193.8-107.7c53.8-43.2,97.5-98.2,127.8-160.1c29.5-60.3,46.6-126.8,48.7-194c0.3-8.5,0.3-17,0.1-25.5
			c0-1.4-2.3-1.5-2.2,0c1.7,69.5-12.8,139-41,202.4c-28.2,63.3-70.1,120.4-122.7,165.5c-58.1,49.7-127.1,84.7-197.2,114
			c-66.2,27.6-138.4,53.9-183.3,113.2c-21.4,28.3-32.6,61.9-34.6,97.1c-2.1,37.5,4.8,75,13.4,111.4c2.2,9.2,4.5,18.4,6.8,27.5
			C947,1287.3,949.2,1286.7,948.8,1285.3L948.8,1285.3z"/>
	</g>
</g>
<g>
	<g>
		<linearGradient id="SVGID_3_" gradientUnits="userSpaceOnUse" x1="1015.7844" y1="848.8236" x2="1091.5593" y2="848.8236">
			<stop  offset="0" style="stop-color:#5900FF"/>
			<stop  offset="0.3605" style="stop-color:#00EDFF"/>
			<stop  offset="0.5751" style="stop-color:#8DEFCF"/>
			<stop  offset="0.7561" style="stop-color:#FFF1A7"/>
			<stop  offset="0.7594" style="stop-color:#FFEEA5"/>
			<stop  offset="0.926" style="stop-color:#EB652F"/>
			<stop  offset="0.9988" style="stop-color:#E32E00"/>
		</linearGradient>
		<path class="st2" d="M1089.6,821.6c2.6,3.1-10.5,4.6-12,4.8c-4,0.6-7.9,1.3-11.9,2.2c-7.4,1.7-14.6,3.9-21.5,7.1
			c-11.5,5.3-26.8,15.7-29,29.4c-2.5,15.7,17.8,14.2,27.2,10.3c15.4-6.5,24-21.5,29-36.7c0.5-1.4-1.7-2-2.2-0.6
			c-5.2,15.9-14.9,32.1-32.2,36.8c-8.1,2.2-22.3,1.6-19.4-10.5c1.7-7.1,7.7-13.2,13.2-17.7c10.9-9,24.8-13.7,38.4-16.5
			c2.9-0.6,28.6-2,21.9-10.1C1090.3,818.9,1088.7,820.5,1089.6,821.6L1089.6,821.6z"/>
	</g>
</g>
<g>
	<g>
		<linearGradient id="SVGID_4_" gradientUnits="userSpaceOnUse" x1="30.558" y1="583.3958" x2="198.4483" y2="583.3958">
			<stop  offset="0" style="stop-color:#92E1FF"/>
			<stop  offset="0.3605" style="stop-color:#F4B8FF"/>
			<stop  offset="0.7561" style="stop-color:#F1F3FF"/>
			<stop  offset="0.7808" style="stop-color:#ECECFF"/>
			<stop  offset="0.9988" style="stop-color:#C5B6FF"/>
		</linearGradient>
		<path class="st3" d="M142.7,672.8c-8.4-6.7-4.5-20.2-1.9-28.9c2.9-9.8,7.3-19,13-27.5c5.5-8.2,12.3-15.6,20.1-21.8
			c4-3.2,9-7.4,14.4-7.8c9.6-0.7,8.2,9.3,6.2,15.3c-7,21-18.8,40.9-33.1,57.8c-3.3,3.9-6.7,7.6-10.3,11.2c-5.5,5.5-10.3,8.8-18.4,7
			c-11-2.5-22-7.4-32.2-12.3c-5.6-2.7-11.2-5.7-16.5-8.8c-5-3-11.5-6.1-15-10.9c-5.1-7.2,3.7-14.5,8-19.8c4.6-5.7,9.2-11.3,13.7-17
			c0.6-0.8,0.2-1.8-0.8-1.9c-22.1-1.7-42.7-11.6-57.8-27.7c-0.3,0.6-0.5,1.3-0.8,1.9c13.7,0.3,27.3,1.8,40.7,4.6
			c0.9,0.2,1.8-0.8,1.3-1.7c-18.9-29.7-38.5-61.2-40.6-97.4c-0.6,0.3-1.3,0.5-1.9,0.8c22.5,19.6,45,39.2,67.6,58.8
			c1,0.9,2.3-0.2,1.8-1.4c-8-17-8.8-36.2-2.4-53.9c-0.6,0.2-1.3,0.3-1.9,0.5c21.4,23.5,29.2,57.4,20.2,87.9
			c-0.4,1.4,1.6,1.9,2.2,0.6c4.4-10.4,9.8-20.4,16.3-29.7c2.1-3,7.4-12.8,11-11.7c2.3,0.7,5.1,3.7,6.9,5.2c2.1,1.7,4.2,3.4,6.3,5.2
			c15.9,13.9,28.9,30.8,38.4,49.6c0.7,1.3,2.6,0.2,1.9-1.1c-12.6-25-31.3-46.3-54.4-62.1c-0.4-0.3-1.1-0.2-1.4,0.2
			c-11.4,13.2-20.5,27.9-27.2,44c0.7,0.2,1.4,0.4,2.2,0.6c9.3-31.2,1.2-66-20.7-90.1c-0.6-0.7-1.6-0.3-1.9,0.5
			c-6.6,18.2-5.5,38.1,2.7,55.6c0.6-0.5,1.2-0.9,1.8-1.4c-22.5-19.6-45-39.2-67.6-58.8c-0.7-0.6-2-0.2-1.9,0.8
			c2.1,36.6,21.8,68.4,40.9,98.5c0.4-0.6,0.8-1.1,1.3-1.7c-13.6-2.9-27.4-4.4-41.3-4.7c-1,0-1.4,1.2-0.8,1.9
			c15.5,16.6,36.7,26.6,59.4,28.3c-0.3-0.6-0.5-1.3-0.8-1.9c-5,6.2-10,12.3-15,18.5c-3.2,4-8.9,9-9.3,14.5c-0.3,4.6,3,8.1,6.3,10.7
			c5.4,4.3,11.7,7.7,17.8,11c12.1,6.6,24.8,12.1,37.9,16.3c5.2,1.6,10.6,3.3,15.9,1.3c5.8-2.2,10.3-7.9,14.4-12.3
			c9.3-10,17.4-21,24.3-32.7c6.3-10.8,12.6-22.8,15.8-35c2.4-9-1.9-18.1-12.4-14.9c-10.3,3.1-19.8,13.3-26.5,21.3
			c-8.7,10.4-15.4,22.4-19.5,35.4c-3,9.7-7.5,25.1,2.1,32.6C142.3,675.2,143.9,673.7,142.7,672.8L142.7,672.8z"/>
	</g>
</g>
<g>
	<g>
		<linearGradient id="SVGID_5_" gradientUnits="userSpaceOnUse" x1="487.3151" y1="1512.7651" x2="797.4363" y2="1512.7651">
			<stop  offset="2.929688e-02" style="stop-color:#E2436A"/>
			<stop  offset="0.3605" style="stop-color:#E72279"/>
			<stop  offset="0.7561" style="stop-color:#C837E8"/>
			<stop  offset="0.8807" style="stop-color:#8A1DE6"/>
			<stop  offset="0.9988" style="stop-color:#5307E4"/>
		</linearGradient>
		<path class="st4" d="M623.8,1461.5c-43.5-19.5-89-34.4-135.7-44.2c-0.9-0.2-1.5,0.5-1.4,1.4c4.7,34.9,9.4,69.7,14.1,104.6
			c2.4,17.4,4.7,34.9,7.1,52.3c1.2,8.9,2.4,17.8,3.6,26.6c0.8,6,0.6,14.2,4.3,19.3c3.4,4.6,9.3,4.1,14.4,4.1c8,0.1,16,0.4,24,1.1
			c16.8,1.4,33.5,4.3,49.9,8.4c15.9,4,30.8,10.1,46.2,15.5c6.6,2.3,12,1.3,18.2-1.7c7.7-3.7,15.2-7.7,22.8-11.6
			c35.4-18.1,70.8-36.1,106.3-54.2c0.3-0.2,0.6-0.6,0.6-1c-7.1-67.3-14.1-134.6-21.2-201.9c-0.1-0.9-0.9-1.3-1.7-1
			c-48,21.5-94.5,46.4-139.1,74.4c0.5,0.6,0.9,1.2,1.4,1.8c35.3-31.8,72.2-61.8,110.5-90c-0.6-0.2-1.1-0.4-1.7-0.7
			c8.9,47.6,15.4,95.5,19.5,143.8c1,12,1.9,24,2.6,36c0.3,5.5,0.6,11,0.9,16.6c0.1,2.9,0.3,5.9,0.4,8.8c0.2,3.8,0.9,6.3-2.3,8.7
			c-8.9,6.4-19.2,11.4-28.4,17.3c-9.6,6.1-19.1,12.4-28.5,18.9c-20.6,14.3-40.7,29.4-60.1,45.3c0.6,0.2,1.3,0.3,1.9,0.5
			c-6.1-45.1-12.7-90.1-20-135c-3.6-22.1-7.3-44.2-11.1-66.3c-1.6-8.9-2.1-19.6-7.8-27.1c-5.1-6.7-13.9-10.5-20.9-14.5
			c-21.2-12-43-22.9-65.3-32.6c-0.8-0.3-1.6,0.1-1.7,1c-2.5,46.9-2.3,93.9,0.7,140.8c0.7,11.9,1.7,23.7,2.8,35.6
			c0.8,8.2,0.7,17.9,4.7,25.4c4,7.3,11.7,9.4,19.2,11.5c10.6,3.1,21.1,6.6,31.5,10.4c23.6,8.7,46.4,19.4,68.3,31.7
			c0.7,0.4,1.7-0.1,1.7-1c-1.3-37.7-2.6-75.3-3.9-113c-0.6-18.5-1.3-37-1.9-55.5c-0.3-9.6-0.7-19.2-1-28.7
			c-0.3-8.7-2.3-19.5,1.3-27.7c2-4.6,5.9-7.9,9.5-11.2c3.8-3.4,7.6-6.9,11.4-10.3c7.9-7.1,15.7-14.2,23.6-21.3
			c-0.6-0.2-1.3-0.3-1.9-0.5c6,42.5,12,85,18.1,127.5c1.5,10.5,3,20.9,4.4,31.4c0.7,4.9,1.4,9.8,2.1,14.7c0.9,6.6,4.1,15.7-2.4,20.4
			c-3.2,2.3-7.1,3.8-10.6,5.7c-3.6,2-7,4.1-10.4,6.4c-6.5,4.5-12.7,9.7-18.3,15.4c-12.5,12.7-22,27.9-28.2,44.6c0.7,0,1.4,0,2.2,0
			c-10.2-28.4-30-52.9-55.7-68.7c-1.5-0.9-3.1-1.8-4.6-2.7c-1.5-0.8-4.3-1.6-5.4-2.8c-1.5-1.7-1-4.5-1.1-6.6c-0.1-3-0.3-5.9-0.4-8.9
			c-0.5-10.2-1-20.5-1.6-30.7c-1.2-20.1-2.7-40.2-4.5-60.3c-2-23-4.5-46-7.2-69c-0.5,0.4-0.9,0.7-1.4,1.1
			c10.2,2.6,20.5,5.3,30.7,7.9c4.9,1.3,10.6,2,14.8,4.9c4.4,3,5.6,8.4,6.5,13.4c3.6,21,6.5,42.1,9.8,63.1c0.2,1.4,2.4,0.8,2.2-0.6
			c-1.8-11.9-3.7-23.8-5.5-35.7c-1.7-10.8-2.2-22.7-5.5-33.2c-2.6-8.4-9-10.8-16.9-12.9c-11.8-3-23.6-6.1-35.4-9.1
			c-0.6-0.2-1.5,0.3-1.4,1.1c7.1,58.4,11.7,117,14,175.8c0,0.4,0.2,0.8,0.6,1c30.6,14.9,54.5,41.5,66,73.5c0.4,1.1,1.8,1.1,2.2,0
			c6.1-16.5,15.8-31.6,28.2-44.2c6.4-6.4,13.4-12.2,21.1-17c3.4-2.2,7-4.2,10.6-6c3.1-1.6,6.6-2.9,9-5.6c5.4-5.9,1.6-16.9,0.6-23.8
			c-1.5-10.8-3.1-21.6-4.6-32.4c-3.1-21.6-6.1-43.2-9.2-64.7c-3.5-24.5-6.9-49-10.4-73.6c-0.1-0.9-1.3-1-1.9-0.5
			c-7.1,6.5-14.3,12.9-21.4,19.4c-6.5,5.8-13.6,11.4-19.4,17.9c-5,5.6-6.3,12-6.2,19.4c0.2,9.5,0.6,18.9,1,28.4
			c1.3,39.3,2.7,78.6,4,117.9c0.8,22.1,1.5,44.3,2.3,66.4c0.6-0.3,1.1-0.6,1.7-1c-17.8-10-36.2-18.9-55.1-26.6
			c-9.7-3.9-19.5-7.5-29.4-10.8c-4.7-1.5-9.4-3-14.1-4.4c-4.9-1.5-10.4-2.5-14.7-5.5c-9.1-6.2-8.4-20.1-9.3-29.8
			c-1-11.2-1.9-22.4-2.6-33.6c-1.4-22.1-2.3-44.3-2.5-66.4c-0.2-25.5,0.3-50.9,1.7-76.3c-0.6,0.3-1.1,0.6-1.7,1
			c18.9,8.2,37.4,17.2,55.5,27.1c8.9,4.9,19.2,9.5,26.9,16.1c7.9,6.8,8.6,18,10.2,27.6c7.6,43.2,14.6,86.5,21,129.8
			c3.6,24.5,7.1,48.9,10.4,73.4c0.1,0.9,1.3,1,1.9,0.5c37.6-30.9,77.7-58.6,119.8-83.1c0.3-0.2,0.6-0.6,0.6-1
			c-2.7-71.6-10.7-143-23.9-213.5c-0.1-0.7-1.1-1.1-1.7-0.7c-38.4,28.3-75.5,58.4-110.9,90.4c-0.9,0.9,0.3,2.4,1.4,1.8
			c44.5-28,91-52.9,139.1-74.4c-0.6-0.3-1.1-0.6-1.7-1c4.8,46.2,9.7,92.4,14.5,138.6c1.2,11.9,2.5,23.8,3.7,35.6
			c0.6,5.3,1.1,10.6,1.7,15.8c0.3,2.5,0.9,5.4,0.8,7.9c-0.1,2.3,0.2,2.8-1.7,4.3c-1.2,1-3,1.5-4.4,2.3c-20.7,10.5-41.3,21.1-62,31.6
			c-10.6,5.4-21.3,10.8-31.9,16.3c-9.8,5-19.6,10.6-29.7,15.1c-11.4,5.1-22.9-2.7-33.7-6.5c-10.2-3.6-20.6-6.7-31.1-9.2
			c-20.5-4.9-41.5-7.8-62.6-8.6c-5-0.2-10.6,0.5-15.5-0.5c-7.3-1.4-7.6-8.5-8.5-14.6c-1.6-11.5-3.1-23-4.7-34.5
			c-7-52-14-103.9-21-155.9c-0.5,0.5-0.9,0.9-1.4,1.4c46.5,9.8,91.8,24.6,135.2,44C624,1464,625.1,1462.1,623.8,1461.5L623.8,1461.5
			z"/>
	</g>
</g>
<g>
	<g>
		<linearGradient id="SVGID_6_" gradientUnits="userSpaceOnUse" x1="144.9564" y1="1254.5109" x2="301.3405" y2="1254.5109">
			<stop  offset="0" style="stop-color:#E77AEB"/>
			<stop  offset="0.3605" style="stop-color:#EACDA6"/>
			<stop  offset="0.7561" style="stop-color:#ECDFF1"/>
			<stop  offset="0.8363" style="stop-color:#F3C2E9"/>
			<stop  offset="0.9988" style="stop-color:#FF8CD9"/>
		</linearGradient>
		<path class="st5" d="M155.3,1282.4c20.5-3.5,42.2,2.6,58,16.2c7.2,6.2,18.2,16.9,15.1,27.4c-3.7,12.4-18.6,15.2-29.3,11.2
			c-10.5-3.9-19.2-12.3-26.4-20.5c-6.8-7.8-12.5-16.7-16.9-26.1c-8.9-19.2-12.2-41.3-7-62c9.5-37.9,50.7-67.6,89.7-56.1
			c43.8,12.8,67.3,63.8,59.7,106.7c-1.9,10.7-9,27-22.8,21.5c-15.3-6.1-13.4-25.1-11-38.1c3.9-21.2,9.1-46.1,28.9-58.3
			c1.2-0.8,0.1-2.7-1.1-1.9c-19.7,12.1-25.5,36.1-29.5,57.3c-2.2,11.6-4.9,25.2,2.5,35.6c5.3,7.3,14.9,11.5,23.2,6.5
			c8.7-5.3,11.4-16.9,12.6-26.2c1.6-12.5,0.9-25.2-2.1-37.5c-5.7-23.5-19.7-45.2-40.1-58.5c-19.4-12.7-43-15.2-64.5-6.3
			c-19.4,8.1-35.6,24-43.9,43.3c-9.4,22-7.9,47.4,0.8,69.3c4.2,10.7,10.1,20.6,17.3,29.5c7.5,9.3,16.9,18.6,28.1,23.3
			c10.5,4.4,22.9,3.5,30.4-5.9c7.7-9.6,2.3-19.9-4.7-28.1c-16.4-19.4-42.9-28.7-67.9-24.5C153.3,1280.4,153.9,1282.6,155.3,1282.4
			L155.3,1282.4z"/>
	</g>
</g>
<g>
	<g>
		<linearGradient id="SVGID_7_" gradientUnits="userSpaceOnUse" x1="426.8717" y1="674.6688" x2="673.4427" y2="674.6688">
			<stop  offset="0" style="stop-color:#00FFAD"/>
			<stop  offset="0.2358" style="stop-color:#3FC0A5"/>
			<stop  offset="0.7664" style="stop-color:#C83794"/>
			<stop  offset="0.9988" style="stop-color:#FF008D"/>
		</linearGradient>
		<path class="st6" d="M433.7,606.4c-1.6,26.8-3.1,53.5-4.7,80.3c-0.8,13.5-1.6,27.1-2.4,40.6c-0.5,7.9-2.9,19.5,5.6,24.1
			c4.2,2.3,9.8,2.9,14.4,3.9c6.6,1.5,13.2,3,19.9,4.3c12.7,2.6,25.4,5.1,38.1,7.2c24.9,4.3,50,7.7,75.2,10.3
			c13.2,1.3,26.4,2.4,39.6,3.3c8.5,0.6,18.6,1.5,25.8-4.2c3.3-2.6,5.2-6.3,6.7-10.2c2.4-6.3,4.3-12.9,6.1-19.4
			c3.5-12.2,6.5-24.5,8.8-37c4.5-23.6,7.7-48.2,7.2-72.2c-0.2-8.3-1.4-17.2-6.6-24c-5.6-7.3-14.7-9.7-23.5-10.3
			c-14.3-0.9-41.8,2.5-40.1,22.6c0.7,8.8,8.3,15.7,16.3,18.4c12,4,25.1-1,36.2-5.4c0.7-0.3,1-0.9,0.7-1.7
			c-5.1-10.5-19.2-11.6-28.5-6.3c-6.1,3.5-10.7,9.2-14.5,15c-4,6.1-9.3,13.5-9.8,21.1c-0.8,12.5,12.3,18.4,22.5,20.7
			c9.5,2.1,27.5,4,25.3-11c-2-13.9-17.2-14.8-27.6-10c-12.7,6-24,19-25,33.4c-0.9,11.8,7,22.6,18.5,25.6c8.6,2.2,24.1-3.4,20.3-15
			c-2-6.1-10-6.8-15.3-5.9c-7,1.2-13.3,5.6-17.3,11.4c-9.6,13.9-3.5,32.2,8,42.8c0.3-0.6,0.5-1.3,0.8-1.9c-17-0.5-34-1.2-50.9-2.2
			c-15.9-1-33.2-0.7-48.6-5.2c-27.3-8-35.2-42.2-34.4-67.4c0.4-11.9,3.4-24.9,13-32.9c10.1-8.5,24.7-8,35.2-0.6
			c24.3,17,5.5,57.2-23,50.6c-13.8-3.2-23-14.7-23.9-28.5c-0.7-10,1.2-22.5-6.9-30.1c-4.7-4.4-11.4-5.4-17-8.2
			c-6.3-3.2-11.4-8.5-14.6-14.7c-1.4-2.6-3.6-6.8-3.4-9.9c0.2-3.3,8.1-3.7,10.8-4.2c8.8-1.8,17.8-2.9,26.8-3.6
			c8-0.5,16.2-0.9,24.2-0.3c8.6,0.7,13.9,6.2,11.9,15c-3.9,17-26.8,14.4-39.5,11.6c-14.6-3.1-31.7-8.8-40.4-22
			c-4.5-6.8-4.9-15.5,1.2-21.5c4.4-4.4,10.8-6.2,16.7-7.2c15.7-2.6,32.1-2.4,48-3.3c8.2-0.5,16.5-1.4,24.7-1.4
			c9.7-0.1,8.7,7.8,8.5,14.8c-0.1,3.7,0.1,7.9,3.1,10.5c4.7,4.1,13.7,2.7,19.4,2.9c17,0.4,34.1,0.9,51.1,1.3
			c8.5,0.2,17,0.4,25.6,0.7c1.4,0,1.4-2.2,0-2.2c-18.7-0.5-37.4-1-56-1.4c-9.5-0.2-19-0.5-28.5-0.7c-4.7-0.1-10.6-0.1-12-5.6
			c-0.8-3-0.2-6.4,0-9.4c0.2-3.9,0-8.3-3.4-10.9c-5.2-4-14.6-1.6-20.5-1.2c-18,1.1-36.2,1.6-54.1,3.3c-10.2,1-22.8,3.5-27.7,13.7
			c-5.4,11.5,3.3,22.8,12.2,29.4c12,8.8,28.4,13.1,43,14.5c11.2,1.1,25.7-0.7,30.2-12.8c1.7-4.6,1.7-10.3-1.1-14.6
			c-3.7-5.5-10.6-5.6-16.6-5.7c-19.9-0.5-39.8,1.9-59.1,6.8c-0.4,0.1-0.9,0.6-0.8,1.1c0.8,7.3,3.5,14.1,8.1,19.9
			c5.3,6.5,11.9,9.7,19.5,12.5c4.8,1.8,9.2,4.1,11.6,8.9c2.1,4.2,2.4,9,2.6,13.6c0.3,7.4-0.2,15.2,2.8,22.2
			c5.3,12.4,19,20.9,32.5,19.9c13.4-1,24.1-11.9,27.1-24.7c6.9-28.9-30.7-48.8-51.5-28.2c-9.9,9.8-12.2,24.9-11.8,38.3
			c0.5,15.2,3.8,31.9,11.6,45.1c10.5,17.9,29.1,21,48.2,22.6c25.4,2,50.9,3.4,76.4,4c1,0,1.5-1.3,0.8-1.9c-8.6-8-14.3-20.2-11.4-32
			c2.6-10.3,12.6-19.2,23.5-18.7c4.1,0.2,9.1,1.7,9,6.8c-0.1,3.4-2.5,6.5-5.2,8.3c-4.1,2.7-9.2,2.8-13.8,1.4
			c-9.2-2.9-15.6-11.2-15.8-20.9c-0.2-11.5,7.3-22,16.1-28.8c8.2-6.3,24.8-13.1,30.9-0.5c2.5,5.1,1.6,11.6-4.5,13.5
			c-5.3,1.6-12.2,0-17.4-1.3c-8.4-2-19.9-6.4-20.3-16.6c-0.3-6.8,4.5-13.4,7.9-19c3.1-5.1,6.6-10.1,11.2-14c8.4-7,23.9-8.8,29.5,2.6
			c0.2-0.6,0.4-1.1,0.7-1.7c-10,3.9-21.3,8.5-32.3,6.2c-9.7-2-19.8-11.2-17-21.9c4.3-16.6,30.9-17.3,44.1-14.6
			c23.4,4.7,21.8,29.8,20.8,48.4c-1.2,22-4.2,44-8.9,65.5c-2.3,10.5-5,20.9-8.2,31.2c-3.1,10.2-5.3,23.2-17.3,26.1
			c-9.8,2.4-21.2,0.3-31.1-0.5c-11-0.9-21.9-1.9-32.8-3.1c-44.6-4.8-88.9-12.3-132.5-22.6c-3.2-0.7-6.9-1.3-9.4-3.6
			c-2.4-2.3-2.9-5.9-2.9-9.1c-0.1-5.8,0.6-11.7,0.9-17.5c0.7-12.6,1.5-25.1,2.2-37.7c1.5-25.8,3-51.5,4.5-77.3
			C436,604.9,433.8,604.9,433.7,606.4L433.7,606.4z"/>
	</g>
</g>
<g>
	<g>
		<linearGradient id="SVGID_8_" gradientUnits="userSpaceOnUse" x1="299.5441" y1="1534.1006" x2="436.0406" y2="1534.1006">
			<stop  offset="0" style="stop-color:#DAECFD"/>
			<stop  offset="0.3605" style="stop-color:#FBFBF9"/>
			<stop  offset="0.7561" style="stop-color:#FEFDC6"/>
			<stop  offset="0.9988" style="stop-color:#FFD3B8"/>
		</linearGradient>
		<path class="st7" d="M303,1578.9c18.5-11.4,29.5-30.6,38.7-49.7c11.2-23.5,20.6-47.8,28.1-72.7c-0.6,0.2-1.3,0.3-1.9,0.5
			c16.8,18.4,30.8,45.6,15.9,69.4c-0.5,0.8,0.2,1.6,1,1.7c9.9,0.7,19.5,3.6,28.1,8.8c8.6,5.2,19,13.7,21.2,24
			c3.2,14.5-12.3,20.3-23.9,20.1c-9.7-0.2-22.4-0.5-29.8-7.7c-0.8-0.8-2.1,0-1.9,1.1c1.9,7.7,8.2,12.7,12.5,19c2.7,4.1,4,8.9,0.6,13
			c-4.5,5.5-12.3,4.8-18.4,3c-12.1-3.6-23.9-8.8-35.7-13.2c-12.5-4.7-25-9.3-37.5-14c-1.4-0.5-1.9,1.7-0.6,2.2
			c15,5.6,30,11.2,44.9,16.8c7.2,2.7,14.4,5.4,21.5,8.1c5.6,2.1,11.6,4.5,17.7,3.7c7.7-1,14.2-7.5,11.8-15.6
			c-2.7-9.1-12.5-14.1-14.8-23.6c-0.6,0.4-1.3,0.7-1.9,1.1c8.2,7.9,22.5,8.5,33.2,8.3c10.4-0.2,23.4-4.9,24.7-16.9
			c1.3-11.5-9.2-21.7-17.6-27.9c-10-7.4-21.9-11.7-34.4-12.5c0.3,0.6,0.6,1.1,1,1.7c15.5-24.7,1.2-53-16.3-72.1
			c-0.6-0.6-1.6-0.3-1.9,0.5c-7.3,24.1-16.3,47.7-27.1,70.5c-9.1,19.3-20,39-38.7,50.6C300.6,1577.7,301.7,1579.7,303,1578.9
			L303,1578.9z"/>
	</g>
</g>
<g>
	<g>
		<linearGradient id="SVGID_9_" gradientUnits="userSpaceOnUse" x1="19.1783" y1="1588.6573" x2="353.7257" y2="1588.6573">
			<stop  offset="0" style="stop-color:#92E1FF"/>
			<stop  offset="0.3605" style="stop-color:#F4B8FF"/>
			<stop  offset="0.7561" style="stop-color:#F1F3FF"/>
			<stop  offset="0.7808" style="stop-color:#ECECFF"/>
			<stop  offset="0.9988" style="stop-color:#C5B6FF"/>
		</linearGradient>
		<path class="st8" d="M31.7,1631.3c-9.9-5.7-14.2-19.4-8.4-29.5c5.8-10.2,20.1-12.9,29.8-7.2c0.8,0.5,2-0.3,1.7-1.3
			c-8.4-26.4,1.2-57.7,25.8-71.8c24.3-13.9,56.7-8.6,72.5,15.3c8.2,12.4,11.1,27.8,7.2,42.2c-0.3,1,0.8,1.7,1.7,1.3
			c18.5-9.4,40.5-20.1,61.3-10.8c8.3,3.7,14.8,10.5,16.5,19.6c1.6,9-1.5,18.7-9.6,23.4c-1.1,0.6-0.4,2.4,0.9,2.1
			c8.5-2.4,17.8-5.2,26.7-3.1c7.6,1.8,14.5,7.5,15.3,15.7c0.1,0.8,0.7,1.2,1.4,1.1c13.8-2.1,27.8-2.9,41.8-2.2
			c6,0.3,39.1,0.4,35.9,12.2c-1.6,5.8-12.8,5.9-17.4,6.6c-7.1,1.1-14.3,2.2-21.4,3.2c-14.2,2-28.4,3.8-42.6,5.4
			c-27.4,3.1-54.8,5.5-82.3,7.1c-25.3,1.5-51.1,3.5-76.5,2.2c-12.4-0.6-24.9-2.3-36.5-6.7c-9.8-3.7-33.9-15.5-26.5-29.4
			c0.7-1.3-1.3-2.4-1.9-1.1c-5.2,9.7,3.9,18.9,11.3,24.1c10.2,7.2,22.3,11.2,34.5,13.3c28,4.9,57.6,2,85.9,0.4
			c33.1-1.8,66.1-4.6,99-8.5c15.7-1.8,31.4-3.9,47.1-6.2c7.3-1.1,15.3-1.5,22.4-3.7c3.6-1.1,7.2-3.3,7.6-7.4
			c1-11.8-20.6-12.3-27.8-13c-17.7-1.8-35.4-1.1-52.9,1.5c0.5,0.4,0.9,0.7,1.4,1.1c-0.7-7.7-6-13.5-12.9-16.5
			c-10.2-4.4-21.7-1.2-31.9,1.7c0.3,0.7,0.6,1.4,0.9,2.1c17.1-9.8,12.8-34.4-1.8-44.1c-21.7-14.5-48.1-2.4-68.5,8
			c0.6,0.4,1.1,0.8,1.7,1.3c7.3-26.6-8.4-56.4-34.7-65.1c-27.9-9.3-59.5,4.6-72,31.1c-7.1,15.1-8.2,32.5-3.2,48.4
			c0.6-0.4,1.1-0.8,1.7-1.3c-10.9-6.4-26.4-3.2-32.9,8c-6.5,11.2-1.7,26.3,9.2,32.6C31.8,1634,32.9,1632.1,31.7,1631.3L31.7,1631.3z
			"/>
	</g>
</g>
<g>
	<g>
		<linearGradient id="SVGID_10_" gradientUnits="userSpaceOnUse" x1="953.1223" y1="497.1069" x2="1157.701" y2="497.1069">
			<stop  offset="0" style="stop-color:#DAECFD"/>
			<stop  offset="0.3605" style="stop-color:#FBFBF9"/>
			<stop  offset="0.7561" style="stop-color:#FEFDC6"/>
			<stop  offset="0.9988" style="stop-color:#FFD3B8"/>
		</linearGradient>
		<path class="st9" d="M954.7,378.8c-3.3,55.6-3,111.4,0.8,166.9c1.9,27.5,4.6,54.8,8.2,82.1c1.2,9.1,2.4,18.5,13.1,20.3
			c13,2.1,26.8,2.1,39.9,3c27.9,2,55.7,4,83.6,6.1c6.6,0.5,13.3,1,19.9,1.4c6,0.4,12.4,1.4,18.4,0.6c8.6-1.2,14.1-7.1,16.5-15.2
			c3.1-10.3,2-21.8,2.1-32.5c0.1-14.3,0.1-28.7,0.2-43c0.1-28,0.3-56,0.4-84c0.1-28,0.3-56,0.4-84c0.1-14.7,0.1-29.3,0.2-44
			c0-9.4,0.5-18.2-10.6-20c-12.2-2-25.4-1.3-37.8-1.6c-13.8-0.3-27.5-0.4-41.3-0.3c-27.9,0.3-55.7,1.4-83.5,3.5
			c-7.9,0.6-17.4,1.8-20.2,10.5c-1.7,5.1-1.1,11.1-1.1,16.3c-0.1,7.2-0.1,14.3-0.1,21.5c0.1,27.4,1.2,54.7,3.1,82
			c1.9,27.3,4.7,54.6,8.4,81.8c1.8,13.6,3.9,27.2,6.2,40.7c1.5,8.8,1.9,19.9,11.6,23.5c4.5,1.7,9.6,1.7,14.3,2
			c7.1,0.5,14.3,0.9,21.4,1.4c12.8,0.8,26.2,2.8,39,2.3c21.3-0.9,16.9-25.6,4.1-35.2c-6.5-4.9-15.6-7-23.1-3
			c-6.2,3.3-10.7,10.3-10.8,17.4c-0.2,7.9,5.4,13.6,12.5,16.2c10.5,3.9,23,3.4,34,4.3c13.5,1.2,27,2.3,40.5,3.5
			c0.6,0.1,1.1-0.6,1.1-1.1c2.5-47.7,5-95.4,7.5-143.2c1.2-23.5,2.5-47.1,3.7-70.6c0.5-9.6,2.5-20.5,0.2-30
			c-1.9-7.9-8-12.1-15.6-13.9c-22.3-5.3-47-2.6-68.4,4.9c-0.6,0.2-0.9,0.7-0.8,1.4c1,7.1,11.4,6.9,14.9,1.8
			c2.3-3.4,1.2-8.1-1.1-11.1c-3.8-5-9.9-6.6-15.9-6.1c-7.7,0.7-15.1,4.2-22.6,6c-9.2,2.2-18.6,3.2-28,3.2c-6.6,0-13.5-1.1-19.6,2
			c-4.2,2.1-7.1,5.7-9,9.9c-5,11.6-3.5,24.9-8.2,36.6c-0.5,1.3,1.6,1.9,2.2,0.6c3.8-9.5,3.8-19.8,6-29.6c1.1-4.8,2.8-9.8,6.7-13.2
			c6.1-5.4,14.5-4,21.9-4c14.9,0.1,28.7-3.2,42.9-7.5c7.7-2.3,19.4-3.6,23,5.7c3.4,8.9-10,12.3-11.1,5.1c-0.3,0.5-0.5,0.9-0.8,1.4
			c19.7-6.9,41-9.1,61.7-5.9c4.5,0.7,9.3,1.5,13.2,4c5.5,3.5,7,9.6,7.1,15.8c0.2,9.9-0.9,20-1.4,29.9c-2.3,44.1-4.6,88.2-6.9,132.2
			c-1.3,24.9-2.6,49.7-3.9,74.6c0.4-0.4,0.8-0.8,1.1-1.1c-12.2-1-24.5-2.1-36.7-3.1c-10.9-0.9-22.4-0.9-33.1-3.4
			c-10.9-2.5-18.7-11.5-13.1-22.6c4.8-9.6,15.8-12.3,25.1-7.4c8.6,4.5,16.4,15.9,12.9,25.9c-4,11.5-23.8,6.8-32.8,6.2
			c-12-0.8-24-1.6-36-2.4c-5.3-0.3-11.1-0.2-16.2-1.7c-6.7-2-8.8-7.7-10-14c-8.9-48.1-14.1-97.1-16.9-145.9
			c-1.4-24.1-2.1-48.2-2.1-72.3c0-5.9,0-11.7,0.1-17.6c0.1-5.9-0.9-13.8,3.8-18.2c3.7-3.5,9.5-4,14.3-4.4c6.5-0.5,13.1-0.9,19.6-1.3
			c24.2-1.4,48.5-2.2,72.8-2.3c12.1,0,24.3,0.1,36.4,0.4c5.6,0.1,11.1,0.3,16.7,0.5c6.1,0.2,12.9-0.2,18.9,1.2
			c8,1.9,7.7,8.9,7.6,15.6c0,6.3-0.1,12.7-0.1,19c-0.1,12.3-0.1,24.7-0.2,37c-0.1,24.7-0.2,49.3-0.4,74c-0.1,24.7-0.2,49.3-0.4,74
			c-0.1,23.9,0.5,48-0.4,71.9c-0.4,8.9-1.9,20.3-10.8,24.9c-5.5,2.8-12,1.9-17.9,1.5c-6-0.4-11.9-0.9-17.9-1.3
			c-24.9-1.8-49.7-3.6-74.6-5.4c-12.3-0.9-24.5-1.8-36.8-2.7c-5.8-0.4-11.7-0.7-17.5-1.3c-7.9-0.8-11.3-5-12.6-12.6
			c-4.1-24.1-6-48.8-7.9-73.2c-3.9-48.7-5-97.5-3.5-146.3c0.4-11.8,0.9-23.6,1.6-35.3C957,377.3,954.7,377.3,954.7,378.8
			L954.7,378.8z"/>
	</g>
</g>
<g>
	<g>
		<linearGradient id="SVGID_11_" gradientUnits="userSpaceOnUse" x1="21.9444" y1="1446.1301" x2="115.6752" y2="1446.1301">
			<stop  offset="0" style="stop-color:#DAECFD"/>
			<stop  offset="0.3605" style="stop-color:#FBFBF9"/>
			<stop  offset="0.7561" style="stop-color:#FEFDC6"/>
			<stop  offset="0.9988" style="stop-color:#FFD3B8"/>
		</linearGradient>
		<path class="st10" d="M21.2,1383.1c8.7,22.1,21.5,42.4,37.9,59.5c17.4,18.1,39,31.6,54.9,51.2c0.4-0.6,0.7-1.3,1.1-1.9
			c-27.6-4.8-54.8-11.6-81.4-20.4c0,0.7,0,1.4,0,2.2c27.6-10.9,53.5-25.7,76.9-44c-0.6-0.3-1.3-0.5-1.9-0.8
			c-0.4,26.9-0.9,53.7-1.3,80.6c0,1.4,2.2,1.4,2.2,0c0.4-26.9,0.9-53.7,1.3-80.6c0-1.1-1.2-1.4-1.9-0.8
			c-23.1,18-48.7,32.7-75.9,43.4c-1,0.4-1.1,1.8,0,2.2c26.6,8.8,53.8,15.6,81.4,20.4c1.1,0.2,1.8-1,1.1-1.9
			c-15.1-18.7-35.6-31.8-52.5-48.8c-17.3-17.3-30.7-38.2-39.7-60.9C22.9,1381.2,20.7,1381.8,21.2,1383.1L21.2,1383.1z"/>
	</g>
</g>
<g>
	<g>
		<linearGradient id="SVGID_12_" gradientUnits="userSpaceOnUse" x1="806.2032" y1="1534.0643" x2="1148.5771" y2="1534.0643">
			<stop  offset="0" style="stop-color:#5900FF"/>
			<stop  offset="0.3605" style="stop-color:#00EDFF"/>
			<stop  offset="0.5751" style="stop-color:#8DEFCF"/>
			<stop  offset="0.7561" style="stop-color:#FFF1A7"/>
			<stop  offset="0.7594" style="stop-color:#FFEEA5"/>
			<stop  offset="0.926" style="stop-color:#EB652F"/>
			<stop  offset="0.9988" style="stop-color:#E32E00"/>
		</linearGradient>
		<path class="st11" d="M944.6,1419.6c17.3-6.5,34.9-12,52.8-16.4c8.8-2.2,17.7-4.1,26.6-5.7c4.3-0.8,8.6-1.5,12.9-2.2
			c2.4-0.4,4.8-0.7,7.3-1c1.9-0.3,6.9-1.8,8.4-0.2c0.8,0.8,0.8,4.3,1,5.4c0.5,2.4,0.9,4.8,1.4,7.2c0.9,4.5,1.9,9,3,13.4
			c2.1,8.6,4.7,17.1,7.9,25.3c5.4,13.8,13,26.5,21.6,38.5c16.4,22.9,36.2,43.8,48.9,69.2c3.1,6.3,5.8,12.8,7.6,19.6
			c0.9,3.1,1.5,6.3,2,9.5c0.3,2,0.6,4,0.7,6c0.3,3.4-0.2,3.6-3.6,4.6c-18.2,5.5-36.4,10.9-54.7,16.3c-74,21.5-148.5,41.4-223.4,59.6
			c-8.7,2.1-17.6,4.8-26.5,6c-4.2,0.6-8.5,0.6-12.4-1.2c-4.7-2.2-7.3-6.7-9.4-11.2c-6.8-14.9-7.2-32.5-1.9-47.9
			c10.3-29.8,40.1-43.1,67.8-52.5c13.5-4.6,27.3-8.5,40.5-14.1c12.7-5.4,25.1-13.1,30.7-26.3c6.3-14.9,6.2-33.5,5.4-49.4
			c-0.4-8.8-1.4-17.6-3-26.3c-1.2-6.4-1.8-14.8-6.1-20c-2.4-2.9-5.8-4.8-9-2c-0.4,0.4-0.4,1.2,0,1.6c9.2,8,18.4,16,27.7,24
			c0.2-0.6,0.3-1.3,0.5-1.9c-9.6,2.5-19.3,4.9-28.9,7.4c-0.9,0.2-1.1,1.6-0.3,2.1c10.7,5.8,21.5,11.5,32.2,17.3
			c0.2-0.7,0.4-1.4,0.6-2.1c-8,0.5-16.1,1-24.1,1.5c-0.8,0-1.5,0.9-1,1.7c6.9,10.8,15.4,20.4,25.2,28.6c0.1-0.6,0.2-1.2,0.2-1.8
			c-7.5,3.5-15.4,5.4-23.7,5.6c-0.8,0-1.5,1-1,1.7c5.2,7.9,10.3,15.7,15.5,23.6c0.2-0.6,0.4-1.1,0.7-1.7
			c-32.5,9.4-65.4,19-95.5,34.8c-25.3,13.3-55.5,33.1-62.5,62.8c-2.5,10.6-1.6,25.9,13,24.4c7.8-0.8,15.6-4.5,23-7
			c9.2-3.1,18.4-6.1,27.7-9.1c36.6-11.8,73.5-22.9,110.6-33.3c36.8-10.3,73.7-19.8,110.9-28.6c11.7-2.8,31-4.4,27.6-21.1
			c-1.4-7-5.7-13-10-18.5c-4.5-6-9.4-11.9-14.9-17c-9.6-9.1-21.7-16.3-35.2-16.7c-11.4-0.3-23.6,3.8-30.7,13.1
			c-7.4,9.7-6.7,22.9-0.6,33.1c7,11.8,19.8,17.9,33.2,18.7c12,0.7,31.4-1.8,37.2-14.2c5.8-12.3-4.1-27.2-11.5-36.5
			c-7.5-9.5-19.1-17.6-31.4-12.2c-10.5,4.5-11.7,16.3-5,24.7c4.2,5.3,10.1,9.1,16,12.3c1.3,0.7,2.4-1.2,1.1-1.9
			c-9.4-5.1-28.4-19.4-15-30.7c12.4-10.5,27.1,1.6,34.5,11.7c7.9,10.9,18.1,29.5,2.5,38.8c-11.7,6.9-28.8,7.8-41.3,3.2
			c-12.6-4.6-22.6-16.5-22.8-30.2c-0.2-12.7,9.1-22.2,20.7-25.8c26.9-8.2,48.7,13.7,63.2,33.5c3.9,5.3,8.3,11.8,8.1,18.7
			c-0.2,9.6-10.4,11.4-17.9,13.1c-15.1,3.5-30.2,7.2-45.3,11c-30.1,7.6-60.1,15.6-90,24.1c-30.2,8.6-60.2,17.7-90.1,27.3
			c-15.1,4.8-30.1,9.8-45.2,14.9c-6.2,2.1-15.6,5.6-19.8-1.7c-3.6-6.2-1.4-15.3,0.7-21.6c9.4-28.7,40.1-47.3,65.7-59.9
			c28.5-14.1,59.2-23,89.6-31.9c0.7-0.2,1.1-1,0.7-1.7c-5.2-7.9-10.3-15.7-15.5-23.6c-0.3,0.6-0.6,1.1-1,1.7
			c8.7-0.3,17-2.3,24.9-5.9c0.6-0.3,0.8-1.3,0.2-1.8c-9.7-8.1-18-17.5-24.9-28.2c-0.3,0.6-0.6,1.1-1,1.7c8-0.5,16.1-1,24.1-1.5
			c1.1-0.1,1.6-1.5,0.6-2.1c-10.7-5.8-21.5-11.5-32.2-17.3c-0.1,0.7-0.2,1.4-0.3,2.1c9.6-2.5,19.3-4.9,28.9-7.4
			c0.8-0.2,1.1-1.3,0.5-1.9c-9.2-8-18.4-16-27.7-24c0,0.5,0,1.1,0,1.6c5.6-4.9,9.1,10.1,9.7,12.8c1.5,6.6,2.7,13.2,3.5,19.9
			c1.4,12.1,1.7,24.2,0.8,36.3c-0.8,11.3-2.1,23.6-8.8,33.1c-6.5,9-16.8,14.5-26.9,18.7c-32.5,13.3-72.8,18.3-96.6,46.8
			c-12.1,14.4-17.3,33.6-14.8,52.2c1.2,8.6,3.9,18.2,9.2,25.2c5,6.5,12.6,7.6,20.2,6.5c11.8-1.6,23.6-5.3,35.2-8.2
			c12.4-3,24.8-6.1,37.2-9.3c24.2-6.1,48.3-12.4,72.4-18.8c55.1-14.8,110-30.5,164.6-47.1c0.5-0.1,0.8-0.6,0.8-1.1
			c-2.3-56.9-56.6-92.4-78.5-141.1c-8.5-18.9-12.8-39.3-16.4-59.7c-0.1-0.4-0.6-0.9-1.1-0.8c-37.4,4.4-74.1,13.3-109.4,26.6
			C942.7,1417.9,943.3,1420.1,944.6,1419.6L944.6,1419.6z"/>
	</g>
</g>
<g>
	<g>
		<linearGradient id="SVGID_13_" gradientUnits="userSpaceOnUse" x1="699.8217" y1="1254.4534" x2="923.7433" y2="1254.4534">
			<stop  offset="0" style="stop-color:#92E1FF"/>
			<stop  offset="0.3605" style="stop-color:#F4B8FF"/>
			<stop  offset="0.7561" style="stop-color:#F1F3FF"/>
			<stop  offset="0.7808" style="stop-color:#ECECFF"/>
			<stop  offset="0.9988" style="stop-color:#C5B6FF"/>
		</linearGradient>
		<path class="st12" d="M723.1,1178.1c41.1-7.6,82.9-12.6,124.7-14.3c8.6-0.4,18.1-0.5,25.7,4.2c8.2,5,11.1,14.6,13.9,23.2
			c6.6,19.9,13.2,39.9,19.8,59.8c7.1,21.5,16.7,43.9,14.8,67c0.6-0.3,1.1-0.6,1.7-1c-25.3-12.5-52.5-20.8-80.5-24.3
			c-14.2-1.8-28.5-2.4-42.7-1.7c-12.5,0.6-25.5,1.7-37.4,5.7c-10.2,3.4-20.6,9.5-25.7,19.4c-4.5,8.6-3.2,18.6,5.4,23.9
			c9.6,5.9,23.2,6,34.1,6.8c14.5,1.1,29.1,1.2,43.7,0.2c32.8-2.2,65.2-9.8,95.6-22.5c1.3-0.5,0.9-2.5-0.6-2.2
			c-46.6,10.7-94.1,17.4-141.9,19.9c-11.6,0.6-23.3,1-35,1.1c-10.2,0.1-25.5,2.5-32.3-7c-5.9-8.2-4.8-20.8-4.9-30.4
			c-0.1-11.7,0.3-23.5,1.2-35.2c2.2-26.5,7.3-52.6,14.9-78c-0.5,0.3-0.9,0.5-1.4,0.8c12.5,5.1,11.5,25.2,25.9,27.9
			c6.5,1.2,13-2.4,16.9-7.4c5.6-7.1,6.2-16.6,6.7-25.2c-0.7,0.2-1.4,0.4-2.1,0.6c4.5,9.2,13.2,23.2,25.3,21.8
			c5.6-0.6,9.6-4.5,12.5-9.1c3.9-6.1,7.6-16.6,16.2-17c8.3-0.4,9.4,10.2,14.7,14.6c3.5,3,8.2,4.5,12.8,4.7c4.9,0.1,10-1.3,13.8-4.4
			c4.7-3.7,5.7-9.9,9.9-13.9c4.3-4.3,7.3,0.7,11.1,2.5c2.3,1.1,4.7,0.8,7-0.2c7-3.4,6.8-11.9,6.1-18.5c-0.1-1.4-2.4-1.4-2.2,0
			c0.4,3.6,0.8,7.5-0.3,11.1c-0.8,2.5-3,5.1-5.6,5.8c-3.4,0.9-5.3-1.5-7.7-3.3c-2.8-2.1-5.8-2.4-8.7-0.1c-3.8,3-5.2,8-7.9,11.8
			c-3.5,4.9-9.5,7.1-15.4,6.9c-6.1-0.2-11.6-3.1-14.8-8.3c-2.4-4-4-8.9-8.8-10.6c-10.6-3.8-17.1,9.5-21.4,16.5
			c-4.7,7.8-12.4,12-20.7,6.5c-6.4-4.2-10.7-11.3-14-18.1c-0.5-1.1-2-0.5-2.1,0.6c-0.5,8.5-1.1,18.4-7.2,25
			c-6.2,6.7-15.7,7.6-21.7,0.2c-6.1-7.5-8-18.7-17.8-22.6c-0.6-0.2-1.2,0.3-1.4,0.8c-7.2,23.8-12.1,48.2-14.5,73
			c-1.2,12.3-1.8,24.7-1.8,37c0,9.8-0.8,21,2.7,30.4c2.9,7.9,9.3,11.8,17.5,12.8c12,1.4,24.8,0.3,36.8,0c25.2-0.8,50.5-2.7,75.5-5.8
			c28.4-3.5,56.6-8.5,84.5-14.9c-0.2-0.7-0.4-1.4-0.6-2.2c-48.2,20-101.3,27.4-153.1,20.7c-11.3-1.5-28.3-5-25.1-20.3
			c2.7-12.9,16.3-20.7,27.8-24.3c22.8-7.1,49.2-6.5,72.7-4c29.4,3.1,58.1,11.5,84.6,24.6c0.8,0.4,1.6-0.1,1.7-1
			c1.8-21.1-6.1-41.3-12.7-61c-7.1-21.5-14.2-43-21.4-64.4c-2.5-7.6-4.8-15.8-10.2-22c-5.1-5.8-12.5-8.1-20-8.8
			c-10.1-1-20.5,0.2-30.5,0.9c-11.1,0.7-22.1,1.6-33.1,2.8c-24.7,2.5-49.4,6.1-73.8,10.6C721,1176.2,721.7,1178.4,723.1,1178.1
			L723.1,1178.1z"/>
	</g>
</g>
<g>
	<g>
		<linearGradient id="SVGID_14_" gradientUnits="userSpaceOnUse" x1="968.0728" y1="1254.483" x2="1168.6561" y2="1254.483">
			<stop  offset="0" style="stop-color:#5900FF"/>
			<stop  offset="0.3605" style="stop-color:#00EDFF"/>
			<stop  offset="0.5751" style="stop-color:#8DEFCF"/>
			<stop  offset="0.7561" style="stop-color:#FFF1A7"/>
			<stop  offset="0.7594" style="stop-color:#FFEEA5"/>
			<stop  offset="0.926" style="stop-color:#EB652F"/>
			<stop  offset="0.9988" style="stop-color:#E32E00"/>
		</linearGradient>
		<path class="st13" d="M969.6,1245.7c2.3-23.3,3.3-47.6,12.1-69.6c-0.6,0.2-1.3,0.3-1.9,0.5c9.7,11.2,15.6,25.2,25.3,36.4
			c10.2,11.7,24.1,16.7,39.4,16.1c8.1-0.3,16.2-1.8,24.1-3.6c5.3-1.2,13.3-1.8,15.2-7.9c1.1-3.4,0.6-7.3,0.6-10.8
			c0-5.2,0.1-10.4,0.1-15.7c0.1-10.4,0.1-20.9,0.2-31.3c-0.6,0.3-1.1,0.6-1.7,1c6.7,4.6,11.5,11,16.2,17.5c4.3,5.9,8.8,11.5,13.6,17
			c10.6,11.9,22.3,22.8,32.3,35.2c18.6,23.1,32.1,57.4,11.5,83.7c-17.5,22.3-49.8,30.9-76.8,33.2c-29.1,2.5-61-3.5-82.4-24.7
			c-10.6-10.5-18.4-24.1-21.6-38.7c-1.6-7.2-2-14.6-1-21.9c0.5-3.6,1.3-7.1,2.5-10.5c0.7-2.1,1.5-4.2,2.5-6.1
			c0.4-0.8,0.8-1.5,1.4-2.1c0.5-0.9,1.1-1.5,2.1-1.8c2-1.9,3.8-1.1,5.5,2.6c-0.3,1.4,1.9,2,2.2,0.6c0.9-4.3-3.5-7.5-7.5-6
			c-5.3,1.9-7.4,9.4-8.9,14.2c-4.1,13.6-2.9,28.3,2.1,41.5c11.2,30,38.3,48.8,69.3,54c16.8,2.8,34,2.1,50.7-1.1
			c15.6-3,31.1-7.9,44.6-16.5c12.2-7.7,22.3-18.8,26.3-32.9c4.4-15.6,0.7-32.2-6.2-46.5c-8.8-18.3-23.4-32.8-37.2-47.4
			c-7.8-8.2-15.3-16.5-22-25.6c-5.3-7.2-10.5-14.4-17.9-19.6c-0.7-0.5-1.7,0.2-1.7,1c-0.1,17.6,0.4,35.3-0.3,52.8
			c-0.1,2.8,0,5.3-2.7,7.3c-1.6,1.2-3.9,1.6-5.8,2c-3.5,0.9-7,1.7-10.5,2.4c-7.7,1.6-15.6,2.7-23.5,2.5c-15.8-0.5-28-8.2-37.1-20.8
			c-7.4-10.2-12.9-21.6-21.1-31.1c-0.6-0.7-1.6-0.2-1.9,0.5c-8.8,22.2-9.9,46.7-12.2,70.2C967.2,1247.2,969.4,1247.1,969.6,1245.7
			L969.6,1245.7z"/>
	</g>
</g>
<g>
	<g>
		<linearGradient id="SVGID_15_" gradientUnits="userSpaceOnUse" x1="23.8557" y1="772.2469" x2="107.0027" y2="772.2469">
			<stop  offset="0" style="stop-color:#FFF41B"/>
			<stop  offset="0.5232" style="stop-color:#F43BE9"/>
			<stop  offset="0.5907" style="stop-color:#EA3BEC"/>
			<stop  offset="0.9988" style="stop-color:#B43EFF"/>
		</linearGradient>
		<path class="st14" d="M26.3,707.5c-5.1,8-3,18.8-2.4,27.8c0.8,12.4,1.9,24.7,3.2,37.1c2.6,23.8,6.1,47.5,10.5,71
			c0.2,1.1,1.5,1,2.1,0.3c11.4-15.4,22.9-30.9,34.3-46.3c5.5-7.5,11.1-14.9,16.6-22.4c2.8-3.7,5.5-7.5,8.3-11.2
			c2.6-3.5,6.3-7.2,8.1-11.2c2.2-4.6-1.4-7.4-5.3-9.2c-7.8-3.8-15.8-7.3-23.5-11.4c-7.7-4-15.3-8.3-22.8-12.7
			c-3.7-2.2-7.4-4.5-11.1-6.9c-4.5-2.9-9.7-5.6-11.1-11.2c-0.4-1.4-2.5-0.8-2.2,0.6c1.5,6.2,7.1,9.3,12.2,12.5
			c6.8,4.3,13.7,8.5,20.8,12.5c7.6,4.3,15.3,8.3,23.1,12.1c3.9,1.9,7.9,3.7,11.8,5.6c1.3,0.6,2.9,1,4,2c4.4,3.8,1.4,6.2-0.6,9
			c-21.5,29-43,58-64.5,87.1c0.7,0.1,1.4,0.2,2.1,0.3c-4.2-22.7-7.7-45.5-10.2-68.5c-1.2-11-2.2-22.1-3-33.2
			c-0.4-5.5-0.8-11.1-1-16.6c-0.3-5.5-0.3-11,2.8-15.9C29,707.4,27.1,706.2,26.3,707.5L26.3,707.5z"/>
	</g>
</g>
<g>
	<g>
		<path class="st15" d="M53.2,303.2c24.3,25.2,45.9,53,64,82.9c2.3,3.8,4.5,7.6,6.7,11.4c0.7,1.3,2.6,3.9,2.7,5.3
			c0.2,3.2-3.6,4.2-5.8,5.2c-7.6,3.8-15,8-22.2,12.6c-14.2,9-27.5,19.5-39.8,31.1c0.6,0.2,1.3,0.3,1.9,0.5
			c-6.5-30.4-8-61.5-9.8-92.4c-0.9-15.2-1.9-30.5-3.7-45.6c-0.3-2.1-0.1-7.9-3.5-7.8c-2.1,0.1-2.8,2.2-1.6,3.7
			c0.9,1.1,2.5-0.5,1.6-1.6c1.9,2.3,1.6,8.4,1.9,11.4c0.3,2.8,0.6,5.7,0.8,8.5c0.5,6,1,12,1.4,18.1c0.8,12.1,1.4,24.1,2.2,36.2
			c1.5,23.5,3.5,47,8.5,70.1c0.2,0.9,1.3,1,1.9,0.5c14-13.3,29.4-25,46.1-34.9c4-2.4,8.2-4.7,12.3-6.9c2.7-1.4,7-2.6,9-5
			c3.9-4.7-3.6-13.2-6-17.1c-18.8-31.8-41.4-61.4-67.1-87.9C53.8,300.5,52.2,302.1,53.2,303.2L53.2,303.2z"/>
	</g>
</g>
<g>
	<g>
		<linearGradient id="SVGID_16_" gradientUnits="userSpaceOnUse" x1="841.682" y1="588.3959" x2="915.1566" y2="588.3959">
			<stop  offset="0" style="stop-color:#E77AEB"/>
			<stop  offset="0.3605" style="stop-color:#EACDA6"/>
			<stop  offset="0.7561" style="stop-color:#ECDFF1"/>
			<stop  offset="0.8363" style="stop-color:#F3C2E9"/>
			<stop  offset="0.9988" style="stop-color:#FF8CD9"/>
		</linearGradient>
		<path class="st16" d="M853.1,620.8c6.2-14.5,13.6-28.5,22.4-41.6c2.3-3.4,4.6-6.8,7.1-10c2.2-3,4.5-7.5,7.6-9.6
			c7-4.8,9.3,3.6,11.1,8.1c1.7,4.2,3.4,8.3,5,12.5c1.7,4.2,3.4,8.3,5,12.5c0.6,1.5,1.2,2.9,1.7,4.5c0.9,3.3,0.2,6.7-2.9,8.8
			c-1.7,1.2-5.7,0.9-7.9,1.2c-1.8,0.2-3.5,0.4-5.3,0.5c-4.1,0.4-8.3,0.7-12.4,1c-14.8,1.2-29.6,2.8-43.3,9.1
			c-1.3,0.6-0.2,2.5,1.1,1.9c15.2-6.9,31.9-8,48.3-9.3c8.6-0.7,27.7,1.1,24.8-12.4c-1.6-7.5-5.7-14.8-8.5-21.9
			c-2.3-5.7-4.1-13.5-8.4-18.1c-2.6-2.8-6.1-3.2-9.2-0.8c-5.1,4.1-9.3,11.3-13,16.6c-10,14.4-18.5,29.8-25.4,46
			C850.6,621,852.5,622.1,853.1,620.8L853.1,620.8z"/>
	</g>
</g>
<g>
	<g>
		<linearGradient id="SVGID_17_" gradientUnits="userSpaceOnUse" x1="623.1859" y1="145.8732" x2="681.6111" y2="145.8732">
			<stop  offset="0" style="stop-color:#5900FF"/>
			<stop  offset="0.3605" style="stop-color:#00EDFF"/>
			<stop  offset="0.5751" style="stop-color:#8DEFCF"/>
			<stop  offset="0.7561" style="stop-color:#FFF1A7"/>
			<stop  offset="0.7594" style="stop-color:#FFEEA5"/>
			<stop  offset="0.926" style="stop-color:#EB652F"/>
			<stop  offset="0.9988" style="stop-color:#E32E00"/>
		</linearGradient>
		<path class="st17" d="M630.9,180.5c3.9-24.2,8.5-48.3,14-72.3c-0.7,0.1-1.4,0.2-2.1,0.3c11.7,17.4,22.9,35.2,33.7,53.2
			c1.6,2.6,4.5,7.2,1.1,9.4c-1.8,1.2-4.9,1.2-6.9,1.6c-5.2,1.1-10.4,2.2-15.6,3.3c-10.7,2.2-21.5,4.5-32.2,6.7
			c-1.4,0.3-0.8,2.5,0.6,2.2c12.7-2.6,25.4-5.3,38-7.9c5.4-1.1,11.7-1.6,16.9-3.7c2.4-1,4.2-2.6,3.8-5.3c-0.5-4.2-4.7-8.8-6.8-12.4
			c-3.2-5.2-6.4-10.5-9.6-15.7c-6.8-10.9-13.9-21.8-21-32.5c-0.5-0.8-1.8-0.7-2.1,0.3c-5.5,23.9-10.1,48-14,72.3
			C628.5,181.3,630.7,182,630.9,180.5L630.9,180.5z"/>
	</g>
</g>
<g>
	<g>
		<linearGradient id="SVGID_18_" gradientUnits="userSpaceOnUse" x1="586.1531" y1="1229.4037" x2="656.3765" y2="1229.4037">
			<stop  offset="0" style="stop-color:#FFA192"/>
			<stop  offset="0.3605" style="stop-color:#FF54B9"/>
			<stop  offset="0.7548" style="stop-color:#AD8CE0"/>
			<stop  offset="0.8408" style="stop-color:#A6ACD2"/>
			<stop  offset="0.9988" style="stop-color:#9BE2BB"/>
		</linearGradient>
		<path class="st18" d="M593.7,1194.7c16.4,12,37.4,15.9,57.1,10.8c-0.5-0.4-0.9-0.7-1.4-1.1c1.7,13.6,3.1,27.2,4.2,40.9
			c0.3,3.2,0.5,6.5,0.7,9.8c0.1,1.6,0.2,3.3,0.3,4.9c0.2,2.4,0.1,4.1-3.1,3.9c-3.4-0.1-7.4-4.1-9.8-6c-2.7-2.2-5.3-4.4-8-6.7
			c-9.5-8-19-16.1-27.8-24.8c-8.5-8.3-16-17.8-18.2-29.8c-0.3-1.4-2.4-0.8-2.2,0.6c3.1,16.7,16.1,28.5,28.1,39.4
			c7.5,6.8,15.1,13.4,22.9,19.8c5.6,4.7,11.9,11.3,19.9,9.5c0.5-0.1,0.9-0.6,0.8-1.1c-1.2-20.2-3-40.3-5.5-60.4
			c-0.1-0.7-0.6-1.3-1.4-1.1c-19.1,5-39.4,1-55.3-10.6C593.6,1191.9,592.5,1193.9,593.7,1194.7L593.7,1194.7z"/>
	</g>
</g>
<g>
	<g>
		<linearGradient id="SVGID_19_" gradientUnits="userSpaceOnUse" x1="421.2744" y1="1362.4094" x2="483.23" y2="1362.4094">
			<stop  offset="0" style="stop-color:#FFA192"/>
			<stop  offset="0.3605" style="stop-color:#FF54B9"/>
			<stop  offset="0.7548" style="stop-color:#AD8CE0"/>
			<stop  offset="0.8408" style="stop-color:#A6ACD2"/>
			<stop  offset="0.9988" style="stop-color:#9BE2BB"/>
		</linearGradient>
		<path class="st19" d="M422.6,1401.4c17.5-25.3,33.4-51.8,47.4-79.2c-0.7-0.1-1.4-0.2-2.1-0.3c3.8,9.1,7.6,18.3,11.3,27.4
			c0.6,1.5,1.7,3.4,2,5c0.9,4.8-2.3,6.2-5.3,8.3c-3.6,2.5-7.3,4.9-10.8,7.5c-14.4,10.2-28.4,21-42,32.3c-1.1,0.9,0.5,2.5,1.6,1.6
			c16.3-13.6,33.3-26.4,50.9-38.3c5.3-3.6,10-6.3,7.4-13.2c-3.9-10.5-8.6-20.7-12.8-31.1c-0.3-0.8-1.6-1.2-2.1-0.3
			c-14.1,27.4-29.9,53.8-47.4,79.2C419.8,1401.5,421.7,1402.6,422.6,1401.4L422.6,1401.4z"/>
	</g>
</g>
<g>
	<g>
		<linearGradient id="SVGID_20_" gradientUnits="userSpaceOnUse" x1="210.0509" y1="1275.0977" x2="399.2909" y2="1275.0977">
			<stop  offset="0" style="stop-color:#FFA192"/>
			<stop  offset="0.3605" style="stop-color:#FF54B9"/>
			<stop  offset="0.7548" style="stop-color:#AD8CE0"/>
			<stop  offset="0.8408" style="stop-color:#A6ACD2"/>
			<stop  offset="0.9988" style="stop-color:#9BE2BB"/>
		</linearGradient>
		<path class="st20" d="M210.1,1389.3c40-2.2,71.7-30.3,97.7-58.2c14-15,28.4-30.7,37.4-49.4c9.5-19.9,9.8-41.1,6.3-62.5
			c-0.5-3.1-1.1-6.2-1.7-9.3c-0.5-2.7-2.9-8.6-2.3-11.1c0.7-2.8,5-4.5,7.3-6.1c2.7-1.8,5.5-3.7,8.2-5.5c12-8.1,24.1-16.2,36.1-24.3
			c-0.6-0.3-1.1-0.6-1.7-1c4.1,70.4-39.3,131.6-91.9,173.9c-15.1,12.1-31.1,23.1-47.5,33.4c-1.2,0.8-0.1,2.7,1.1,1.9
			c57.8-36.2,113.1-84.1,133.5-151.6c5.6-18.6,8.2-38.1,7-57.5c0-0.8-0.9-1.5-1.7-1c-17.5,11.8-35,23.6-52.5,35.3
			c-0.4,0.3-0.6,0.8-0.5,1.3c3.9,18.1,7.9,36.7,6.1,55.3c-1.8,18-9.9,34-20.6,48.3c-9.8,13.2-21.2,25.4-32.7,37.1
			c-11.4,11.6-23.6,22.5-37.4,31.3c-15.2,9.8-32.2,16.4-50.4,17.4C208.6,1387.2,208.6,1389.4,210.1,1389.3L210.1,1389.3z"/>
	</g>
</g>
<g>
	<g>
		<linearGradient id="SVGID_21_" gradientUnits="userSpaceOnUse" x1="801.5215" y1="993.3427" x2="981.7346" y2="993.3427">
			<stop  offset="0" style="stop-color:#00FFAD"/>
			<stop  offset="0.2358" style="stop-color:#3FC0A5"/>
			<stop  offset="0.7664" style="stop-color:#C83794"/>
			<stop  offset="0.9988" style="stop-color:#FF008D"/>
		</linearGradient>
		<path class="st21" d="M820.7,1084.7c-6.4,0.1-9.3-9.4-11.1-14.2c-1.8-4.8-3.3-9.8-4.3-14.9c-2.1-10-2.6-20.4-1.9-30.6
			c1.6-21,8.8-41.5,20.2-59.2c22.8-35.3,61.2-58,100.6-70.2c5.9-1.8,14.6-5.7,20.4-2.4c5.7,3.3,9.2,12,12.6,17.4
			c7.7,12.3,15.3,24.7,23,37c0.2-0.6,0.4-1.1,0.7-1.7c-26.5,10.3-49.7,27.1-70.3,46.6c-10.8,10.2-20.9,21-30.8,32.1
			c-9.4,10.5-19.4,21-27.3,32.7c-7.7,11.4-14,26.2-5.8,38.9c0.8,1.2,2.7,0.1,1.9-1.1c-10.5-16.4,4-35.5,14.5-47.8
			c11.2-13.2,22.5-26.2,34.5-38.7c24-25,51.2-47.8,83.8-60.5c0.6-0.3,1.1-1,0.7-1.7c-8-12.9-16-25.8-24-38.7
			c-5.1-8.3-9.6-19.3-21.1-17.9c-11.3,1.4-23.2,6.5-33.6,10.8c-10.6,4.4-21,9.5-30.8,15.6c-38.9,24-68.3,62.9-71.5,109.5
			c-0.9,12.2,0.2,24.6,3.5,36.4c2.1,7.5,6,24.8,16.2,24.7C822.1,1086.9,822.1,1084.7,820.7,1084.7L820.7,1084.7z"/>
	</g>
</g>
<g>
	<g>
		<linearGradient id="SVGID_22_" gradientUnits="userSpaceOnUse" x1="367.2955" y1="219.9826" x2="598.6441" y2="219.9826">
			<stop  offset="0" style="stop-color:#DAECFD"/>
			<stop  offset="0.3605" style="stop-color:#FBFBF9"/>
			<stop  offset="0.7561" style="stop-color:#FEFDC6"/>
			<stop  offset="0.9988" style="stop-color:#FFD3B8"/>
		</linearGradient>
		<path class="st22" d="M519.6,95.3c2.8-13,13.3-24.3,26.6-26.6c13.1-2.3,24.6,6.3,28,18.7c3.9,14-4.7,24.7-18.1,28.2
			c-7.2,1.9-14.7,2.1-22.1,2.5c-8.6,0.5-17.2,1-25.9,1.5c-34.8,2-69.6,4-104.4,5.9c-4,0.2-8,0.5-11.9,0.7c-4.2,0.2-8.9,1-13-0.3
			c-7.9-2.5-10.1-12.8-10-20c0.2-14.4,9.4-27.7,20.8-35.8c12.8-9.1,28.8-12.5,44.1-14.1c16.1-1.7,32.5-2.3,48.7-2.6
			c17-0.4,34-0.2,51,0.4c8.5,0.3,17,0.8,25.5,1.4c8.4,0.6,19-0.1,26.7,3.7c14.8,7.2,12.5,26.8,7.8,39.4c-5.5,14.9-12,29-16.1,44.5
			c-4,15-6.5,30.3-7.5,45.7c-0.5,8.1-0.5,16.1-0.4,24.2c0.1,6.6,0.1,14.7-4.9,19.8c-5,5-13,4.4-18.9,7.9c-4,2.3-6.8,5.9-8.7,10.1
			c-4.4,9.7-3.8,21.2-3.4,31.6c1.1,30.4-5.6,60.5-20.6,87.1c-3.6,6.4-7.6,12.5-12.1,18.3c0.7,0.1,1.4,0.2,2.1,0.3
			c-5.1-12.8-11.2-25.1-18.2-37c-0.4-0.7-1.2-0.7-1.8-0.2c-8.4,7.2-16.8,14.4-25.2,21.6c0.5,0,1.1,0,1.6,0
			c-25.7-26.5-32.2-65.7-40.5-100.2c-4.9-20.3-9.6-40.7-14.1-61.1c-2.1-9.4-4.4-18.9-6.1-28.4c-1.3-7.6-2.1-16,0.1-23.5
			c2.8-9.2,10.4-15.1,20.1-15.2c9.6-0.1,18,5,24.3,11.8c12.8,14,22.7,35.7,20.5,54.9c-1,8.3-4.6,16.2-10.5,22.1
			c-3.1,3.1-6.8,5.7-10.9,7.2c-1.3,0.5-5.1,2-6.3,1.5c-1.4-0.6-1.3-3.1-1.2-4.5c0.2-15.9,21.7-24.7,34.6-18.4
			c16.2,8,21.8,28.7,20.6,45.4c-1.2,16.6-10.9,37.1-29.7,38.5c-1.2,0.1-1.6,1.8-0.3,2.2c24.2,7.1,47-11.8,56.5-32.8
			c6.1-13.4,8.6-28,11-42.5c2.6-15.6,5.6-31.1,10.4-46.3c5.5-17.5,12.7-34.3,21.6-50.3c0.7-1.3-1.2-2.4-1.9-1.1
			c-8.8,15.9-16,32.6-21.5,50c-5.6,17.7-8.6,35.8-11.8,54.1c-3.1,17.7-7.2,36.6-19.4,50.5c-10.9,12.5-27.5,21.1-44.2,16.2
			c-0.1,0.7-0.2,1.5-0.3,2.2c24.9-1.8,34.2-32,31.6-53c-2.6-21.2-19.8-45.7-43.8-35c-10.2,4.5-18.2,14.9-14.5,26.3
			c0.1,0.4,0.6,0.9,1.1,0.8c10.6-0.7,19.5-6.9,25.2-15.7c6.8-10.4,7.8-23.1,5.1-35.1c-4.7-21.5-22-53.6-48.1-51.3
			c-26.9,2.4-21.8,34.4-17.9,52.7c7.1,32.9,14.6,65.6,22.7,98.2c7.1,28.9,14.9,59.2,36.2,81.2c0.4,0.5,1.1,0.4,1.6,0
			c8.4-7.2,16.8-14.4,25.2-21.6c-0.6-0.1-1.2-0.2-1.8-0.2c6.9,11.7,12.9,23.9,18,36.5c0.4,0.9,1.4,1.1,2.1,0.3
			c19.7-26,31.3-57.7,33-90.3c0.7-14.3-2.4-29.6,2-43.6c2.4-7.6,7.2-12.5,14.9-14.8c6.1-1.8,12.2-2.9,15.8-8.7
			c3.2-5.3,3.4-11.9,3.4-17.9c-0.1-8.9-0.2-17.8,0.5-26.7c1.4-18.6,5-37,10.6-54.8c2.9-9,6.4-17.6,10.1-26.3
			c3.1-7.3,6.1-14.9,6.5-22.9c0.7-12-5.2-24.4-17.5-27.4c-8.3-2-17.4-1.9-25.9-2.5c-9.8-0.6-19.6-1.1-29.4-1.4
			c-19.3-0.6-38.6-0.5-57.9,0.2c-30.3,1.2-68.7,0.7-90.3,25.9c-8.4,9.8-13.7,23-11.1,36c1.1,5.6,3.9,11.5,9.2,14.1
			c6.5,3.1,15.5,1.1,22.3,0.7c39.4-2.2,78.9-4.5,118.3-6.7c9.3-0.5,18.7-0.8,28-1.7c6.7-0.6,13.5-1.7,19.5-4.8
			c10-5.2,14.6-15.5,12.2-26.4c-2.1-9.8-9.4-18.9-19.4-21.6c-11.7-3.1-24.2,2.5-31.9,11.4c-4.1,4.7-6.8,10.3-8.1,16.4
			C517.1,96.1,519.3,96.7,519.6,95.3L519.6,95.3z"/>
	</g>
</g>
<g>
	<g>
		<linearGradient id="SVGID_23_" gradientUnits="userSpaceOnUse" x1="611.4324" y1="191.1664" x2="1023.6748" y2="191.1664">
			<stop  offset="0" style="stop-color:#5900FF"/>
			<stop  offset="0.3605" style="stop-color:#DE009F"/>
			<stop  offset="0.5751" style="stop-color:#D48D9A"/>
			<stop  offset="0.7561" style="stop-color:#CBFF96"/>
			<stop  offset="0.7684" style="stop-color:#C0FD9B"/>
			<stop  offset="0.9287" style="stop-color:#37E3DB"/>
			<stop  offset="0.9988" style="stop-color:#00D9F5"/>
		</linearGradient>
		<path class="st23" d="M716.5,214c-0.2-29.9,0.7-59.8,2.9-89.7c1.1-14.8,2.4-29.5,4-44.2c0.7-6.4,1.3-13.3,4.8-18.9
			c3.9-6.2,10.7-8.7,17.6-10c13.7-2.5,28.2-2.8,42.1-3.8c15.1-1.1,30.3-2.1,45.5-2.9c29.7-1.5,59.4-2.4,89.1-2.7
			c33.7-0.3,67.4,0.3,101,1.7c-0.4-0.4-0.8-0.8-1.1-1.1c-0.7,62.5-4.2,124.9-10.4,187.1c0.4-0.4,0.8-0.8,1.1-1.1
			c-54.6,2.3-109.3,1.6-163.9-2c-27.6-1.8-55.1-4.4-82.6-7.8c-12.9-1.6-25.9-4.2-38.9-4.8c-12.4-0.6-22.7,3.5-33.4,9.3
			c-27.5,14.6-54.8,29.5-82.2,44.2c-0.9,0.5-0.7,1.8,0.3,2.1c82.7,21,165.3,42,248,63.1c10.3,2.6,20.6,5.2,30.9,7.9
			c7.8,2,15.6,4.6,22.7-0.7c7-5.2,12.1-13.6,17.6-20.3c6.7-8.2,13.4-16.5,20.1-24.7c13.4-16.5,26.8-32.9,40.2-49.4
			c5.6-6.8,11.7-13.6,16.1-21.2c4.2-7.3,5.8-15.3,6.4-23.6c2.9-45.8-1.8-92.7-10.7-137.6c-0.1-0.4-0.6-0.9-1.1-0.8
			c-66.1,7-132.6,10.8-199.1,11.3c-18.9,0.1-37.7,0-56.6-0.4c-0.5,0-0.9,0.4-1.1,0.8c-7.9,21.9-12.6,44.9-13.6,68.2
			c-0.2,5.6-0.3,11.3-0.1,16.9c0.2,3.8,0.5,8.1,3,11.2c2.1,2.7,5.3,3.7,8.6,4.1c5.7,0.8,11.6,0.7,17.4,1.1
			c50.5,2.8,101.1,5.7,151.6,8.5c28.6,1.6,57.2,3.2,85.8,4.8c-0.3-0.6-0.5-1.3-0.8-1.9c-44.4,45.1-88.8,90.1-133.1,135.2
			c0.6,0.3,1.3,0.5,1.9,0.8c3.2-27.7,10-54.9,20.3-80.8c0.4-0.9-0.9-1.8-1.7-1.3c-24.4,16.1-48.8,32.2-73.2,48.3
			c0.5,0.5,1,1,1.5,1.5c11-19.8,25.1-37.5,42-52.6c1.1-1-0.5-2.5-1.6-1.6c-25.4,21.7-52.9,40.7-82.1,56.7c0.6,0.4,1.1,0.8,1.7,1.3
			c6.5-19.9,15.9-38.5,28-55.6c0.7-0.9-0.6-2.1-1.5-1.5c-21.4,12.8-42.2,26.5-62.4,41.2c0.6,0.4,1.1,0.8,1.7,1.3
			c2.8-15.3,8.9-29.5,18.2-41.9c0.7-0.9-0.6-2.1-1.5-1.5c-20.4,13.1-40.8,26.3-61.2,39.4c0.6,0.3,1.1,0.6,1.7,1
			c0.5-13.4,4.7-26,12.1-37.2c0.4-0.7,0-1.4-0.7-1.7c-4.6-1.9-9.1-3.8-13.7-5.6c-0.2,0.7-0.4,1.4-0.6,2.2
			c67.3,13.7,135.2,27.7,198.5,55.2c0.2-0.7,0.4-1.4,0.6-2.1C835.4,285,779,275,724.8,257.6c-1.2-0.4-1.9,1.4-0.9,2.1
			c33.3,20.4,69.3,35.8,107,45.7c1.4,0.4,2-1.8,0.6-2.2C794,293.3,758.2,278,725,257.7c-0.3,0.7-0.6,1.4-0.9,2.1
			c54.4,17.4,111,27.5,168.2,29.9c1.1,0,1.6-1.6,0.6-2.1c-63.5-27.6-131.5-41.7-199-55.4c-1.4-0.3-1.9,1.6-0.6,2.2
			c4.6,1.9,9.1,3.8,13.7,5.6c-0.2-0.6-0.4-1.1-0.7-1.7c-7.6,11.5-11.9,24.5-12.4,38.3c0,0.8,1,1.4,1.7,1
			c20.4-13.1,40.8-26.3,61.2-39.4c-0.5-0.5-1-1-1.5-1.5c-9.4,12.6-15.6,27-18.4,42.5c-0.2,0.9,0.8,1.9,1.7,1.3
			c20.1-14.7,41-28.5,62.4-41.2c-0.5-0.5-1-1-1.5-1.5c-12.2,17.2-21.7,36-28.2,56.1c-0.3,1,0.8,1.7,1.7,1.3
			c29.4-16.2,57.1-35.3,82.6-57.1c-0.5-0.5-1.1-1.1-1.6-1.6c-17,15.2-31.3,33.1-42.3,53.1c-0.5,0.9,0.6,2.2,1.5,1.5
			c24.4-16.1,48.8-32.2,73.2-48.3c-0.6-0.4-1.1-0.8-1.7-1.3c-10.4,26.1-17.2,53.5-20.4,81.4c-0.1,1,1.3,1.4,1.9,0.8
			c44.4-45.1,88.8-90.1,133.1-135.2c0.7-0.7,0.2-1.9-0.8-1.9c-80.5-4.5-160.9-9-241.4-13.5c-4.9-0.3-10.3,0-15-1.2
			c-6.8-1.6-7.5-7.9-7.7-13.8c-0.3-9.4,0.1-18.8,1-28.1c1-10.2,2.7-20.3,5.1-30.2c1-4.3,2.2-8.5,3.4-12.7c0.6-2.1,1.3-4.2,2-6.3
			c1.2-3.6,1.1-5,5.1-5.3c9.8-0.6,19.9,0.3,29.8,0.3c9.9,0,19.8,0,29.8-0.1c20.2-0.2,40.3-0.7,60.5-1.6c40-1.6,79.9-4.5,119.8-8.5
			c2.3-0.2,4.6-0.5,6.9-0.7c3.7-0.4,4.1-0.2,4.8,3.4c0.9,4.8,1.8,9.5,2.5,14.3c1.7,10.4,3.1,20.9,4.3,31.4c2.1,19.3,3.2,38.7,3.4,58
			c0.2,19,1.7,39.5-9.7,55.8c-11.2,16.1-24.8,30.8-37.1,46c-12.8,15.7-25.6,31.4-38.4,47.1c-5.2,6.4-11.1,16.8-19.5,19.4
			c-5.3,1.6-11.9-1-17.1-2.3c-5.1-1.3-10.3-2.6-15.4-3.9c-77.8-19.8-155.7-39.6-233.5-59.4c-9.7-2.5-19.3-4.9-29-7.4
			c0.1,0.7,0.2,1.4,0.3,2.1c24-12.9,47.9-25.8,71.9-38.7c11.6-6.2,23.4-13.9,36.9-14.6c13.5-0.7,27.4,2.7,40.7,4.4
			c52.9,6.6,106.2,10.4,159.6,11.3c30.3,0.5,60.6,0.2,90.9-1.1c0.7,0,1.1-0.5,1.1-1.1c6.2-62.2,9.7-124.6,10.4-187.1
			c0-0.6-0.5-1.1-1.1-1.1c-62.7-2.6-125.5-2.3-188.1,0.9c-15.8,0.8-31.6,1.8-47.4,3c-14.1,1-28.7,1.4-42.7,3.9
			c-10.6,2-18.9,7.4-21.9,18.2c-1.5,5.4-1.9,11.2-2.5,16.8c-0.8,7.8-1.6,15.7-2.3,23.6c-3.1,35.4-4.4,70.9-4.2,106.4
			C714.3,215.4,716.5,215.4,716.5,214L716.5,214z"/>
	</g>
</g>
<g>
	<g>
		<linearGradient id="SVGID_24_" gradientUnits="userSpaceOnUse" x1="5.1517" y1="997.4838" x2="382.8556" y2="997.4838">
			<stop  offset="0" style="stop-color:#92E1FF"/>
			<stop  offset="0.3605" style="stop-color:#F4B8FF"/>
			<stop  offset="0.7561" style="stop-color:#F1F3FF"/>
			<stop  offset="0.7808" style="stop-color:#ECECFF"/>
			<stop  offset="0.9988" style="stop-color:#C5B6FF"/>
		</linearGradient>
		<path class="st24" d="M134.9,1357.6c-47.6,8.1-84.5-38-103.4-75.6c-19.9-39.6-27.8-84.9-23.9-129c4-44.3,20.1-88.5,48.8-122.9
			c27.3-32.7,70-56.1,112.6-39.2c19.6,7.7,35,23.4,39.6,44.3c5.1,23.6-2.2,50.7-17.8,69c-14.5,17-36.3,24.5-57.5,16
			c-22.2-8.9-37.4-29.8-46.3-51.2c-18.2-44.3-13-95.1,0.9-139.8c12.2-39.4,32.1-76.3,57.6-108.7c50.9-64.6,124.2-112,204.9-128.9
			c10.2-2.1,20.6-3.8,31-4.9c1-0.1,1.7-1.6,0.6-2.1c-22-10.1-46-13.9-69.4-19.2c-23.7-5.4-47.6-12.8-64.9-30.8
			c-0.9-0.9-2.4,0.3-1.8,1.4c31.4,51.1,62.7,102.3,94.1,153.4c0.5,0.8,1.8,0.7,2.1-0.3c10.9-35.8,24.8-70.6,41.5-104
			c0.6-1.3-1.3-2.4-1.9-1.1c-16.8,33.6-30.7,68.6-41.7,104.6c0.7-0.1,1.4-0.2,2.1-0.3c-31.4-51.1-62.7-102.3-94.1-153.4
			c-0.6,0.5-1.2,0.9-1.8,1.4c35,36.3,91.5,30.5,134.7,50.4c0.2-0.7,0.4-1.4,0.6-2.1c-87.5,9.6-169,55-226.4,121.2
			c-28.4,32.7-51,70.5-65.4,111.4c-16.1,45.7-23.7,98.1-7.6,144.9c7.3,21.3,19.7,41.6,38.9,54.3c17.6,11.6,39.6,13.7,57.7,2
			c36.1-23.3,47.1-83.9,14.9-114.6c-14.1-13.4-33.7-20.2-52.9-20.6c-21.8-0.5-42.6,8.1-59.9,21c-36.7,27.3-59.7,71.7-69.8,115.5
			c-10.4,45-8,93.1,7.4,136.7c14.4,40.8,42.3,87.3,85.9,101.4c10.3,3.3,21,4.1,31.6,2.3C137,1359.5,136.4,1357.4,134.9,1357.6
			L134.9,1357.6z"/>
	</g>
</g>
<g>
	<g>
		<linearGradient id="SVGID_25_" gradientUnits="userSpaceOnUse" x1="222.2061" y1="1168.7444" x2="514.2523" y2="1168.7444">
			<stop  offset="0" style="stop-color:#5900FF"/>
			<stop  offset="0.3605" style="stop-color:#DE009F"/>
			<stop  offset="0.5751" style="stop-color:#D48D9A"/>
			<stop  offset="0.7561" style="stop-color:#CBFF96"/>
			<stop  offset="0.7684" style="stop-color:#C0FD9B"/>
			<stop  offset="0.9287" style="stop-color:#37E3DB"/>
			<stop  offset="0.9988" style="stop-color:#00D9F5"/>
		</linearGradient>
		<path class="st25" d="M222.9,1484.1c36.2-18.8,68.8-43.8,98.7-71.4c29.7-27.5,58.2-57.4,82.5-89.8c23.7-31.6,43.1-67.1,51.1-106.1
			c7.5-37,5-77-13-110.8c-15.5-29.2-45.8-55.4-80.8-52.7c-15.6,1.2-30.5,8.4-41.8,19.3c-11.1,10.7-20.4,26.8-19.9,42.7
			c0.5,16.3,15.1,22.7,29.5,22.7c16.2,0,33-5.2,47.8-11.4c30.4-12.8,56.9-34.6,75.4-62c39-57.9,34.5-137.1-7.9-192.1
			c-5.2-6.7-10.9-13-17.1-18.8c-0.7-0.6-2-0.2-1.9,0.8c1.2,25,2.5,50,3.7,75c0.1,1,1.2,1.4,1.9,0.8c23.9-20.9,51.9-36.6,82.1-46.4
			c1-0.3,1.1-1.9,0-2.2c-27.1-7.8-54.2-15.7-81.3-23.5c-1.4-0.4-2,1.8-0.6,2.2c27.1,7.8,54.2,15.7,81.3,23.5c0-0.7,0-1.4,0-2.2
			c-30.6,9.9-58.8,25.8-83.1,47c0.6,0.3,1.3,0.5,1.9,0.8c-1.2-25-2.5-50-3.7-75c-0.6,0.3-1.3,0.5-1.9,0.8
			c48.6,45.7,65.5,121.6,38.5,183c-13,29.6-35.1,54.9-62.1,72.4c-13.4,8.7-28.1,15.5-43.4,20c-14.2,4.1-33.1,8.9-46.9,1.3
			c-17.8-9.8-8.1-35,0.8-47.8c9.4-13.5,23.9-23.5,40-27.2c35-8.2,67.9,16.5,84.9,45.3c18.9,32.1,22.8,71.1,16.7,107.4
			c-6.3,37-23.2,71.1-44.5,101.7c-21.6,30.9-47.7,58.9-74.5,85.3c-27.3,26.8-56.6,51.7-89.2,71.8c-7.9,4.9-16,9.5-24.2,13.7
			C220.5,1482.8,221.7,1484.7,222.9,1484.1L222.9,1484.1z"/>
	</g>
</g>
<g>
	<g>
		<linearGradient id="SVGID_26_" gradientUnits="userSpaceOnUse" x1="511.1625" y1="1024.8757" x2="895.8556" y2="1024.8757">
			<stop  offset="0" style="stop-color:#5900FF"/>
			<stop  offset="0.3605" style="stop-color:#DE009F"/>
			<stop  offset="0.5751" style="stop-color:#D48D9A"/>
			<stop  offset="0.7561" style="stop-color:#CBFF96"/>
			<stop  offset="0.7684" style="stop-color:#C0FD9B"/>
			<stop  offset="0.9287" style="stop-color:#37E3DB"/>
			<stop  offset="0.9988" style="stop-color:#00D9F5"/>
		</linearGradient>
		<path class="st26" d="M673.2,1361.4c-35.2,13.1-70.5-12.3-93.6-36.7c-23.5-25-42.2-54.8-53.8-87.1c-11.4-31.5-16.1-65.7-11.1-98.9
			c4.7-31.5,18.5-66.6,47.6-83.1c15.8-9,33.9-9,50.6-2.4c16.8,6.7,33.6,18.4,44.2,33.3c9.7,13.5,13.4,30.9,6.2,46.4
			c-8.2,17.5-27,21.9-44.1,14.7c-16.4-6.9-29.7-21-39.5-35.5c-9.3-13.8-16-29.3-20.1-45.4c-8.7-34.1-5.6-69.8,5.6-102.9
			c12-35.4,32.6-67.5,56.6-96c23.8-28.3,51.4-53.3,81.9-74.1c7.5-5.1,15.1-9.9,22.9-14.5c-0.6-0.4-1.1-0.8-1.7-1.3
			c-5.6,22.5-11.1,45-16.7,67.5c-0.3,1.2,1,1.8,1.9,1.1c17.3-13.7,36-25.6,55.7-35.5c0.5-0.3,0.7-1.1,0.4-1.5
			c-10.7-14.7-23.7-27.4-38.7-37.7c-1.1-0.7-2.3,0.9-1.4,1.8c22.4,20.6,42.1,43.8,58.6,69.4c0.6,0.9,1.7,0.6,2.1-0.3
			c22.7-56.8,58.6-107.7,104.5-148.1c1-0.9-0.3-2.2-1.4-1.8c-35.4,15-70.9,30-106.3,44.9c-34.7,14.7-71.7,31.2-110.3,25.2
			c0,0.7,0,1.4,0,2.2c74.2-26.8,148.5-53.5,222.7-80.3c-0.3-0.7-0.6-1.4-0.9-2.1c-61.5,32-124.7,60.6-189.3,85.5
			c-0.6,0.2-0.9,0.7-0.8,1.4c5.3,26,8.3,52.5,8.8,79.1c0,1.4,2.3,1.5,2.2,0c-0.5-26.8-3.5-53.4-8.9-79.7c-0.3,0.5-0.5,0.9-0.8,1.4
			c64.8-25,128.2-53.7,189.9-85.8c1.1-0.6,0.3-2.5-0.9-2.1c-74.2,26.8-148.5,53.5-222.7,80.3c-0.9,0.3-1.2,2,0,2.2
			c37.3,5.8,73-8.9,106.6-23.2c37.3-15.7,74.5-31.5,111.8-47.3c-0.5-0.6-0.9-1.2-1.4-1.8c-46.1,40.7-82.2,92-105,149.1
			c0.7-0.1,1.4-0.2,2.1-0.3c-16.6-25.7-36.4-49.2-59-69.9c-0.5,0.6-0.9,1.2-1.4,1.8c14.7,10.1,27.4,22.5,37.9,36.9
			c0.1-0.5,0.3-1,0.4-1.5c-19.9,10-38.7,22-56.2,35.9c0.6,0.4,1.3,0.7,1.9,1.1c5.6-22.5,11.1-45,16.7-67.5c0.2-0.9-0.8-1.8-1.7-1.3
			c-34.4,20.3-65.8,45.6-92.9,75c-26.7,28.9-49.9,61.8-64.8,98.4c-14,34.6-19.6,72.5-12.1,109.3c6.8,33.1,25.1,68.7,55.3,86.2
			c13.8,8,31.7,11.3,44.9,0.3c10.7-8.9,15-24.1,13.1-37.5c-2.4-17.2-14.6-31.4-27.9-41.7c-14.7-11.4-32.8-21-51.7-21
			c-33.9-0.1-57.9,30.6-68.7,59.7c-12.3,33.1-12.8,70.1-5.2,104.3c7.8,35.1,24,68.3,45.9,96.7c21.1,27.4,51,57.3,87.5,60.3
			c8.5,0.7,16.9-0.5,25-3.5C675.1,1363.1,674.5,1360.9,673.2,1361.4L673.2,1361.4z"/>
	</g>
</g>
<g>
	<g>
		<linearGradient id="SVGID_27_" gradientUnits="userSpaceOnUse" x1="222.5934" y1="902.8583" x2="391.4353" y2="902.8583">
			<stop  offset="2.929688e-02" style="stop-color:#E2436A"/>
			<stop  offset="0.3605" style="stop-color:#E72279"/>
			<stop  offset="0.7561" style="stop-color:#C837E8"/>
			<stop  offset="0.8807" style="stop-color:#8A1DE6"/>
			<stop  offset="0.9988" style="stop-color:#5307E4"/>
		</linearGradient>
		<path class="st27" d="M266,862c-10-3.7-21.2-6.3-31.9-6c-8.4,0.2-11,5.5-11.5,13.2c-1.7,24.9-0.9,50.2,1.3,75.1
			c1.3,14.7,3.1,35.2,19.7,40.5c9.3,3,20.3,1.2,29.7-0.1c11.1-1.6,22-4.2,32.9-7c21.9-5.6,44.1-12.2,67-12c6,0.1,17.2,3.4,18.9-5
			c1.1-5.4,0.1-11.8,0-17.4c-0.2-6-0.5-12-1-18c-1.7-23.5-5.2-46.8-10.5-69.7c-1.3-5.9-2.8-11.7-4.4-17.5c-1.2-4.4-2.1-9.3-4.4-13.2
			c-4.7-7.9-13.8-5.4-21.3-3.9c-13.4,2.8-26.7,6.5-39.5,11.3c-7.7,2.9-16.3,6.8-20.5,14.3c-5.3,9.5,0.1,22.1,2.4,31.7
			c3.3,13.9,6.6,27.9,9.8,41.8c0.6-0.4,1.3-0.7,1.9-1.1c-10.8-10.9-23-20.2-36.4-27.7c-0.1,0.7-0.2,1.4-0.3,2.1
			c19.1-5.9,38.2-11.8,57.3-17.8c-0.4-0.6-0.8-1.1-1.3-1.7c-11.7,21.3-23.4,42.7-35.1,64c-0.7,1.3,1.2,2.4,1.9,1.1
			c11.7-21.3,23.4-42.7,35.1-64c0.5-0.8-0.3-2-1.3-1.7c-19.1,5.9-38.2,11.8-57.3,17.8c-0.9,0.3-1.1,1.6-0.3,2.1
			c13.2,7.4,25.3,16.6,35.9,27.4c0.8,0.8,2.1,0,1.9-1.1c-2.4-10.1-4.8-20.3-7.2-30.4c-2.4-10.3-6.2-21.1-7.1-31.6
			c-0.9-10.2,6.4-16.4,14.8-20.4c8.7-4.2,18.3-6.9,27.5-9.4c4.2-1.2,8.4-2.2,12.7-3.2c5.1-1.2,11-3.1,16.2-2.8
			c6.7,0.3,8.8,5.2,10.4,10.8c1.5,5.2,2.9,10.4,4.2,15.6c5,19.9,8.6,40.1,10.9,60.4c1.1,10.1,1.9,20.2,2.3,30.3
			c0.2,5.1,0.4,10.1,0.4,15.2c0,0.9,0,1.9,0,2.8c0,3,0.1,2.4-2.6,5c-2.7,2.5-1.9,2.5-4.7,2.4c-1.4-0.1-2.8-0.2-4.2-0.3
			c-18.2-1-36.3,2.7-53.9,7c-18.5,4.6-36.8,10.2-55.8,12.3c-9.2,1.1-20.7,2.7-28.9-2.5c-7-4.4-10-12.8-11.6-20.5
			c-2.1-10.3-2.5-21.1-3.1-31.5c-0.7-11.8-1-23.7-0.9-35.6c0-5.9,0.2-11.9,0.4-17.8c0.3-6.4-0.5-16,8.1-16.8
			c10.8-1,22.7,2.2,32.8,5.9C266.8,864.6,267.4,862.4,266,862L266,862z"/>
	</g>
</g>
<g>
	<g>
		<linearGradient id="SVGID_28_" gradientUnits="userSpaceOnUse" x1="529.6266" y1="456.3201" x2="640.1577" y2="456.3201">
			<stop  offset="0" style="stop-color:#92E1FF"/>
			<stop  offset="0.3605" style="stop-color:#F4B8FF"/>
			<stop  offset="0.7561" style="stop-color:#F1F3FF"/>
			<stop  offset="0.7808" style="stop-color:#ECECFF"/>
			<stop  offset="0.9988" style="stop-color:#C5B6FF"/>
		</linearGradient>
		<path class="st28" d="M595,443.6c-7.1-9.6-19.9-23.8-33.1-15.1c-4.9,3.2-7.6,9.1-9.8,14.4c-3.3,7.9-5.3,16.3-6.1,24.8
			c-0.8,9,1.6,24,14,22.4c6.3-0.8,11.1-6.5,14.6-11.3c5.8-7.9,11.2-16.1,16.7-24.1c-0.7-0.3-1.4-0.6-2.1-0.9
			c-2.8,7.4-5.7,15.8-2.4,23.6c2.4,5.9,7.7,9.5,14.1,8.8c12.9-1.5,24.5-11.4,31.3-22c14.6-22.9,10-52.8-13-68.1
			c-10.7-7.1-24.1-10.4-36.9-8.7c-13.7,1.9-25.4,10.1-33.7,20.9c-9.5,12.4-14.8,27.7-17.7,43c-3.2,17.1-3.7,35.8,4.8,51.6
			c7.9,14.7,22.8,24.6,39.9,22.8c18.8-1.9,34.8-15.3,47.1-28.7c1-1.1-0.6-2.7-1.6-1.6c-10.1,11-22.2,21.5-36.7,26.1
			c-14.3,4.6-29.3,1.2-39.6-9.9c-20.9-22.3-15.1-60.2-3.7-85.8c10.6-23.8,32.6-41.6,59.7-35.2c24.5,5.8,41.7,28.1,37.1,53.5
			c-2.4,13.1-9.9,25.5-20.9,33.1c-6,4.2-16.5,9.8-23.5,5.2c-9.5-6.3-5.1-19.5-2-28c0.5-1.3-1.4-1.9-2.1-0.9
			c-3.8,5.4-7.6,10.9-11.3,16.4c-3.3,4.8-6.5,10.1-10.9,14c-5.3,4.6-12.8,5.8-16.8-1.2c-2.5-4.5-2.5-10.1-2.1-15
			c1-11.2,4.1-25.8,11.7-34.5c11.6-13.1,26,2,33,11.6C593.9,445.9,595.8,444.7,595,443.6L595,443.6z"/>
	</g>
</g>
<g>
	<g>
		<linearGradient id="SVGID_29_" gradientUnits="userSpaceOnUse" x1="663.0159" y1="497.0843" x2="849.3005" y2="497.0843">
			<stop  offset="0" style="stop-color:#5900FF"/>
			<stop  offset="0.3605" style="stop-color:#00EDFF"/>
			<stop  offset="0.5751" style="stop-color:#8DEFCF"/>
			<stop  offset="0.7561" style="stop-color:#FFF1A7"/>
			<stop  offset="0.7594" style="stop-color:#FFEEA5"/>
			<stop  offset="0.926" style="stop-color:#EB652F"/>
			<stop  offset="0.9988" style="stop-color:#E32E00"/>
		</linearGradient>
		<path class="st29" d="M729.7,569.6c-27.6-9.2-45.1-35.2-55-61.2c-11.5-30.1-15.3-64.4,0.8-93.6c13.5-24.7,39.2-43.7,67.6-46.4
			c31-3,59.6,20.7,77.7,43.5c17.8,22.4,28.9,51.1,26.8,80c-2,26.7-16.5,52.6-38,68.5c-10.5,7.7-22.7,13.1-35.7,14.7
			c-7.8,1-15.9,0.8-23.6-1c-6.6-1.5-23.6-6.8-19.7-16.4c2.8-7,15.1-9.4,21.8-10.6c8.1-1.4,16.5-1,24.4,1.1
			c6.9,1.8,18.4,5.5,20.1,13.7c1.9,9.4-10.1,16.1-16.7,20c-7,4.2-14.6,7.8-22.5,10.2c-6.3,1.9-14.6,3.1-20.3-1.1
			c-6.9-5.2-4.7-14.9,0.6-20.4c6-6.1,15.5-6.8,23.5-6.5c8.4,0.3,17.6,0.7,25.3,4.3c7.5,3.5,14.1,11.9,11.1,20.5
			c-2.7,7.6-11.8,10.5-18.9,11.9c-8.2,1.7-16.8,1.7-25,0.1c-7.9-1.5-15.3-4.4-22.2-8.5c0,0.6,0,1.3,0,1.9
			c10.1-7.7,24.9-16.7,37.7-10.2c5.1,2.6,9.6,7.4,10.9,13.1c1.7,7.5-3.4,13.3-9.7,16.5c-7.6,3.8-25,6.8-29.6-3.4
			c-1.6-3.6,4-5,6.9-5.3c3.2-0.3,6.5,0.5,9,2.4c6,4.5,6,13.6,1.2,18.9c0.6,0.3,1.3,0.5,1.9,0.8c0.5-39.8-0.1-79.6-1.6-119.4
			c0-0.9-0.9-1.3-1.7-1c-7.3,3.2-15.6,1.6-21.3-4.1c-0.1,0.6-0.2,1.2-0.2,1.8c9-5.7,19,6.8,28.7,3.8c5.3-1.6,7.6-7.1,10-11.5
			c4.3-7.8,8.6-15.5,12.9-23.3c0.7-1.3-1.2-2.4-1.9-1.1c-3.8,6.9-7.7,13.9-11.5,20.8c-3.6,6.5-6.8,14.8-15.6,13
			c-7.7-1.6-15.9-8.5-23.7-3.6c-0.6,0.4-0.8,1.2-0.2,1.8c6.4,6.4,15.7,8.1,24,4.4c-0.6-0.3-1.1-0.6-1.7-1c1.5,39.8,2,79.6,1.6,119.4
			c0,0.9,1.3,1.5,1.9,0.8c5.3-5.9,5.7-15.7-0.3-21.4c-6-5.7-15.8-4.8-21.4,0.9c-0.3,0.3-0.4,0.7-0.3,1.1c7,18.3,42.8,12.3,45.1-6.4
			c1.1-9.4-6.5-18.2-14.9-21.1c-13.2-4.6-27.1,3.7-37.3,11.3c-0.7,0.5-0.8,1.5,0,1.9c15.1,9,33.4,12.2,50.6,8.2
			c6.7-1.6,14.2-4.5,17.8-10.8c3.3-5.8,1.8-12.8-2-18c-4.7-6.4-12.3-9.3-19.9-10.5c-8.4-1.4-17.5-2.2-26-1
			c-7.4,1.1-14.3,4.4-18,11.1c-2.8,5-3.6,11.5-0.1,16.4c8.6,12.1,27.8,4.2,38.1-0.6c10-4.6,35.9-17.2,26-32c-4.1-6.1-12.3-9.1-19-11
			c-8-2.2-16.5-2.7-24.8-1.5c-7.4,1.1-16.8,3.4-22.6,8.4c-5.3,4.6-3.3,11.1,1.4,15.3c11.8,10.6,32.3,11.1,47,8.1
			c14.7-3,28.3-10.5,39.3-20.6c23.4-21.4,34.8-53.2,30.8-84.6c-4.4-33.6-24.4-64.1-50.8-84.8c-14.1-11.1-30.7-20.7-49.2-20.7
			c-16.8,0-33.6,6.4-47.2,16c-28.4,20.1-42.5,53.2-39.2,87.6c3.2,33.1,18.4,70.7,45.4,91.4c6.3,4.8,13.3,8.5,20.9,11.1
			C730.5,572.3,731.1,570.1,729.7,569.6L729.7,569.6z"/>
	</g>
</g>
<g>
	<g>
		<linearGradient id="SVGID_30_" gradientUnits="userSpaceOnUse" x1="27.9091" y1="315.8733" x2="411.3755" y2="315.8733">
			<stop  offset="0" style="stop-color:#E77AEB"/>
			<stop  offset="0.3605" style="stop-color:#EACDA6"/>
			<stop  offset="0.7561" style="stop-color:#ECDFF1"/>
			<stop  offset="0.8363" style="stop-color:#F3C2E9"/>
			<stop  offset="0.9988" style="stop-color:#FF8CD9"/>
		</linearGradient>
		<path class="st30" d="M133.1,30.6C108.1,47.6,83,64.5,58,81.5c-9.4,6.4-22,12.6-27.2,23.3c-5.4,11.2-3.4,25.8-3.4,37.8
			c0,14.4-0.1,28.9-0.1,43.3c0,14.8-1,29.9,0,44.6c0.7,11.2,8.8,13.7,18,17.4c12.6,5.2,24.9,11.1,36.9,17.7
			c26,14.4,50.1,32,71.7,52.3c0.5,0.5,1.1,0.4,1.6,0c28.9-22.4,59.6-42.5,91.6-60.1c8-4.4,16.1-8.7,24.3-12.8c3.2-1.6,3.7-1.3,4-4.6
			c0.4-5.3,0.8-10.6,1.1-15.9c1.4-19.5,2.8-39,4.2-58.5c1.6-22.2,3.2-44.3,4.8-66.5c0-0.4-0.2-0.8-0.6-1
			c-42.2-23.9-84.4-47.7-126.5-71.6c-0.8-0.4-1.7,0.1-1.7,1c-0.4,11.1-0.8,22.1-1.2,33.2c-0.2,5.5-0.4,11.1-0.6,16.6
			c-0.2,5.6-0.2,11.5-2.9,16.6c-4.6,8.8-16.8,12-25.3,15.6c-10.1,4.3-20.2,8.7-30.3,13c-3.2,1.4-7.5,2-9,5.3
			c-1.6,3.5-2.6,7.3-3.5,11c-1.6,6.7-2.3,13.6-2.3,20.4c0.1,13.8,3.3,27.6,9.1,40.2c5.9,12.9,14.4,24.6,25.1,33.9
			c5.3,4.6,11.2,8.7,17.5,11.9c2.7,1.4,5.5,2.7,8.4,3.8c2.3,0.9,6.2,3,8.7,2.5c1.7-0.4,4.4-2.8,5.8-3.7c2.4-1.6,4.9-3.1,7.3-4.7
			c4.6-3,9.2-5.9,13.9-8.9c8.9-5.7,18-11.3,26.8-17.2c12.9-8.7,26-19.7,28.6-35.9c2.8-17.6-7.1-35.2-19.8-46.7
			c-15.9-14.4-36.7-21.9-55.2-32.4c-0.7-0.4-1.7,0.1-1.7,1c1.7,70.2,3.4,140.3,5.1,210.5c0.5,19.9,1,39.7,1.4,59.6
			c0,0.8,1,1.5,1.7,1c23.2-16.7,46.3-33.4,69.5-50.1c11.7-8.5,23.4-17.1,35.2-25.4c6-4.2,11.9-6.7,19.1-4.1c7,2.6,13.8,6.5,20.6,9.8
			c13,6.3,26,12.5,39,18.8c11.6,5.6,23.7,10.8,35,17.1c5.6,3.1,11.1,7,14.7,12.4c3.8,5.8,4.9,12.7,5.5,19.5
			c1.3,13.4,2.3,26.8,3.4,40.2c1.2,14,2.9,28.1,3.5,42.1c0.3,6.6-0.5,13-4.5,18.5c-3.8,5.2-9.2,9.1-14.2,13.1
			c-22.2,17.8-44.3,35.7-66.5,53.5c-5.4,4.4-11,10.2-17,13.7c-1.6,0.9-1.2,1.5-3.4,1.3c-1.3-0.1-3.9-2.3-5.1-3.1
			c-3.4-2-6.7-4.1-10.1-6.1c-11.8-7.1-23.6-14.2-35.4-21.4c-12.4-7.5-24.7-14.9-37.1-22.4c-5.2-3.1-10.9-6-15.4-10.1
			c-5.9-5.3-6.7-12.2-7.4-19.7c-1.5-15.7-2.9-31.4-4.3-47.1c-0.4-3.9-0.7-7.8-1.1-11.8c-0.3-3.5-1.7-8.3-1.1-11.8
			c0.7-3.7,6-6.5,8.7-8.7c3.1-2.5,6.2-5,9.2-7.6c25.2-20.6,50.4-41.1,75.5-61.7c-0.6-0.2-1.3-0.3-1.9-0.5c4.6,16,9.8,35,1.4,50.7
			c-6.8,12.7-20.8,18.6-31.3,27.5c-22.9,19.5-16,51.8,3.9,70.7c5.2,4.9,11,9.1,17.2,12.8c6.3,3.8,13.4,8,20.9,8.9
			c7.3,0.8,14-2.7,20.2-6.1c6.2-3.4,12.2-7.1,18-11.1c20-14,40.6-35.5,34.3-62.1c-6.7-28.2-38.7-41.5-63.7-48.4
			c-0.7-0.2-1.4,0.4-1.4,1.1c-0.2,79-0.5,157.9-0.7,236.9c0,1.4,2.2,1.4,2.2,0c0.2-79,0.5-157.9,0.7-236.9c-0.5,0.4-0.9,0.7-1.4,1.1
			c22.3,6.2,49.2,16.8,59.5,39.3c12.1,26.4-7.9,50.6-28.3,65.4c-5.2,3.7-10.5,7.2-16,10.4c-6.9,4-14.6,9-23,8.3
			c-7.7-0.7-15.1-5.4-21.5-9.4c-6.4-3.9-12.4-8.5-17.6-13.8c-10.1-10.5-16.8-24.5-15.6-39.3c1.2-15.4,11.3-24.7,23.2-33
			c10.6-7.4,21.2-14.9,25.1-27.8c4.5-14.9,0.1-31.1-4-45.6c-0.3-0.9-1.2-1-1.9-0.5c-18.5,15.1-37,30.2-55.5,45.3
			c-9,7.3-18,14.7-27,22c-2.3,1.9-4.6,3.8-6.9,5.7c-1.4,1.1-4.1,2.5-4.8,4c-0.7,1.4,0.2,3.9,0.3,5.5c0.3,3.3,0.6,6.5,0.9,9.8
			c1.1,11.4,2.1,22.9,3.2,34.3c1,10.7,1.1,21.8,3.2,32.3c1.7,8.6,7.6,13.6,14.8,18.1c9.7,6,19.4,11.7,29.2,17.6
			c22.8,13.7,45.5,27.5,68.3,41.2c0.5,0.3,1,0.1,1.4-0.2c29.4-23.6,58.7-47.3,88.1-70.9c5.6-4.5,11.7-9.1,15-15.6
			c3.4-6.7,3-14.2,2.4-21.5c-1.5-18.4-3.1-36.9-4.7-55.3c-0.7-8.6-1.2-17.2-2.3-25.8c-0.9-6.4-2.5-12.8-6.4-18
			c-9.2-12.2-26.5-17.8-39.7-24.2c-16.8-8.1-33.7-16.3-50.5-24.4c-7.2-3.5-14.8-8.5-22.7-10.2c-6.9-1.5-12.7,2-18.1,5.8
			c-34.9,24.7-69.4,50-104.1,75.1c0.6,0.3,1.1,0.6,1.7,1c-1.7-70.2-3.4-140.3-5.1-210.5c-0.5-19.9-1-39.7-1.4-59.6
			c-0.6,0.3-1.1,0.6-1.7,1c15.4,8.7,32.1,15.3,46.6,25.6c14.3,10.1,26.9,25.7,27.7,43.9c0.8,18.7-13,31.5-27.3,41.2
			c-16.2,11-32.9,21.2-49.4,31.7c-2.3,1.5-3.8,2.8-6.5,2.3c-1.4-0.2-2.9-0.9-4.3-1.4c-3.7-1.3-7.3-3-10.7-4.9
			c-6-3.3-11.7-7.3-16.8-12c-10.2-9.3-18.3-20.8-23.8-33.4c-5.6-12.9-8.6-27-8.2-41c0.2-6.9,1.2-13.7,3.2-20.4
			c0.5-1.6,1-3.3,1.6-4.9c0.9-2.6,1.9-3.2,4.5-4.5c4.6-2.3,9.5-4.1,14.3-6.1c10.3-4.4,20.7-8.8,31-13.3c7-3.1,13.8-6.7,16.7-14.3
			c3.4-9.2,2.3-20.4,2.7-30c0.4-11.7,0.8-23.4,1.3-35.2c-0.6,0.3-1.1,0.6-1.7,1c24.8,14.1,49.7,28.1,74.5,42.2
			c12.7,7.2,25.4,14.4,38.1,21.6c2.9,1.6,5.8,3.3,8.7,4.9c4.1,2.3,4.5,3.5,4.2,7.9c-0.5,7.3-1.1,14.6-1.6,21.8
			c-2.1,28.4-4.1,56.9-6.2,85.3c-0.5,7.3-1.1,14.6-1.6,21.8c-0.3,3.8,0.2,6.4-3.3,8.6c-3.1,1.9-6.6,3.3-9.8,5
			c-11.4,5.9-22.6,12.1-33.7,18.7c-25.3,15-49.7,31.6-73,49.6c0.5,0,1.1,0,1.6,0c-17.6-16.5-36.8-31.3-57.3-44
			c-10.2-6.3-20.8-12.1-31.6-17.3c-5.1-2.5-10.4-4.9-15.6-7.1c-5.2-2.2-11.1-3.8-15.9-6.8c-6.8-4.3-5.5-12.7-5.5-19.7
			c0-7.2,0-14.4,0-21.6c0-14.4,0.1-28.9,0.1-43.3c0-13.1-0.9-26.6,0.4-39.7c0.7-7,3.2-13.3,8.3-18.2c4.9-4.8,11-8.4,16.7-12.2
			c26.4-17.9,52.8-35.7,79.3-53.6C135.4,31.8,134.3,29.8,133.1,30.6L133.1,30.6z"/>
	</g>
</g>
</svg>
